SplineFontDB: 3.0
FontName: SupermercadoOne-Regular
FullName: Supermercado One Regular
FamilyName: Supermercado One
Weight: Book
Copyright: Copyright (c) 2011, Sorkin Type Co (www.sorkintype.com)\nwith Reserved Font Name "Supermercado One". 
Version: 1.002
ItalicAngle: 0
UnderlinePosition: 5
UnderlineWidth: 181
Ascent: 1638
Descent: 410
LayerCount: 2
Layer: 0 1 "Back"  1
Layer: 1 1 "Fore"  0
XUID: [1021 631 1661839179 13244979]
FSType: 0
OS2Version: 3
OS2_WeightWidthSlopeOnly: 0
OS2_UseTypoMetrics: 1
CreationTime: 1319110740
ModificationTime: 1319097302
PfmFamily: 17
TTFWeight: 400
TTFWidth: 5
LineGap: 0
VLineGap: 0
Panose: 2 1 6 4 3 1 0 4 8 4
OS2TypoAscent: 287
OS2TypoAOffset: 1
OS2TypoDescent: -101
OS2TypoDOffset: 1
OS2TypoLinegap: 0
OS2WinAscent: 0
OS2WinAOffset: 1
OS2WinDescent: 0
OS2WinDOffset: 1
HheadAscent: 0
HheadAOffset: 1
HheadDescent: 0
HheadDOffset: 1
OS2SubXSize: 1434
OS2SubYSize: 1331
OS2SubXOff: 0
OS2SubYOff: 287
OS2SupXSize: 1434
OS2SupYSize: 1331
OS2SupXOff: 0
OS2SupYOff: 977
OS2StrikeYSize: 102
OS2StrikeYPos: 512
OS2Vendor: 'STC '
OS2CodePages: 20000111.40000000
OS2UnicodeRanges: a00000af.00000003.00000000.00000000
Lookup: 258 0 0 "'kern' Horizontal Kerning in Latin lookup 0"  {"'kern' Horizontal Kerning in Latin lookup 0 subtable"  } ['kern' ('latn' <'dflt' > ) ]
DEI: 91125
TtTable: prep
PUSHW_1
 511
SCANCTRL
PUSHB_1
 4
SVTCA[y-axis]
EndTTInstrs
ShortTable: maxp 16
  1
  0
  266
  141
  5
  0
  0
  1
  0
  0
  0
  0
  0
  0
  0
  0
EndShort

StartChar: a
Encoding: 97 97 5
Width: 1023
Flags: W
LayerCount: 2
Fore
SplineSet
156 414 m 2,0,1
 156 475 156 475 179.5 529 c 128,-1,2
 203 583 203 583 243 623 c 128,-1,3
 283 663 283 663 337 686 c 128,-1,4
 391 709 391 709 452 709 c 2,5,-1
 630 709 l 1,6,-1
 630 767 l 2,7,8
 630 792 630 792 621 813.5 c 128,-1,9
 612 835 612 835 596 851 c 128,-1,10
 580 867 580 867 558.5 876.5 c 128,-1,11
 537 886 537 886 512 886 c 2,12,-1
 335 886 l 2,13,14
 316 886 316 886 299.5 893 c 128,-1,15
 283 900 283 900 270.5 912 c 128,-1,16
 258 924 258 924 251 940 c 128,-1,17
 244 956 244 956 244 975 c 0,18,19
 244 1013 244 1013 270.5 1039.5 c 128,-1,20
 297 1066 297 1066 335 1066 c 2,21,-1
 571 1066 l 2,22,23
 632 1066 632 1066 686 1042.5 c 128,-1,24
 740 1019 740 1019 780 979 c 128,-1,25
 820 939 820 939 843.5 885 c 128,-1,26
 867 831 867 831 867 770 c 2,27,-1
 867 97 l 2,28,29
 867 73 867 73 858 51.5 c 128,-1,30
 849 30 849 30 833 14.5 c 128,-1,31
 817 -1 817 -1 795 -10.5 c 128,-1,32
 773 -20 773 -20 748 -20 c 0,33,34
 721 -20 721 -20 702 -11.5 c 128,-1,35
 683 -3 683 -3 671 8 c 128,-1,36
 659 19 659 19 652 30.5 c 128,-1,37
 645 42 645 42 642 47 c 0,38,39
 638 55 638 55 632 64 c 128,-1,40
 626 73 626 73 613 73 c 0,41,42
 599 73 599 73 591.5 64.5 c 128,-1,43
 584 56 584 56 576 47 c 0,44,45
 550 20 550 20 513 0 c 128,-1,46
 476 -20 476 -20 419 -20 c 0,47,48
 365 -20 365 -20 317.5 3.5 c 128,-1,49
 270 27 270 27 234 67.5 c 128,-1,50
 198 108 198 108 177 161.5 c 128,-1,51
 156 215 156 215 156 276 c 2,52,-1
 156 414 l 2,0,1
393 278 m 2,53,54
 393 253 393 253 402 231.5 c 128,-1,55
 411 210 411 210 427 194.5 c 128,-1,56
 443 179 443 179 464.5 170 c 128,-1,57
 486 161 486 161 512 161 c 0,58,59
 536 161 536 161 557.5 168 c 128,-1,60
 579 175 579 175 595 188 c 128,-1,61
 611 201 611 201 620.5 219.5 c 128,-1,62
 630 238 630 238 630 262 c 2,63,-1
 630 530 l 1,64,-1
 512 530 l 2,65,66
 486 530 486 530 464.5 521 c 128,-1,67
 443 512 443 512 427 496 c 128,-1,68
 411 480 411 480 402 458.5 c 128,-1,69
 393 437 393 437 393 412 c 2,70,-1
 393 278 l 2,53,54
EndSplineSet
EndChar

StartChar: b
Encoding: 98 98 6
Width: 1023
Flags: W
LayerCount: 2
Fore
SplineSet
156 1419 m 2,0,1
 156 1444 156 1444 165 1465.5 c 128,-1,2
 174 1487 174 1487 190.5 1503 c 128,-1,3
 207 1519 207 1519 228.5 1528.5 c 128,-1,4
 250 1538 250 1538 276 1538 c 0,5,6
 300 1538 300 1538 321.5 1528.5 c 128,-1,7
 343 1519 343 1519 359 1503 c 128,-1,8
 375 1487 375 1487 384.5 1465.5 c 128,-1,9
 394 1444 394 1444 394 1419 c 2,10,-1
 394 1025 l 2,11,12
 394 1006 394 1006 404.5 999.5 c 128,-1,13
 415 993 415 993 424 993 c 256,14,15
 433 993 433 993 442 1001.5 c 128,-1,16
 451 1010 451 1010 460 1019 c 0,17,18
 473 1032 473 1032 488.5 1044.5 c 128,-1,19
 504 1057 504 1057 522.5 1066.5 c 128,-1,20
 541 1076 541 1076 564.5 1081.5 c 128,-1,21
 588 1087 588 1087 617 1087 c 0,22,23
 670 1087 670 1087 716 1063.5 c 128,-1,24
 762 1040 762 1040 795.5 999.5 c 128,-1,25
 829 959 829 959 848 904.5 c 128,-1,26
 867 850 867 850 867 789 c 2,27,-1
 867 295 l 2,28,29
 867 234 867 234 843.5 180.5 c 128,-1,30
 820 127 820 127 780 87 c 128,-1,31
 740 47 740 47 686.5 23.5 c 128,-1,32
 633 0 633 0 572 0 c 2,33,-1
 276 0 l 2,34,35
 250 0 250 0 228.5 9 c 128,-1,36
 207 18 207 18 190.5 34 c 128,-1,37
 174 50 174 50 165 71.5 c 128,-1,38
 156 93 156 93 156 119 c 2,39,-1
 156 1419 l 2,0,1
512 180 m 2,40,41
 537 180 537 180 558.5 189 c 128,-1,42
 580 198 580 198 596 214 c 128,-1,43
 612 230 612 230 621 251.5 c 128,-1,44
 630 273 630 273 630 299 c 2,45,-1
 630 788 l 2,46,47
 630 812 630 812 621 833.5 c 128,-1,48
 612 855 612 855 596 870.5 c 128,-1,49
 580 886 580 886 558.5 895.5 c 128,-1,50
 537 905 537 905 512 905 c 0,51,52
 463 905 463 905 430 874.5 c 128,-1,53
 397 844 397 844 394 796 c 1,54,-1
 394 180 l 1,55,-1
 512 180 l 2,40,41
EndSplineSet
EndChar

StartChar: c
Encoding: 99 99 7
Width: 1023
Flags: W
LayerCount: 2
Fore
SplineSet
156 792 m 2,0,1
 156 853 156 853 177.5 906.5 c 128,-1,2
 199 960 199 960 243 1000 c 128,-1,3
 287 1040 287 1040 354 1063 c 128,-1,4
 421 1086 421 1086 511 1086 c 0,5,6
 585 1086 585 1086 647 1073 c 128,-1,7
 709 1060 709 1060 753.5 1036 c 128,-1,8
 798 1012 798 1012 822.5 978.5 c 128,-1,9
 847 945 847 945 847 903 c 0,10,11
 847 878 847 878 838 856.5 c 128,-1,12
 829 835 829 835 813 819 c 128,-1,13
 797 803 797 803 776 794 c 128,-1,14
 755 785 755 785 730 785 c 0,15,16
 692 785 692 785 665.5 805.5 c 128,-1,17
 639 826 639 826 621 853 c 1,18,19
 599 880 599 880 573 893 c 128,-1,20
 547 906 547 906 511 906 c 0,21,22
 486 906 486 906 464.5 896.5 c 128,-1,23
 443 887 443 887 427 871 c 128,-1,24
 411 855 411 855 402 833.5 c 128,-1,25
 393 812 393 812 393 787 c 2,26,-1
 393 298 l 2,27,28
 393 247 393 247 426.5 214 c 128,-1,29
 460 181 460 181 511 181 c 2,30,-1
 757 181 l 2,31,32
 776 181 776 181 792.5 173.5 c 128,-1,33
 809 166 809 166 821 153.5 c 128,-1,34
 833 141 833 141 840 124.5 c 128,-1,35
 847 108 847 108 847 90 c 0,36,37
 847 52 847 52 821 26 c 128,-1,38
 795 0 795 0 757 0 c 2,39,-1
 452 0 l 2,40,41
 391 0 391 0 337 23.5 c 128,-1,42
 283 47 283 47 243 87 c 128,-1,43
 203 127 203 127 179.5 181 c 128,-1,44
 156 235 156 235 156 296 c 2,45,-1
 156 792 l 2,0,1
EndSplineSet
EndChar

StartChar: d
Encoding: 100 100 8
Width: 1023
Flags: W
LayerCount: 2
Fore
SplineSet
156 770 m 2,0,1
 156 831 156 831 179.5 885 c 128,-1,2
 203 939 203 939 243 979 c 128,-1,3
 283 1019 283 1019 337 1042.5 c 128,-1,4
 391 1066 391 1066 452 1066 c 2,5,-1
 630 1066 l 1,6,-1
 630 1420 l 2,7,8
 630 1471 630 1471 663.5 1504.5 c 128,-1,9
 697 1538 697 1538 748 1538 c 0,10,11
 773 1538 773 1538 795 1529 c 128,-1,12
 817 1520 817 1520 833 1504 c 128,-1,13
 849 1488 849 1488 858 1466.5 c 128,-1,14
 867 1445 867 1445 867 1420 c 2,15,-1
 867 97 l 2,16,17
 867 73 867 73 858 51.5 c 128,-1,18
 849 30 849 30 833 14.5 c 128,-1,19
 817 -1 817 -1 795 -10.5 c 128,-1,20
 773 -20 773 -20 748 -20 c 0,21,22
 721 -20 721 -20 702 -12 c 128,-1,23
 683 -4 683 -4 670.5 6.5 c 128,-1,24
 658 17 658 17 651 27.5 c 128,-1,25
 644 38 644 38 641 44 c 0,26,27
 637 52 637 52 631 62.5 c 128,-1,28
 625 73 625 73 613 73 c 256,29,30
 601 73 601 73 592 64.5 c 128,-1,31
 583 56 583 56 574 47 c 0,32,33
 548 20 548 20 512.5 0 c 128,-1,34
 477 -20 477 -20 419 -20 c 0,35,36
 365 -20 365 -20 317 3.5 c 128,-1,37
 269 27 269 27 233 67.5 c 128,-1,38
 197 108 197 108 176.5 161.5 c 128,-1,39
 156 215 156 215 156 276 c 2,40,-1
 156 770 l 2,0,1
393 267 m 2,41,42
 393 216 393 216 426.5 188.5 c 128,-1,43
 460 161 460 161 511 161 c 0,44,45
 535 161 535 161 556.5 168 c 128,-1,46
 578 175 578 175 594.5 188 c 128,-1,47
 611 201 611 201 620.5 219.5 c 128,-1,48
 630 238 630 238 630 262 c 2,49,-1
 630 886 l 1,50,-1
 511 886 l 2,51,52
 486 886 486 886 464.5 876.5 c 128,-1,53
 443 867 443 867 427 851 c 128,-1,54
 411 835 411 835 402 813.5 c 128,-1,55
 393 792 393 792 393 767 c 2,56,-1
 393 267 l 2,41,42
EndSplineSet
EndChar

StartChar: e
Encoding: 101 101 9
Width: 1023
Flags: W
LayerCount: 2
Fore
SplineSet
156 787 m 2,0,1
 156 854 156 854 179.5 909 c 128,-1,2
 203 964 203 964 248.5 1003.5 c 128,-1,3
 294 1043 294 1043 360 1064.5 c 128,-1,4
 426 1086 426 1086 512 1086 c 0,5,6
 596 1086 596 1086 662 1064.5 c 128,-1,7
 728 1043 728 1043 773.5 1003.5 c 128,-1,8
 819 964 819 964 843 908.5 c 128,-1,9
 867 853 867 853 867 785 c 2,10,-1
 867 505 l 2,11,12
 867 480 867 480 858 458.5 c 128,-1,13
 849 437 849 437 833 421 c 128,-1,14
 817 405 817 405 795 396 c 128,-1,15
 773 387 773 387 748 387 c 2,16,-1
 393 387 l 1,17,-1
 393 298 l 2,18,19
 393 247 393 247 426.5 214 c 128,-1,20
 460 181 460 181 511 181 c 2,21,-1
 688 181 l 2,22,23
 707 181 707 181 723.5 173.5 c 128,-1,24
 740 166 740 166 752 153.5 c 128,-1,25
 764 141 764 141 771 124.5 c 128,-1,26
 778 108 778 108 778 90 c 0,27,28
 778 52 778 52 752 26 c 128,-1,29
 726 0 726 0 688 0 c 2,30,-1
 452 0 l 2,31,32
 391 0 391 0 337 23.5 c 128,-1,33
 283 47 283 47 243 87 c 128,-1,34
 203 127 203 127 179.5 181 c 128,-1,35
 156 235 156 235 156 296 c 2,36,-1
 156 787 l 2,0,1
630 562 m 1,37,-1
 630 787 l 2,38,39
 630 812 630 812 621 833.5 c 128,-1,40
 612 855 612 855 596 871 c 128,-1,41
 580 887 580 887 558.5 896.5 c 128,-1,42
 537 906 537 906 512 906 c 0,43,44
 486 906 486 906 464.5 896.5 c 128,-1,45
 443 887 443 887 427 871 c 128,-1,46
 411 855 411 855 402 833.5 c 128,-1,47
 393 812 393 812 393 787 c 2,48,-1
 393 562 l 1,49,-1
 630 562 l 1,37,-1
EndSplineSet
EndChar

StartChar: f
Encoding: 102 102 10
Width: 850
Flags: W
LayerCount: 2
Fore
SplineSet
288 890 m 1,0,-1
 212 890 l 2,1,2
 194 890 194 890 178 897 c 128,-1,3
 162 904 162 904 150 916 c 128,-1,4
 138 928 138 928 131 944 c 128,-1,5
 124 960 124 960 124 978 c 256,6,7
 124 996 124 996 131 1012 c 128,-1,8
 138 1028 138 1028 150 1040 c 128,-1,9
 162 1052 162 1052 178 1059 c 128,-1,10
 194 1066 194 1066 212 1066 c 2,11,-1
 288 1066 l 1,12,-1
 288 1241 l 2,13,14
 288 1303 288 1303 311 1357.5 c 128,-1,15
 334 1412 334 1412 374 1452 c 128,-1,16
 414 1492 414 1492 467.5 1515 c 128,-1,17
 521 1538 521 1538 583 1538 c 2,18,-1
 695 1538 l 2,19,20
 714 1538 714 1538 730 1531 c 128,-1,21
 746 1524 746 1524 758 1511.5 c 128,-1,22
 770 1499 770 1499 777 1482.5 c 128,-1,23
 784 1466 784 1466 784 1447 c 0,24,25
 784 1410 784 1410 758.5 1384.5 c 128,-1,26
 733 1359 733 1359 695 1359 c 2,27,-1
 642 1359 l 2,28,29
 618 1359 618 1359 596.5 1349.5 c 128,-1,30
 575 1340 575 1340 559 1324 c 128,-1,31
 543 1308 543 1308 533.5 1286 c 128,-1,32
 524 1264 524 1264 524 1239 c 2,33,-1
 524 1066 l 1,34,-1
 678 1066 l 2,35,36
 714 1066 714 1066 739 1040 c 128,-1,37
 764 1014 764 1014 764 978 c 0,38,39
 764 960 764 960 757 944 c 128,-1,40
 750 928 750 928 738.5 916 c 128,-1,41
 727 904 727 904 711.5 897 c 128,-1,42
 696 890 696 890 678 890 c 2,43,-1
 524 890 l 1,44,-1
 524 97 l 2,45,46
 524 73 524 73 515 51.5 c 128,-1,47
 506 30 506 30 490 14 c 128,-1,48
 474 -2 474 -2 452.5 -11 c 128,-1,49
 431 -20 431 -20 406 -20 c 256,50,51
 381 -20 381 -20 359.5 -10.5 c 128,-1,52
 338 -1 338 -1 322 14.5 c 128,-1,53
 306 30 306 30 297 51.5 c 128,-1,54
 288 73 288 73 288 97 c 2,55,-1
 288 890 l 1,0,-1
EndSplineSet
EndChar

StartChar: g
Encoding: 103 103 11
Width: 1023
Flags: W
LayerCount: 2
Fore
SplineSet
156 770 m 2,0,1
 156 831 156 831 179.5 885 c 128,-1,2
 203 939 203 939 243 979 c 128,-1,3
 283 1019 283 1019 337 1042.5 c 128,-1,4
 391 1066 391 1066 452 1066 c 2,5,-1
 747 1066 l 2,6,7
 772 1066 772 1066 794 1057 c 128,-1,8
 816 1048 816 1048 832 1031.5 c 128,-1,9
 848 1015 848 1015 857.5 993 c 128,-1,10
 867 971 867 971 867 946 c 2,11,-1
 867 -178 l 2,12,13
 867 -239 867 -239 843.5 -293 c 128,-1,14
 820 -347 820 -347 779.5 -387 c 128,-1,15
 739 -427 739 -427 685 -450.5 c 128,-1,16
 631 -474 631 -474 570 -474 c 2,17,-1
 393 -474 l 2,18,19
 355 -474 355 -474 328.5 -448 c 128,-1,20
 302 -422 302 -422 302 -384 c 256,21,22
 302 -346 302 -346 328.5 -319.5 c 128,-1,23
 355 -293 355 -293 393 -293 c 2,24,-1
 511 -293 l 2,25,26
 536 -293 536 -293 557.5 -284 c 128,-1,27
 579 -275 579 -275 595 -259 c 128,-1,28
 611 -243 611 -243 620 -221.5 c 128,-1,29
 629 -200 629 -200 629 -176 c 2,30,-1
 629 41 l 2,31,32
 629 60 629 60 618.5 66.5 c 128,-1,33
 608 73 608 73 599 73 c 0,34,35
 588 73 588 73 579.5 64.5 c 128,-1,36
 571 56 571 56 563 48 c 0,37,38
 536 21 536 21 499.5 0.5 c 128,-1,39
 463 -20 463 -20 407 -20 c 0,40,41
 353 -20 353 -20 307 3.5 c 128,-1,42
 261 27 261 27 227.5 67.5 c 128,-1,43
 194 108 194 108 175 161.5 c 128,-1,44
 156 215 156 215 156 276 c 2,45,-1
 156 770 l 2,0,1
393 279 m 2,46,47
 393 254 393 254 402 232.5 c 128,-1,48
 411 211 411 211 427 195 c 128,-1,49
 443 179 443 179 464.5 169.5 c 128,-1,50
 486 160 486 160 511 160 c 0,51,52
 535 160 535 160 556 167.5 c 128,-1,53
 577 175 577 175 593.5 189 c 128,-1,54
 610 203 610 203 619.5 223 c 128,-1,55
 629 243 629 243 629 267 c 2,56,-1
 629 886 l 1,57,-1
 511 886 l 2,58,59
 486 886 486 886 464.5 876.5 c 128,-1,60
 443 867 443 867 427 851 c 128,-1,61
 411 835 411 835 402 813.5 c 128,-1,62
 393 792 393 792 393 767 c 2,63,-1
 393 279 l 2,46,47
EndSplineSet
EndChar

StartChar: h
Encoding: 104 104 12
Width: 1023
Flags: W
LayerCount: 2
Fore
SplineSet
156 1420 m 2,0,1
 156 1445 156 1445 165.5 1466.5 c 128,-1,2
 175 1488 175 1488 191 1504 c 128,-1,3
 207 1520 207 1520 229 1529 c 128,-1,4
 251 1538 251 1538 276 1538 c 0,5,6
 300 1538 300 1538 321.5 1529 c 128,-1,7
 343 1520 343 1520 359 1504 c 128,-1,8
 375 1488 375 1488 384.5 1466.5 c 128,-1,9
 394 1445 394 1445 394 1420 c 2,10,-1
 394 1025 l 2,11,12
 394 1006 394 1006 404.5 999.5 c 128,-1,13
 415 993 415 993 424 993 c 0,14,15
 435 993 435 993 443.5 1001.5 c 128,-1,16
 452 1010 452 1010 460 1018 c 0,17,18
 487 1045 487 1045 524 1065.5 c 128,-1,19
 561 1086 561 1086 617 1086 c 0,20,21
 671 1086 671 1086 717 1062.5 c 128,-1,22
 763 1039 763 1039 796 998.5 c 128,-1,23
 829 958 829 958 848 904.5 c 128,-1,24
 867 851 867 851 867 790 c 2,25,-1
 867 97 l 2,26,27
 867 73 867 73 858 51.5 c 128,-1,28
 849 30 849 30 833 14.5 c 128,-1,29
 817 -1 817 -1 795.5 -10.5 c 128,-1,30
 774 -20 774 -20 749 -20 c 0,31,32
 725 -20 725 -20 703 -11 c 128,-1,33
 681 -2 681 -2 665 14 c 128,-1,34
 649 30 649 30 639.5 51.5 c 128,-1,35
 630 73 630 73 630 97 c 2,36,-1
 630 787 l 2,37,38
 630 812 630 812 621 833.5 c 128,-1,39
 612 855 612 855 596 871 c 128,-1,40
 580 887 580 887 558.5 896.5 c 128,-1,41
 537 906 537 906 512 906 c 0,42,43
 488 906 488 906 467 898.5 c 128,-1,44
 446 891 446 891 429.5 877 c 128,-1,45
 413 863 413 863 403.5 843 c 128,-1,46
 394 823 394 823 394 799 c 2,47,-1
 394 97 l 2,48,49
 394 73 394 73 384.5 51.5 c 128,-1,50
 375 30 375 30 359 14.5 c 128,-1,51
 343 -1 343 -1 321.5 -10.5 c 128,-1,52
 300 -20 300 -20 276 -20 c 0,53,54
 251 -20 251 -20 229 -11 c 128,-1,55
 207 -2 207 -2 191 14 c 128,-1,56
 175 30 175 30 165.5 51.5 c 128,-1,57
 156 73 156 73 156 97 c 2,58,-1
 156 1420 l 2,0,1
EndSplineSet
EndChar

StartChar: i
Encoding: 105 105 13
Width: 678
Flags: W
LayerCount: 2
Fore
SplineSet
339 1270 m 256,0,1
 312 1270 312 1270 287.5 1280.5 c 128,-1,2
 263 1291 263 1291 244.5 1309.5 c 128,-1,3
 226 1328 226 1328 215 1352 c 128,-1,4
 204 1376 204 1376 204 1403 c 0,5,6
 204 1431 204 1431 215 1455.5 c 128,-1,7
 226 1480 226 1480 244.5 1498.5 c 128,-1,8
 263 1517 263 1517 287.5 1527.5 c 128,-1,9
 312 1538 312 1538 339 1538 c 256,10,11
 366 1538 366 1538 390.5 1527.5 c 128,-1,12
 415 1517 415 1517 433.5 1498.5 c 128,-1,13
 452 1480 452 1480 463 1455.5 c 128,-1,14
 474 1431 474 1431 474 1403 c 0,15,16
 474 1376 474 1376 463 1352 c 128,-1,17
 452 1328 452 1328 433.5 1309.5 c 128,-1,18
 415 1291 415 1291 390.5 1280.5 c 128,-1,19
 366 1270 366 1270 339 1270 c 256,0,1
219 966 m 2,20,21
 219 991 219 991 228.5 1013 c 128,-1,22
 238 1035 238 1035 254 1051.5 c 128,-1,23
 270 1068 270 1068 292 1077 c 128,-1,24
 314 1086 314 1086 339 1086 c 0,25,26
 363 1086 363 1086 384.5 1077 c 128,-1,27
 406 1068 406 1068 422 1051.5 c 128,-1,28
 438 1035 438 1035 447.5 1013 c 128,-1,29
 457 991 457 991 457 966 c 2,30,-1
 457 97 l 2,31,32
 457 73 457 73 447.5 51.5 c 128,-1,33
 438 30 438 30 422 14 c 128,-1,34
 406 -2 406 -2 384.5 -11 c 128,-1,35
 363 -20 363 -20 339 -20 c 0,36,37
 314 -20 314 -20 292 -10.5 c 128,-1,38
 270 -1 270 -1 254 14.5 c 128,-1,39
 238 30 238 30 228.5 51.5 c 128,-1,40
 219 73 219 73 219 97 c 2,41,-1
 219 966 l 2,20,21
EndSplineSet
EndChar

StartChar: j
Encoding: 106 106 14
Width: 676
Flags: W
LayerCount: 2
Fore
SplineSet
333 1267 m 0,0,1
 306 1267 306 1267 281.5 1277.5 c 128,-1,2
 257 1288 257 1288 238.5 1306.5 c 128,-1,3
 220 1325 220 1325 209.5 1349 c 128,-1,4
 199 1373 199 1373 199 1400 c 0,5,6
 199 1428 199 1428 209.5 1452.5 c 128,-1,7
 220 1477 220 1477 238.5 1495.5 c 128,-1,8
 257 1514 257 1514 281.5 1524.5 c 128,-1,9
 306 1535 306 1535 333 1535 c 0,10,11
 361 1535 361 1535 385.5 1524.5 c 128,-1,12
 410 1514 410 1514 428.5 1495.5 c 128,-1,13
 447 1477 447 1477 457.5 1452.5 c 128,-1,14
 468 1428 468 1428 468 1400 c 0,15,16
 468 1373 468 1373 457.5 1349 c 128,-1,17
 447 1325 447 1325 428.5 1306.5 c 128,-1,18
 410 1288 410 1288 385.5 1277.5 c 128,-1,19
 361 1267 361 1267 333 1267 c 0,0,1
215 966 m 2,20,21
 215 991 215 991 224 1013 c 128,-1,22
 233 1035 233 1035 249 1051.5 c 128,-1,23
 265 1068 265 1068 286.5 1077 c 128,-1,24
 308 1086 308 1086 333 1086 c 256,25,26
 358 1086 358 1086 379.5 1077 c 128,-1,27
 401 1068 401 1068 417 1051.5 c 128,-1,28
 433 1035 433 1035 442 1013 c 128,-1,29
 451 991 451 991 451 966 c 2,30,-1
 451 -178 l 2,31,32
 451 -239 451 -239 428 -293 c 128,-1,33
 405 -347 405 -347 364.5 -387 c 128,-1,34
 324 -427 324 -427 270 -450.5 c 128,-1,35
 216 -474 216 -474 155 -474 c 2,36,-1
 39 -474 l 2,37,38
 21 -474 21 -474 4.5 -467 c 128,-1,39
 -12 -460 -12 -460 -24 -448 c 128,-1,40
 -36 -436 -36 -436 -43.5 -419.5 c 128,-1,41
 -51 -403 -51 -403 -51 -384 c 256,42,43
 -51 -365 -51 -365 -43.5 -348.5 c 128,-1,44
 -36 -332 -36 -332 -24 -319.5 c 128,-1,45
 -12 -307 -12 -307 4.5 -300 c 128,-1,46
 21 -293 21 -293 39 -293 c 2,47,-1
 97 -293 l 2,48,49
 122 -293 122 -293 143.5 -284 c 128,-1,50
 165 -275 165 -275 181 -259 c 128,-1,51
 197 -243 197 -243 206 -221.5 c 128,-1,52
 215 -200 215 -200 215 -176 c 2,53,-1
 215 966 l 2,20,21
EndSplineSet
EndChar

StartChar: k
Encoding: 107 107 15
Width: 1023
Flags: W
LayerCount: 2
Fore
SplineSet
156 1418 m 2,0,1
 156 1443 156 1443 165.5 1465 c 128,-1,2
 175 1487 175 1487 191 1503.5 c 128,-1,3
 207 1520 207 1520 229 1529 c 128,-1,4
 251 1538 251 1538 276 1538 c 0,5,6
 300 1538 300 1538 321.5 1529 c 128,-1,7
 343 1520 343 1520 359 1503.5 c 128,-1,8
 375 1487 375 1487 384.5 1465 c 128,-1,9
 394 1443 394 1443 394 1418 c 2,10,-1
 394 633 l 1,11,-1
 466 633 l 1,12,-1
 654 1021 l 1,13,14
 668 1053 668 1053 698 1070 c 128,-1,15
 728 1087 728 1087 761 1087 c 0,16,17
 788 1087 788 1087 809.5 1077 c 128,-1,18
 831 1067 831 1067 846.5 1050.5 c 128,-1,19
 862 1034 862 1034 870.5 1012.5 c 128,-1,20
 879 991 879 991 879 968 c 1,21,22
 878 954 878 954 875.5 940 c 128,-1,23
 873 926 873 926 865 913 c 2,24,-1
 687 602 l 1,25,26
 774 567 774 567 819.5 499 c 128,-1,27
 865 431 865 431 865 337 c 2,28,-1
 865 97 l 2,29,30
 865 73 865 73 855.5 51.5 c 128,-1,31
 846 30 846 30 830 14.5 c 128,-1,32
 814 -1 814 -1 792.5 -10.5 c 128,-1,33
 771 -20 771 -20 747 -20 c 0,34,35
 722 -20 722 -20 700 -10.5 c 128,-1,36
 678 -1 678 -1 662 14.5 c 128,-1,37
 646 30 646 30 636.5 51.5 c 128,-1,38
 627 73 627 73 627 97 c 2,39,-1
 627 334 l 2,40,41
 627 359 627 359 618 380.5 c 128,-1,42
 609 402 609 402 593 418 c 128,-1,43
 577 434 577 434 556 443.5 c 128,-1,44
 535 453 535 453 510 453 c 2,45,-1
 394 453 l 1,46,-1
 394 97 l 2,47,48
 394 73 394 73 384.5 51.5 c 128,-1,49
 375 30 375 30 359 14 c 128,-1,50
 343 -2 343 -2 321.5 -11 c 128,-1,51
 300 -20 300 -20 276 -20 c 0,52,53
 251 -20 251 -20 229 -10.5 c 128,-1,54
 207 -1 207 -1 191 14.5 c 128,-1,55
 175 30 175 30 165.5 51.5 c 128,-1,56
 156 73 156 73 156 97 c 2,57,-1
 156 1418 l 2,0,1
EndSplineSet
EndChar

StartChar: l
Encoding: 108 108 16
Width: 678
Flags: W
LayerCount: 2
Fore
SplineSet
200 1420 m 2,0,1
 200 1471 200 1471 233.5 1504.5 c 128,-1,2
 267 1538 267 1538 318 1538 c 0,3,4
 343 1538 343 1538 365 1529 c 128,-1,5
 387 1520 387 1520 403 1504 c 128,-1,6
 419 1488 419 1488 428 1466.5 c 128,-1,7
 437 1445 437 1445 437 1420 c 2,8,-1
 437 298 l 2,9,10
 437 247 437 247 470.5 214 c 128,-1,11
 504 181 504 181 555 181 c 2,12,-1
 565 181 l 2,13,14
 584 181 584 181 600.5 173.5 c 128,-1,15
 617 166 617 166 629.5 153.5 c 128,-1,16
 642 141 642 141 649 124.5 c 128,-1,17
 656 108 656 108 656 90 c 0,18,19
 656 52 656 52 629.5 26 c 128,-1,20
 603 0 603 0 565 0 c 2,21,-1
 496 0 l 2,22,23
 435 0 435 0 381 23.5 c 128,-1,24
 327 47 327 47 287 87 c 128,-1,25
 247 127 247 127 223.5 181 c 128,-1,26
 200 235 200 235 200 296 c 2,27,-1
 200 1420 l 2,0,1
EndSplineSet
EndChar

StartChar: m
Encoding: 109 109 17
Width: 1497
Flags: W
LayerCount: 2
Fore
SplineSet
156 966 m 2,0,1
 156 991 156 991 165.5 1013 c 128,-1,2
 175 1035 175 1035 191 1051.5 c 128,-1,3
 207 1068 207 1068 228.5 1077 c 128,-1,4
 250 1086 250 1086 274 1086 c 0,5,6
 301 1086 301 1086 320 1078 c 128,-1,7
 339 1070 339 1070 352 1058.5 c 128,-1,8
 365 1047 365 1047 372 1035.5 c 128,-1,9
 379 1024 379 1024 382 1018 c 0,10,11
 386 1009 386 1009 391.5 1001 c 128,-1,12
 397 993 397 993 410 993 c 0,13,14
 422 993 422 993 430.5 1001 c 128,-1,15
 439 1009 439 1009 448 1018 c 0,16,17
 475 1044 475 1044 512 1065 c 128,-1,18
 549 1086 549 1086 606 1086 c 0,19,20
 666 1086 666 1086 717.5 1057 c 128,-1,21
 769 1028 769 1028 807 980 c 0,22,23
 813 972 813 972 817.5 970.5 c 128,-1,24
 822 969 822 969 830 969 c 0,25,26
 839 969 839 969 847.5 975.5 c 128,-1,27
 856 982 856 982 861 990 c 0,28,29
 891 1035 891 1035 939 1060.5 c 128,-1,30
 987 1086 987 1086 1054 1086 c 0,31,32
 1115 1086 1115 1086 1167.5 1062.5 c 128,-1,33
 1220 1039 1220 1039 1258.5 998.5 c 128,-1,34
 1297 958 1297 958 1319 904.5 c 128,-1,35
 1341 851 1341 851 1341 790 c 2,36,-1
 1341 97 l 2,37,38
 1341 73 1341 73 1332 51.5 c 128,-1,39
 1323 30 1323 30 1307 14.5 c 128,-1,40
 1291 -1 1291 -1 1269 -10.5 c 128,-1,41
 1247 -20 1247 -20 1222 -20 c 0,42,43
 1198 -20 1198 -20 1176.5 -11 c 128,-1,44
 1155 -2 1155 -2 1139.5 14 c 128,-1,45
 1124 30 1124 30 1114.5 51.5 c 128,-1,46
 1105 73 1105 73 1105 97 c 2,47,-1
 1105 787 l 2,48,49
 1105 812 1105 812 1096 833.5 c 128,-1,50
 1087 855 1087 855 1071 871 c 128,-1,51
 1055 887 1055 887 1033 896.5 c 128,-1,52
 1011 906 1011 906 986 906 c 0,53,54
 962 906 962 906 941 896.5 c 128,-1,55
 920 887 920 887 903.5 870.5 c 128,-1,56
 887 854 887 854 877.5 833 c 128,-1,57
 868 812 868 812 868 789 c 2,58,-1
 868 97 l 2,59,60
 868 73 868 73 859 51.5 c 128,-1,61
 850 30 850 30 834 14.5 c 128,-1,62
 818 -1 818 -1 796.5 -10.5 c 128,-1,63
 775 -20 775 -20 751 -20 c 0,64,65
 726 -20 726 -20 704 -11 c 128,-1,66
 682 -2 682 -2 666 14 c 128,-1,67
 650 30 650 30 640.5 51.5 c 128,-1,68
 631 73 631 73 631 97 c 2,69,-1
 631 787 l 2,70,71
 631 812 631 812 622 833.5 c 128,-1,72
 613 855 613 855 597 871 c 128,-1,73
 581 887 581 887 559.5 896.5 c 128,-1,74
 538 906 538 906 514 906 c 256,75,76
 490 906 490 906 468 898.5 c 128,-1,77
 446 891 446 891 429.5 877.5 c 128,-1,78
 413 864 413 864 403 844 c 128,-1,79
 393 824 393 824 393 799 c 2,80,-1
 393 97 l 2,81,82
 393 73 393 73 383.5 51.5 c 128,-1,83
 374 30 374 30 358 14.5 c 128,-1,84
 342 -1 342 -1 320.5 -10.5 c 128,-1,85
 299 -20 299 -20 274 -20 c 0,86,87
 250 -20 250 -20 228.5 -11 c 128,-1,88
 207 -2 207 -2 191 14 c 128,-1,89
 175 30 175 30 165.5 51.5 c 128,-1,90
 156 73 156 73 156 97 c 2,91,-1
 156 966 l 2,0,1
EndSplineSet
EndChar

StartChar: n
Encoding: 110 110 18
Width: 1023
Flags: W
LayerCount: 2
Fore
SplineSet
156 966 m 2,0,1
 156 991 156 991 165.5 1013 c 128,-1,2
 175 1035 175 1035 191 1051.5 c 128,-1,3
 207 1068 207 1068 228.5 1077 c 128,-1,4
 250 1086 250 1086 274 1086 c 0,5,6
 300 1086 300 1086 319 1077.5 c 128,-1,7
 338 1069 338 1069 351 1058 c 128,-1,8
 364 1047 364 1047 371.5 1035.5 c 128,-1,9
 379 1024 379 1024 382 1018 c 0,10,11
 386 1009 386 1009 391 1001 c 128,-1,12
 396 993 396 993 410 993 c 0,13,14
 421 993 421 993 430 1001 c 128,-1,15
 439 1009 439 1009 448 1018 c 0,16,17
 475 1044 475 1044 511 1065 c 128,-1,18
 547 1086 547 1086 605 1086 c 0,19,20
 659 1086 659 1086 707 1062.5 c 128,-1,21
 755 1039 755 1039 790.5 998.5 c 128,-1,22
 826 958 826 958 846.5 904.5 c 128,-1,23
 867 851 867 851 867 790 c 2,24,-1
 867 97 l 2,25,26
 867 73 867 73 858 51.5 c 128,-1,27
 849 30 849 30 833 14.5 c 128,-1,28
 817 -1 817 -1 795.5 -10.5 c 128,-1,29
 774 -20 774 -20 750 -20 c 0,30,31
 725 -20 725 -20 703 -11 c 128,-1,32
 681 -2 681 -2 665 14 c 128,-1,33
 649 30 649 30 639.5 51.5 c 128,-1,34
 630 73 630 73 630 97 c 2,35,-1
 630 787 l 2,36,37
 630 812 630 812 621 833.5 c 128,-1,38
 612 855 612 855 596.5 871 c 128,-1,39
 581 887 581 887 559.5 896.5 c 128,-1,40
 538 906 538 906 514 906 c 256,41,42
 490 906 490 906 468 898.5 c 128,-1,43
 446 891 446 891 429.5 877.5 c 128,-1,44
 413 864 413 864 403 844 c 128,-1,45
 393 824 393 824 393 799 c 2,46,-1
 393 97 l 2,47,48
 393 73 393 73 383.5 51.5 c 128,-1,49
 374 30 374 30 358 14.5 c 128,-1,50
 342 -1 342 -1 320.5 -10.5 c 128,-1,51
 299 -20 299 -20 274 -20 c 0,52,53
 250 -20 250 -20 228.5 -11 c 128,-1,54
 207 -2 207 -2 191 14 c 128,-1,55
 175 30 175 30 165.5 51.5 c 128,-1,56
 156 73 156 73 156 97 c 2,57,-1
 156 966 l 2,0,1
EndSplineSet
EndChar

StartChar: o
Encoding: 111 111 19
Width: 1023
Flags: W
LayerCount: 2
Fore
SplineSet
156 792 m 2,0,1
 156 859 156 859 179.5 913 c 128,-1,2
 203 967 203 967 248.5 1005.5 c 128,-1,3
 294 1044 294 1044 360 1065 c 128,-1,4
 426 1086 426 1086 512 1086 c 0,5,6
 596 1086 596 1086 662 1065 c 128,-1,7
 728 1044 728 1044 773.5 1005.5 c 128,-1,8
 819 967 819 967 843 912 c 128,-1,9
 867 857 867 857 867 790 c 2,10,-1
 867 273 l 2,11,12
 867 205 867 205 843.5 151 c 128,-1,13
 820 97 820 97 774.5 59 c 128,-1,14
 729 21 729 21 663 0.5 c 128,-1,15
 597 -20 597 -20 512 -20 c 0,16,17
 428 -20 428 -20 362 0.5 c 128,-1,18
 296 21 296 21 250 59.5 c 128,-1,19
 204 98 204 98 180 152.5 c 128,-1,20
 156 207 156 207 156 276 c 2,21,-1
 156 792 l 2,0,1
393 267 m 2,22,23
 393 216 393 216 427 188.5 c 128,-1,24
 461 161 461 161 512 161 c 256,25,26
 563 161 563 161 596.5 188.5 c 128,-1,27
 630 216 630 216 630 267 c 2,28,-1
 630 787 l 2,29,30
 630 812 630 812 621 833.5 c 128,-1,31
 612 855 612 855 596 871 c 128,-1,32
 580 887 580 887 558.5 896.5 c 128,-1,33
 537 906 537 906 512 906 c 0,34,35
 486 906 486 906 464.5 896.5 c 128,-1,36
 443 887 443 887 427 871 c 128,-1,37
 411 855 411 855 402 833.5 c 128,-1,38
 393 812 393 812 393 787 c 2,39,-1
 393 267 l 2,22,23
EndSplineSet
EndChar

StartChar: p
Encoding: 112 112 20
Width: 1023
Flags: W
LayerCount: 2
Fore
SplineSet
156 966 m 2,0,1
 156 991 156 991 165 1013 c 128,-1,2
 174 1035 174 1035 190 1051.5 c 128,-1,3
 206 1068 206 1068 227.5 1077 c 128,-1,4
 249 1086 249 1086 274 1086 c 0,5,6
 301 1086 301 1086 320 1077.5 c 128,-1,7
 339 1069 339 1069 352 1058 c 128,-1,8
 365 1047 365 1047 371.5 1035.5 c 128,-1,9
 378 1024 378 1024 381 1018 c 0,10,11
 385 1009 385 1009 390.5 1001 c 128,-1,12
 396 993 396 993 409 993 c 0,13,14
 420 993 420 993 429 1001 c 128,-1,15
 438 1009 438 1009 447 1018 c 0,16,17
 460 1031 460 1031 475.5 1043.5 c 128,-1,18
 491 1056 491 1056 509.5 1065.5 c 128,-1,19
 528 1075 528 1075 551.5 1080.5 c 128,-1,20
 575 1086 575 1086 604 1086 c 0,21,22
 658 1086 658 1086 705.5 1062.5 c 128,-1,23
 753 1039 753 1039 789 998.5 c 128,-1,24
 825 958 825 958 846 904.5 c 128,-1,25
 867 851 867 851 867 790 c 2,26,-1
 867 296 l 2,27,28
 867 235 867 235 843.5 181 c 128,-1,29
 820 127 820 127 779.5 87 c 128,-1,30
 739 47 739 47 685 23.5 c 128,-1,31
 631 0 631 0 570 0 c 2,32,-1
 393 0 l 1,33,-1
 393 -356 l 2,34,35
 393 -381 393 -381 384 -402.5 c 128,-1,36
 375 -424 375 -424 359 -440 c 128,-1,37
 343 -456 343 -456 321 -465 c 128,-1,38
 299 -474 299 -474 274 -474 c 0,39,40
 223 -474 223 -474 189.5 -440.5 c 128,-1,41
 156 -407 156 -407 156 -356 c 2,42,-1
 156 966 l 2,0,1
511 181 m 2,43,44
 562 181 562 181 595.5 214 c 128,-1,45
 629 247 629 247 629 298 c 2,46,-1
 629 799 l 2,47,48
 629 848 629 848 595.5 877 c 128,-1,49
 562 906 562 906 511 906 c 0,50,51
 487 906 487 906 465.5 898.5 c 128,-1,52
 444 891 444 891 428 877.5 c 128,-1,53
 412 864 412 864 402.5 845 c 128,-1,54
 393 826 393 826 393 804 c 2,55,-1
 393 181 l 1,56,-1
 511 181 l 2,43,44
EndSplineSet
EndChar

StartChar: q
Encoding: 113 113 21
Width: 1023
Flags: W
LayerCount: 2
Fore
SplineSet
156 770 m 2,0,1
 156 831 156 831 179.5 885 c 128,-1,2
 203 939 203 939 243 979 c 128,-1,3
 283 1019 283 1019 337 1042.5 c 128,-1,4
 391 1066 391 1066 452 1066 c 2,5,-1
 747 1066 l 2,6,7
 772 1066 772 1066 794 1057 c 128,-1,8
 816 1048 816 1048 832 1031.5 c 128,-1,9
 848 1015 848 1015 857.5 993 c 128,-1,10
 867 971 867 971 867 946 c 2,11,-1
 867 -356 l 2,12,13
 867 -381 867 -381 857.5 -402.5 c 128,-1,14
 848 -424 848 -424 832 -440 c 128,-1,15
 816 -456 816 -456 794 -465 c 128,-1,16
 772 -474 772 -474 747 -474 c 0,17,18
 723 -474 723 -474 701.5 -465 c 128,-1,19
 680 -456 680 -456 664 -440 c 128,-1,20
 648 -424 648 -424 638.5 -402.5 c 128,-1,21
 629 -381 629 -381 629 -356 c 2,22,-1
 629 41 l 2,23,24
 629 60 629 60 618.5 66.5 c 128,-1,25
 608 73 608 73 599 73 c 0,26,27
 588 73 588 73 579.5 64.5 c 128,-1,28
 571 56 571 56 563 48 c 0,29,30
 536 21 536 21 499.5 0.5 c 128,-1,31
 463 -20 463 -20 407 -20 c 0,32,33
 353 -20 353 -20 307 3.5 c 128,-1,34
 261 27 261 27 227.5 67.5 c 128,-1,35
 194 108 194 108 175 161.5 c 128,-1,36
 156 215 156 215 156 276 c 2,37,-1
 156 770 l 2,0,1
393 279 m 2,38,39
 393 254 393 254 402 232.5 c 128,-1,40
 411 211 411 211 427 195 c 128,-1,41
 443 179 443 179 464.5 169.5 c 128,-1,42
 486 160 486 160 511 160 c 0,43,44
 535 160 535 160 556 167.5 c 128,-1,45
 577 175 577 175 593.5 189 c 128,-1,46
 610 203 610 203 619.5 223 c 128,-1,47
 629 243 629 243 629 267 c 2,48,-1
 629 886 l 1,49,-1
 511 886 l 2,50,51
 486 886 486 886 464.5 876.5 c 128,-1,52
 443 867 443 867 427 851 c 128,-1,53
 411 835 411 835 402 813.5 c 128,-1,54
 393 792 393 792 393 767 c 2,55,-1
 393 279 l 2,38,39
EndSplineSet
EndChar

StartChar: r
Encoding: 114 114 22
Width: 847
Flags: W
LayerCount: 2
Fore
SplineSet
166 966 m 2,0,1
 166 991 166 991 175.5 1013 c 128,-1,2
 185 1035 185 1035 201 1051.5 c 128,-1,3
 217 1068 217 1068 238.5 1077 c 128,-1,4
 260 1086 260 1086 284 1086 c 0,5,6
 310 1086 310 1086 329 1077.5 c 128,-1,7
 348 1069 348 1069 361 1058 c 128,-1,8
 374 1047 374 1047 381.5 1035.5 c 128,-1,9
 389 1024 389 1024 392 1018 c 0,10,11
 396 1009 396 1009 401 1001 c 128,-1,12
 406 993 406 993 420 993 c 0,13,14
 433 993 433 993 440.5 1001 c 128,-1,15
 448 1009 448 1009 458 1018 c 0,16,17
 487 1044 487 1044 526 1065 c 128,-1,18
 565 1086 565 1086 624 1086 c 0,19,20
 645 1086 645 1086 669 1079 c 128,-1,21
 693 1072 693 1072 713.5 1057 c 128,-1,22
 734 1042 734 1042 748 1018 c 128,-1,23
 762 994 762 994 762 960 c 0,24,25
 762 935 762 935 752.5 913.5 c 128,-1,26
 743 892 743 892 726.5 876 c 128,-1,27
 710 860 710 860 688 851 c 128,-1,28
 666 842 666 842 642 842 c 0,29,30
 612 842 612 842 594 852.5 c 128,-1,31
 576 863 576 863 561 874 c 256,32,33
 546 885 546 885 527 890 c 128,-1,34
 508 895 508 895 488 895 c 0,35,36
 449 895 449 895 426 869.5 c 128,-1,37
 403 844 403 844 403 805 c 2,38,-1
 403 98 l 2,39,40
 403 74 403 74 393.5 52.5 c 128,-1,41
 384 31 384 31 368 15 c 128,-1,42
 352 -1 352 -1 330.5 -10.5 c 128,-1,43
 309 -20 309 -20 284 -20 c 0,44,45
 260 -20 260 -20 238.5 -10.5 c 128,-1,46
 217 -1 217 -1 201 15 c 128,-1,47
 185 31 185 31 175.5 52.5 c 128,-1,48
 166 74 166 74 166 98 c 2,49,-1
 166 966 l 2,0,1
EndSplineSet
EndChar

StartChar: s
Encoding: 115 115 23
Width: 1023
Flags: W
LayerCount: 2
Fore
SplineSet
196 90 m 0,0,1
 196 108 196 108 203.5 124.5 c 128,-1,2
 211 141 211 141 223.5 153.5 c 128,-1,3
 236 166 236 166 252.5 173.5 c 128,-1,4
 269 181 269 181 287 181 c 2,5,-1
 508 181 l 2,6,7
 569 181 569 181 606 215.5 c 128,-1,8
 643 250 643 250 643 305 c 0,9,10
 643 353 643 353 615.5 384 c 128,-1,11
 588 415 588 415 546 428 c 1,12,-1
 366 478 l 1,13,14
 320 492 320 492 282.5 518.5 c 128,-1,15
 245 545 245 545 218 581.5 c 128,-1,16
 191 618 191 618 176.5 664 c 128,-1,17
 162 710 162 710 162 762 c 0,18,19
 162 831 162 831 187.5 887 c 128,-1,20
 213 943 213 943 256 983 c 128,-1,21
 299 1023 299 1023 356 1044.5 c 128,-1,22
 413 1066 413 1066 476 1066 c 2,23,-1
 720 1066 l 2,24,25
 758 1066 758 1066 783 1039.5 c 128,-1,26
 808 1013 808 1013 808 975 c 256,27,28
 808 937 808 937 783 911.5 c 128,-1,29
 758 886 758 886 720 886 c 2,30,-1
 495 886 l 2,31,32
 444 886 444 886 415.5 856 c 128,-1,33
 387 826 387 826 387 784 c 0,34,35
 387 744 387 744 409 722.5 c 128,-1,36
 431 701 431 701 458 689 c 1,37,-1
 654 632 l 1,38,39
 702 616 702 616 743.5 588 c 128,-1,40
 785 560 785 560 815.5 521 c 128,-1,41
 846 482 846 482 863.5 432 c 128,-1,42
 881 382 881 382 881 322 c 0,43,44
 881 252 881 252 854.5 193 c 128,-1,45
 828 134 828 134 784 91 c 128,-1,46
 740 48 740 48 683 24 c 128,-1,47
 626 0 626 0 565 0 c 2,48,-1
 287 0 l 2,49,50
 269 0 269 0 252.5 7 c 128,-1,51
 236 14 236 14 223.5 26 c 128,-1,52
 211 38 211 38 203.5 54.5 c 128,-1,53
 196 71 196 71 196 90 c 0,0,1
EndSplineSet
EndChar

StartChar: u
Encoding: 117 117 24
Width: 1023
Flags: W
LayerCount: 2
Fore
SplineSet
156 969 m 2,0,1
 156 993 156 993 165 1014.5 c 128,-1,2
 174 1036 174 1036 190 1051.5 c 128,-1,3
 206 1067 206 1067 227.5 1076.5 c 128,-1,4
 249 1086 249 1086 273 1086 c 0,5,6
 298 1086 298 1086 320 1077 c 128,-1,7
 342 1068 342 1068 358 1052 c 128,-1,8
 374 1036 374 1036 383.5 1014.5 c 128,-1,9
 393 993 393 993 393 969 c 2,10,-1
 393 279 l 2,11,12
 393 254 393 254 402 232.5 c 128,-1,13
 411 211 411 211 427 195 c 128,-1,14
 443 179 443 179 464.5 169.5 c 128,-1,15
 486 160 486 160 510 160 c 256,16,17
 534 160 534 160 555.5 167.5 c 128,-1,18
 577 175 577 175 593.5 188.5 c 128,-1,19
 610 202 610 202 620 222 c 128,-1,20
 630 242 630 242 630 267 c 2,21,-1
 630 969 l 2,22,23
 630 993 630 993 639.5 1014.5 c 128,-1,24
 649 1036 649 1036 665 1051.5 c 128,-1,25
 681 1067 681 1067 702.5 1076.5 c 128,-1,26
 724 1086 724 1086 749 1086 c 0,27,28
 773 1086 773 1086 794.5 1077 c 128,-1,29
 816 1068 816 1068 832 1052 c 128,-1,30
 848 1036 848 1036 857.5 1014.5 c 128,-1,31
 867 993 867 993 867 969 c 2,32,-1
 867 100 l 2,33,34
 867 74 867 74 857.5 52.5 c 128,-1,35
 848 31 848 31 832 14.5 c 128,-1,36
 816 -2 816 -2 794.5 -11 c 128,-1,37
 773 -20 773 -20 749 -20 c 0,38,39
 723 -20 723 -20 703.5 -11.5 c 128,-1,40
 684 -3 684 -3 671 8 c 128,-1,41
 658 19 658 19 651 30.5 c 128,-1,42
 644 42 644 42 641 48 c 0,43,44
 637 56 637 56 632 64.5 c 128,-1,45
 627 73 627 73 613 73 c 0,46,47
 602 73 602 73 593 64.5 c 128,-1,48
 584 56 584 56 575 48 c 0,49,50
 548 21 548 21 512 0.5 c 128,-1,51
 476 -20 476 -20 418 -20 c 0,52,53
 364 -20 364 -20 316 3.5 c 128,-1,54
 268 27 268 27 232.5 67.5 c 128,-1,55
 197 108 197 108 176.5 161.5 c 128,-1,56
 156 215 156 215 156 276 c 2,57,-1
 156 969 l 2,0,1
EndSplineSet
EndChar

StartChar: v
Encoding: 118 118 25
Width: 1023
Flags: W
LayerCount: 2
Fore
SplineSet
104 945 m 2,0,1
 99 962 99 962 99 975 c 0,2,3
 99 997 99 997 107.5 1017 c 128,-1,4
 116 1037 116 1037 130.5 1052.5 c 128,-1,5
 145 1068 145 1068 164.5 1077 c 128,-1,6
 184 1086 184 1086 207 1086 c 0,7,8
 226 1086 226 1086 245 1080 c 128,-1,9
 264 1074 264 1074 280 1063.5 c 128,-1,10
 296 1053 296 1053 308 1037 c 128,-1,11
 320 1021 320 1021 324 1002 c 1,12,-1
 384 778 l 1,13,14
 393 740 393 740 408.5 688 c 128,-1,15
 424 636 424 636 442 571.5 c 128,-1,16
 460 507 460 507 479 431.5 c 128,-1,17
 498 356 498 356 515 271 c 1,18,19
 532 356 532 356 549.5 431.5 c 128,-1,20
 567 507 567 507 583 571.5 c 128,-1,21
 599 636 599 636 612.5 688 c 128,-1,22
 626 740 626 740 637 778 c 2,23,-1
 699 1002 l 1,24,25
 703 1021 703 1021 714.5 1037 c 128,-1,26
 726 1053 726 1053 742 1063.5 c 128,-1,27
 758 1074 758 1074 777 1080 c 128,-1,28
 796 1086 796 1086 815 1086 c 0,29,30
 839 1086 839 1086 859 1076.5 c 128,-1,31
 879 1067 879 1067 893 1051 c 128,-1,32
 907 1035 907 1035 915 1015 c 128,-1,33
 923 995 923 995 923 974 c 0,34,35
 923 957 923 957 919 945 c 2,36,-1
 637 78 l 1,37,38
 625 36 625 36 593 8 c 128,-1,39
 561 -20 561 -20 513 -20 c 0,40,41
 466 -20 466 -20 432.5 10 c 128,-1,42
 399 40 399 40 387 81 c 1,43,-1
 104 945 l 2,0,1
EndSplineSet
EndChar

StartChar: w
Encoding: 119 119 26
Width: 1497
Flags: W
LayerCount: 2
Fore
SplineSet
156 966 m 2,0,1
 156 991 156 991 165.5 1013 c 128,-1,2
 175 1035 175 1035 191 1051.5 c 128,-1,3
 207 1068 207 1068 229 1077 c 128,-1,4
 251 1086 251 1086 276 1086 c 0,5,6
 300 1086 300 1086 321.5 1077 c 128,-1,7
 343 1068 343 1068 359 1051.5 c 128,-1,8
 375 1035 375 1035 384 1013 c 128,-1,9
 393 991 393 991 393 966 c 2,10,-1
 393 267 l 2,11,12
 393 216 393 216 427 188.5 c 128,-1,13
 461 161 461 161 512 161 c 0,14,15
 560 161 560 161 595 187.5 c 128,-1,16
 630 214 630 214 630 267 c 2,17,-1
 630 965 l 2,18,19
 630 990 630 990 639.5 1012 c 128,-1,20
 649 1034 649 1034 665 1050.5 c 128,-1,21
 681 1067 681 1067 703 1076 c 128,-1,22
 725 1085 725 1085 750 1085 c 0,23,24
 774 1085 774 1085 795.5 1076 c 128,-1,25
 817 1067 817 1067 833 1050.5 c 128,-1,26
 849 1034 849 1034 858 1012 c 128,-1,27
 867 990 867 990 867 965 c 2,28,-1
 867 267 l 2,29,30
 867 214 867 214 901.5 187.5 c 128,-1,31
 936 161 936 161 986 161 c 0,32,33
 1037 161 1037 161 1070.5 188.5 c 128,-1,34
 1104 216 1104 216 1104 267 c 2,35,-1
 1104 966 l 2,36,37
 1104 991 1104 991 1113.5 1013 c 128,-1,38
 1123 1035 1123 1035 1139 1051.5 c 128,-1,39
 1155 1068 1155 1068 1177 1077 c 128,-1,40
 1199 1086 1199 1086 1224 1086 c 0,41,42
 1248 1086 1248 1086 1269.5 1077 c 128,-1,43
 1291 1068 1291 1068 1307 1051.5 c 128,-1,44
 1323 1035 1323 1035 1332 1013 c 128,-1,45
 1341 991 1341 991 1341 966 c 2,46,-1
 1341 273 l 2,47,48
 1341 205 1341 205 1316.5 151 c 128,-1,49
 1292 97 1292 97 1248.5 59 c 128,-1,50
 1205 21 1205 21 1145.5 0.5 c 128,-1,51
 1086 -20 1086 -20 1016 -20 c 0,52,53
 929 -20 929 -20 871.5 4.5 c 128,-1,54
 814 29 814 29 772 80 c 1,55,56
 766 85 766 85 761 88.5 c 128,-1,57
 756 92 756 92 750 92 c 0,58,59
 736 92 736 92 726 80 c 0,60,61
 684 30 684 30 626.5 5 c 128,-1,62
 569 -20 569 -20 482 -20 c 0,63,64
 413 -20 413 -20 353.5 0.5 c 128,-1,65
 294 21 294 21 250 59.5 c 128,-1,66
 206 98 206 98 181 152.5 c 128,-1,67
 156 207 156 207 156 276 c 2,68,-1
 156 966 l 2,0,1
EndSplineSet
EndChar

StartChar: x
Encoding: 120 120 27
Width: 1023
Flags: W
LayerCount: 2
Fore
SplineSet
157 342 m 2,0,1
 157 427 157 427 195 480 c 128,-1,2
 233 533 233 533 305 562 c 1,3,4
 272 580 272 580 244.5 602 c 128,-1,5
 217 624 217 624 197.5 654 c 128,-1,6
 178 684 178 684 167.5 723 c 128,-1,7
 157 762 157 762 157 814 c 2,8,-1
 157 966 l 2,9,10
 157 991 157 991 166 1013 c 128,-1,11
 175 1035 175 1035 190.5 1051 c 128,-1,12
 206 1067 206 1067 227.5 1076.5 c 128,-1,13
 249 1086 249 1086 274 1086 c 256,14,15
 299 1086 299 1086 321 1076.5 c 128,-1,16
 343 1067 343 1067 359 1051 c 128,-1,17
 375 1035 375 1035 384 1013 c 128,-1,18
 393 991 393 991 393 966 c 2,19,-1
 393 770 l 2,20,21
 393 745 393 745 402 723.5 c 128,-1,22
 411 702 411 702 426.5 686 c 128,-1,23
 442 670 442 670 464.5 661 c 128,-1,24
 487 652 487 652 514 652 c 0,25,26
 538 652 538 652 559 661 c 128,-1,27
 580 670 580 670 595.5 686 c 128,-1,28
 611 702 611 702 620.5 723.5 c 128,-1,29
 630 745 630 745 630 770 c 2,30,-1
 630 966 l 2,31,32
 630 991 630 991 639 1013 c 128,-1,33
 648 1035 648 1035 664 1051 c 128,-1,34
 680 1067 680 1067 701.5 1076.5 c 128,-1,35
 723 1086 723 1086 749 1086 c 0,36,37
 774 1086 774 1086 795 1076.5 c 128,-1,38
 816 1067 816 1067 832 1051 c 128,-1,39
 848 1035 848 1035 857 1013 c 128,-1,40
 866 991 866 991 866 966 c 2,41,-1
 866 814 l 2,42,43
 866 762 866 762 855 723 c 128,-1,44
 844 684 844 684 824.5 654 c 128,-1,45
 805 624 805 624 778 602 c 128,-1,46
 751 580 751 580 718 562 c 1,47,48
 790 533 790 533 828 480 c 128,-1,49
 866 427 866 427 866 342 c 2,50,-1
 866 97 l 2,51,52
 866 73 866 73 857 51.5 c 128,-1,53
 848 30 848 30 832 14 c 128,-1,54
 816 -2 816 -2 795 -11 c 128,-1,55
 774 -20 774 -20 749 -20 c 0,56,57
 723 -20 723 -20 701.5 -11 c 128,-1,58
 680 -2 680 -2 664 14 c 128,-1,59
 648 30 648 30 639 51.5 c 128,-1,60
 630 73 630 73 630 97 c 2,61,-1
 630 353 l 2,62,63
 630 378 630 378 621 399.5 c 128,-1,64
 612 421 612 421 596.5 437 c 128,-1,65
 581 453 581 453 560 462.5 c 128,-1,66
 539 472 539 472 514 472 c 0,67,68
 488 472 488 472 466 463 c 128,-1,69
 444 454 444 454 427.5 438 c 128,-1,70
 411 422 411 422 402 400 c 128,-1,71
 393 378 393 378 393 353 c 2,72,-1
 393 97 l 2,73,74
 393 73 393 73 384 51.5 c 128,-1,75
 375 30 375 30 359 14 c 128,-1,76
 343 -2 343 -2 321 -11 c 128,-1,77
 299 -20 299 -20 274 -20 c 256,78,79
 249 -20 249 -20 227.5 -11 c 128,-1,80
 206 -2 206 -2 190.5 14 c 128,-1,81
 175 30 175 30 166 51.5 c 128,-1,82
 157 73 157 73 157 97 c 2,83,-1
 157 342 l 2,0,1
EndSplineSet
EndChar

StartChar: y
Encoding: 121 121 28
Width: 1023
Flags: W
LayerCount: 2
Fore
SplineSet
156 969 m 2,0,1
 156 993 156 993 165 1014.5 c 128,-1,2
 174 1036 174 1036 190 1051.5 c 128,-1,3
 206 1067 206 1067 227.5 1076.5 c 128,-1,4
 249 1086 249 1086 274 1086 c 0,5,6
 298 1086 298 1086 320 1077 c 128,-1,7
 342 1068 342 1068 358 1052 c 128,-1,8
 374 1036 374 1036 383.5 1014.5 c 128,-1,9
 393 993 393 993 393 969 c 2,10,-1
 393 279 l 2,11,12
 393 254 393 254 402 232.5 c 128,-1,13
 411 211 411 211 426.5 195 c 128,-1,14
 442 179 442 179 463.5 169.5 c 128,-1,15
 485 160 485 160 510 160 c 0,16,17
 534 160 534 160 555.5 167.5 c 128,-1,18
 577 175 577 175 593.5 189 c 128,-1,19
 610 203 610 203 619.5 223 c 128,-1,20
 629 243 629 243 629 267 c 2,21,-1
 629 969 l 2,22,23
 629 993 629 993 638.5 1014.5 c 128,-1,24
 648 1036 648 1036 664 1051.5 c 128,-1,25
 680 1067 680 1067 701.5 1076.5 c 128,-1,26
 723 1086 723 1086 747 1086 c 0,27,28
 772 1086 772 1086 794 1077 c 128,-1,29
 816 1068 816 1068 832 1052 c 128,-1,30
 848 1036 848 1036 857.5 1014.5 c 128,-1,31
 867 993 867 993 867 969 c 2,32,-1
 867 -178 l 2,33,34
 867 -239 867 -239 843.5 -293 c 128,-1,35
 820 -347 820 -347 779.5 -387 c 128,-1,36
 739 -427 739 -427 684.5 -450.5 c 128,-1,37
 630 -474 630 -474 569 -474 c 2,38,-1
 392 -474 l 2,39,40
 354 -474 354 -474 327.5 -448 c 128,-1,41
 301 -422 301 -422 301 -384 c 256,42,43
 301 -346 301 -346 327.5 -319.5 c 128,-1,44
 354 -293 354 -293 392 -293 c 2,45,-1
 510 -293 l 2,46,47
 535 -293 535 -293 557 -284 c 128,-1,48
 579 -275 579 -275 595 -259 c 128,-1,49
 611 -243 611 -243 620 -221.5 c 128,-1,50
 629 -200 629 -200 629 -176 c 2,51,-1
 629 41 l 2,52,53
 629 60 629 60 618.5 66.5 c 128,-1,54
 608 73 608 73 599 73 c 0,55,56
 588 73 588 73 579.5 64.5 c 128,-1,57
 571 56 571 56 563 48 c 0,58,59
 536 21 536 21 499 0.5 c 128,-1,60
 462 -20 462 -20 406 -20 c 0,61,62
 352 -20 352 -20 306 3.5 c 128,-1,63
 260 27 260 27 227 67.5 c 128,-1,64
 194 108 194 108 175 161.5 c 128,-1,65
 156 215 156 215 156 276 c 2,66,-1
 156 969 l 2,0,1
EndSplineSet
EndChar

StartChar: z
Encoding: 122 122 29
Width: 854
Flags: W
LayerCount: 2
Fore
SplineSet
68 115 m 0,0,1
 68 130 68 130 72 145.5 c 128,-1,2
 76 161 76 161 85 176 c 2,3,-1
 490 886 l 1,4,-1
 171 886 l 2,5,6
 152 886 152 886 135.5 893 c 128,-1,7
 119 900 119 900 106.5 912 c 128,-1,8
 94 924 94 924 87 940 c 128,-1,9
 80 956 80 956 80 975 c 0,10,11
 80 1013 80 1013 106.5 1039.5 c 128,-1,12
 133 1066 133 1066 171 1066 c 2,13,-1
 637 1066 l 2,14,15
 664 1066 664 1066 687 1056 c 128,-1,16
 710 1046 710 1046 726.5 1029.5 c 128,-1,17
 743 1013 743 1013 752 991.5 c 128,-1,18
 761 970 761 970 761 948 c 0,19,20
 761 919 761 919 744 890 c 2,21,-1
 339 181 l 1,22,-1
 670 181 l 2,23,24
 688 181 688 181 704.5 173.5 c 128,-1,25
 721 166 721 166 733.5 153.5 c 128,-1,26
 746 141 746 141 753.5 124.5 c 128,-1,27
 761 108 761 108 761 90 c 0,28,29
 761 71 761 71 753.5 54.5 c 128,-1,30
 746 38 746 38 733.5 26 c 128,-1,31
 721 14 721 14 704.5 7 c 128,-1,32
 688 0 688 0 670 0 c 2,33,-1
 189 0 l 2,34,35
 161 0 161 0 138.5 10 c 128,-1,36
 116 20 116 20 100.5 36.5 c 128,-1,37
 85 53 85 53 76.5 73.5 c 128,-1,38
 68 94 68 94 68 115 c 0,0,1
EndSplineSet
EndChar

StartChar: A
Encoding: 65 65 30
Width: 1200
Flags: W
LayerCount: 2
Fore
SplineSet
333 433 m 1,0,-1
 261 433 l 2,1,2
 243 433 243 433 227 440.5 c 128,-1,3
 211 448 211 448 199 460 c 128,-1,4
 187 472 187 472 180 488.5 c 128,-1,5
 173 505 173 505 173 523 c 0,6,7
 173 542 173 542 180 558.5 c 128,-1,8
 187 575 187 575 199 587.5 c 128,-1,9
 211 600 211 600 227 607 c 128,-1,10
 243 614 243 614 261 614 c 2,11,-1
 333 614 l 1,12,-1
 333 955 l 2,13,14
 333 1013 333 1013 354 1049 c 128,-1,15
 375 1085 375 1085 401 1112 c 0,16,17
 410 1122 410 1122 418.5 1130 c 128,-1,18
 427 1138 427 1138 427 1148 c 0,19,20
 427 1156 427 1156 421 1167 c 128,-1,21
 415 1178 415 1178 398 1178 c 2,22,-1
 282 1178 l 2,23,24
 259 1178 259 1178 239.5 1168.5 c 128,-1,25
 220 1159 220 1159 205.5 1142.5 c 128,-1,26
 191 1126 191 1126 182.5 1104.5 c 128,-1,27
 174 1083 174 1083 174 1060 c 2,28,-1
 174 1003 l 2,29,30
 174 978 174 978 165 956.5 c 128,-1,31
 156 935 156 935 139.5 919.5 c 128,-1,32
 123 904 123 904 101 895 c 128,-1,33
 79 886 79 886 54 886 c 0,34,35
 30 886 30 886 8.5 895 c 128,-1,36
 -13 904 -13 904 -28.5 919.5 c 128,-1,37
 -44 935 -44 935 -53.5 956.5 c 128,-1,38
 -63 978 -63 978 -63 1003 c 2,39,-1
 -63 1063 l 2,40,41
 -63 1124 -63 1124 -39.5 1178 c 128,-1,42
 -16 1232 -16 1232 24 1272 c 128,-1,43
 64 1312 64 1312 118 1335.5 c 128,-1,44
 172 1359 172 1359 233 1359 c 2,45,-1
 689 1359 l 2,46,47
 773 1359 773 1359 839 1338 c 128,-1,48
 905 1317 905 1317 950.5 1278.5 c 128,-1,49
 996 1240 996 1240 1020 1185 c 128,-1,50
 1044 1130 1044 1130 1044 1063 c 2,51,-1
 1044 98 l 2,52,53
 1044 74 1044 74 1035 52.5 c 128,-1,54
 1026 31 1026 31 1010 15.5 c 128,-1,55
 994 0 994 0 972.5 -9.5 c 128,-1,56
 951 -19 951 -19 926 -19 c 0,57,58
 902 -19 902 -19 880 -9.5 c 128,-1,59
 858 0 858 0 842 15.5 c 128,-1,60
 826 31 826 31 816.5 52.5 c 128,-1,61
 807 74 807 74 807 98 c 2,62,-1
 807 433 l 1,63,-1
 570 433 l 1,64,-1
 570 98 l 2,65,66
 570 74 570 74 560.5 52.5 c 128,-1,67
 551 31 551 31 535 15 c 128,-1,68
 519 -1 519 -1 497.5 -10 c 128,-1,69
 476 -19 476 -19 452 -19 c 0,70,71
 426 -19 426 -19 404.5 -9.5 c 128,-1,72
 383 0 383 0 367 15.5 c 128,-1,73
 351 31 351 31 342 52.5 c 128,-1,74
 333 74 333 74 333 98 c 2,75,-1
 333 433 l 1,0,-1
807 614 m 1,76,-1
 807 1059 l 2,77,78
 807 1084 807 1084 798 1105.5 c 128,-1,79
 789 1127 789 1127 773 1143 c 128,-1,80
 757 1159 757 1159 735.5 1168.5 c 128,-1,81
 714 1178 714 1178 689 1178 c 0,82,83
 663 1178 663 1178 641.5 1168.5 c 128,-1,84
 620 1159 620 1159 604 1143 c 128,-1,85
 588 1127 588 1127 579 1105.5 c 128,-1,86
 570 1084 570 1084 570 1060 c 2,87,-1
 570 614 l 1,88,-1
 807 614 l 1,76,-1
EndSplineSet
EndChar

StartChar: B
Encoding: 66 66 31
Width: 1198
Flags: W
LayerCount: 2
Fore
SplineSet
140 90 m 0,0,1
 140 108 140 108 147 124.5 c 128,-1,2
 154 141 154 141 166.5 153.5 c 128,-1,3
 179 166 179 166 195.5 173.5 c 128,-1,4
 212 181 212 181 231 181 c 2,5,-1
 333 181 l 1,6,-1
 333 955 l 2,7,8
 333 1013 333 1013 354 1049 c 128,-1,9
 375 1085 375 1085 401 1112 c 0,10,11
 410 1122 410 1122 418.5 1130 c 128,-1,12
 427 1138 427 1138 427 1148 c 0,13,14
 427 1157 427 1157 420.5 1167.5 c 128,-1,15
 414 1178 414 1178 395 1178 c 2,16,-1
 283 1178 l 2,17,18
 260 1178 260 1178 240.5 1168.5 c 128,-1,19
 221 1159 221 1159 206.5 1142.5 c 128,-1,20
 192 1126 192 1126 183.5 1104.5 c 128,-1,21
 175 1083 175 1083 175 1060 c 2,22,-1
 175 1003 l 2,23,24
 175 978 175 978 166 956.5 c 128,-1,25
 157 935 157 935 140.5 919.5 c 128,-1,26
 124 904 124 904 102 895 c 128,-1,27
 80 886 80 886 55 886 c 0,28,29
 31 886 31 886 9.5 895 c 128,-1,30
 -12 904 -12 904 -27.5 919.5 c 128,-1,31
 -43 935 -43 935 -52.5 956.5 c 128,-1,32
 -62 978 -62 978 -62 1003 c 2,33,-1
 -62 1063 l 2,34,35
 -62 1124 -62 1124 -38.5 1178 c 128,-1,36
 -15 1232 -15 1232 25 1272 c 128,-1,37
 65 1312 65 1312 119 1335.5 c 128,-1,38
 173 1359 173 1359 234 1359 c 2,39,-1
 697 1359 l 2,40,41
 766 1359 766 1359 828.5 1342 c 128,-1,42
 891 1325 891 1325 938.5 1289 c 128,-1,43
 986 1253 986 1253 1014 1197 c 128,-1,44
 1042 1141 1042 1141 1042 1063 c 2,45,-1
 1042 852 l 2,46,47
 1042 687 1042 687 880 626 c 1,48,49
 911 608 911 608 936.5 586 c 128,-1,50
 962 564 962 564 980.5 535 c 128,-1,51
 999 506 999 506 1009 468 c 128,-1,52
 1019 430 1019 430 1019 380 c 2,53,-1
 1019 296 l 2,54,55
 1019 235 1019 235 996 181 c 128,-1,56
 973 127 973 127 933 87 c 128,-1,57
 893 47 893 47 839 23.5 c 128,-1,58
 785 0 785 0 724 0 c 2,59,-1
 231 0 l 2,60,61
 193 0 193 0 166.5 26 c 128,-1,62
 140 52 140 52 140 90 c 0,0,1
689 722 m 2,63,64
 713 722 713 722 734.5 731 c 128,-1,65
 756 740 756 740 771.5 756 c 128,-1,66
 787 772 787 772 796.5 793.5 c 128,-1,67
 806 815 806 815 806 841 c 2,68,-1
 806 1061 l 2,69,70
 806 1086 806 1086 796.5 1107 c 128,-1,71
 787 1128 787 1128 771.5 1144 c 128,-1,72
 756 1160 756 1160 734.5 1169 c 128,-1,73
 713 1178 713 1178 689 1178 c 0,74,75
 660 1178 660 1178 638 1168.5 c 128,-1,76
 616 1159 616 1159 601 1142.5 c 128,-1,77
 586 1126 586 1126 578 1105 c 128,-1,78
 570 1084 570 1084 570 1061 c 2,79,-1
 570 722 l 1,80,-1
 689 722 l 2,63,64
664 181 m 2,81,82
 689 181 689 181 710.5 190.5 c 128,-1,83
 732 200 732 200 748 216 c 128,-1,84
 764 232 764 232 773.5 253.5 c 128,-1,85
 783 275 783 275 783 300 c 2,86,-1
 783 424 l 2,87,88
 783 449 783 449 773.5 470.5 c 128,-1,89
 764 492 764 492 748 508 c 128,-1,90
 732 524 732 524 710.5 533 c 128,-1,91
 689 542 689 542 664 542 c 2,92,-1
 570 542 l 1,93,-1
 570 181 l 1,94,-1
 664 181 l 2,81,82
EndSplineSet
EndChar

StartChar: C
Encoding: 67 67 32
Width: 1056
Flags: W
LayerCount: 2
Fore
SplineSet
156 1085 m 2,0,1
 156 1152 156 1152 179.5 1206 c 128,-1,2
 203 1260 203 1260 248.5 1298.5 c 128,-1,3
 294 1337 294 1337 360 1358 c 128,-1,4
 426 1379 426 1379 511 1379 c 0,5,6
 598 1379 598 1379 666 1358 c 128,-1,7
 734 1337 734 1337 780.5 1298.5 c 128,-1,8
 827 1260 827 1260 851.5 1205.5 c 128,-1,9
 876 1151 876 1151 876 1084 c 0,10,11
 876 1016 876 1016 863 959.5 c 128,-1,12
 850 903 850 903 826 862.5 c 128,-1,13
 802 822 802 822 768.5 799 c 128,-1,14
 735 776 735 776 693 776 c 0,15,16
 642 776 642 776 608.5 809 c 128,-1,17
 575 842 575 842 575 893 c 0,18,19
 575 924 575 924 588 945.5 c 128,-1,20
 601 967 601 967 617 986.5 c 128,-1,21
 633 1006 633 1006 646 1027.5 c 128,-1,22
 659 1049 659 1049 659 1080 c 0,23,24
 659 1105 659 1105 649 1126.5 c 128,-1,25
 639 1148 639 1148 621 1164 c 128,-1,26
 603 1180 603 1180 577 1189.5 c 128,-1,27
 551 1199 551 1199 519 1199 c 0,28,29
 490 1199 490 1199 467 1190 c 128,-1,30
 444 1181 444 1181 427.5 1165 c 128,-1,31
 411 1149 411 1149 402 1127 c 128,-1,32
 393 1105 393 1105 393 1080 c 2,33,-1
 393 268 l 2,34,35
 393 217 393 217 426.5 189.5 c 128,-1,36
 460 162 460 162 511 162 c 256,37,38
 562 162 562 162 595.5 189.5 c 128,-1,39
 629 217 629 217 629 268 c 2,40,-1
 629 333 l 2,41,42
 629 358 629 358 638 379.5 c 128,-1,43
 647 401 647 401 663 417 c 128,-1,44
 679 433 679 433 700.5 442 c 128,-1,45
 722 451 722 451 746 451 c 0,46,47
 771 451 771 451 793 442 c 128,-1,48
 815 433 815 433 831 417 c 128,-1,49
 847 401 847 401 856.5 379.5 c 128,-1,50
 866 358 866 358 866 333 c 2,51,-1
 866 274 l 2,52,53
 866 206 866 206 842.5 152 c 128,-1,54
 819 98 819 98 773.5 60 c 128,-1,55
 728 22 728 22 662 1.5 c 128,-1,56
 596 -19 596 -19 511 -19 c 0,57,58
 427 -19 427 -19 361 1.5 c 128,-1,59
 295 22 295 22 249.5 60.5 c 128,-1,60
 204 99 204 99 180 153.5 c 128,-1,61
 156 208 156 208 156 277 c 2,62,-1
 156 1085 l 2,0,1
EndSplineSet
EndChar

StartChar: D
Encoding: 68 68 33
Width: 1197
Flags: W
LayerCount: 2
Fore
SplineSet
130 90 m 0,0,1
 130 108 130 108 137 124.5 c 128,-1,2
 144 141 144 141 156.5 153.5 c 128,-1,3
 169 166 169 166 185.5 173.5 c 128,-1,4
 202 181 202 181 221 181 c 2,5,-1
 333 181 l 1,6,-1
 333 956 l 2,7,8
 333 1014 333 1014 354 1050 c 128,-1,9
 375 1086 375 1086 401 1113 c 0,10,11
 410 1123 410 1123 418.5 1131 c 128,-1,12
 427 1139 427 1139 427 1149 c 0,13,14
 427 1158 427 1158 420.5 1168.5 c 128,-1,15
 414 1179 414 1179 395 1179 c 2,16,-1
 282 1179 l 2,17,18
 259 1179 259 1179 239.5 1169 c 128,-1,19
 220 1159 220 1159 205.5 1142.5 c 128,-1,20
 191 1126 191 1126 182.5 1104.5 c 128,-1,21
 174 1083 174 1083 174 1060 c 2,22,-1
 174 1003 l 2,23,24
 174 978 174 978 165 956.5 c 128,-1,25
 156 935 156 935 139.5 919.5 c 128,-1,26
 123 904 123 904 101 895 c 128,-1,27
 79 886 79 886 54 886 c 0,28,29
 30 886 30 886 8.5 895 c 128,-1,30
 -13 904 -13 904 -29 919.5 c 128,-1,31
 -45 935 -45 935 -54 956.5 c 128,-1,32
 -63 978 -63 978 -63 1003 c 2,33,-1
 -63 1063 l 2,34,35
 -63 1124 -63 1124 -39.5 1178 c 128,-1,36
 -16 1232 -16 1232 24 1272 c 128,-1,37
 64 1312 64 1312 118 1335.5 c 128,-1,38
 172 1359 172 1359 233 1359 c 2,39,-1
 746 1359 l 2,40,41
 807 1359 807 1359 861 1335.5 c 128,-1,42
 915 1312 915 1312 955 1272 c 128,-1,43
 995 1232 995 1232 1018 1178 c 128,-1,44
 1041 1124 1041 1124 1041 1063 c 2,45,-1
 1041 296 l 2,46,47
 1041 235 1041 235 1018 181 c 128,-1,48
 995 127 995 127 955 87 c 128,-1,49
 915 47 915 47 861 23.5 c 128,-1,50
 807 0 807 0 746 0 c 2,51,-1
 221 0 l 2,52,53
 183 0 183 0 156.5 26 c 128,-1,54
 130 52 130 52 130 90 c 0,0,1
689 181 m 2,55,56
 713 181 713 181 734 190 c 128,-1,57
 755 199 755 199 771 214.5 c 128,-1,58
 787 230 787 230 796 251.5 c 128,-1,59
 805 273 805 273 805 298 c 2,60,-1
 805 1060 l 2,61,62
 805 1085 805 1085 796 1106.5 c 128,-1,63
 787 1128 787 1128 771 1144 c 128,-1,64
 755 1160 755 1160 734 1169.5 c 128,-1,65
 713 1179 713 1179 689 1179 c 0,66,67
 662 1179 662 1179 640 1169.5 c 128,-1,68
 618 1160 618 1160 602.5 1144 c 128,-1,69
 587 1128 587 1128 578.5 1106.5 c 128,-1,70
 570 1085 570 1085 570 1061 c 2,71,-1
 570 181 l 1,72,-1
 689 181 l 2,55,56
EndSplineSet
EndChar

StartChar: E
Encoding: 69 69 34
Width: 1056
Flags: W
LayerCount: 2
Fore
SplineSet
172 324 m 2,0,1
 172 374 172 374 182 412.5 c 128,-1,2
 192 451 192 451 211 480.5 c 128,-1,3
 230 510 230 510 255.5 532 c 128,-1,4
 281 554 281 554 313 572 c 1,5,6
 227 606 227 606 191.5 661.5 c 128,-1,7
 156 717 156 717 156 796 c 2,8,-1
 156 1083 l 2,9,10
 156 1152 156 1152 181 1206.5 c 128,-1,11
 206 1261 206 1261 253 1299.5 c 128,-1,12
 300 1338 300 1338 368.5 1358.5 c 128,-1,13
 437 1379 437 1379 523 1379 c 0,14,15
 610 1379 610 1379 678 1358 c 128,-1,16
 746 1337 746 1337 792.5 1298.5 c 128,-1,17
 839 1260 839 1260 863.5 1205.5 c 128,-1,18
 888 1151 888 1151 888 1084 c 0,19,20
 888 1016 888 1016 875 959.5 c 128,-1,21
 862 903 862 903 838 862.5 c 128,-1,22
 814 822 814 822 780.5 799 c 128,-1,23
 747 776 747 776 705 776 c 0,24,25
 654 776 654 776 620.5 809 c 128,-1,26
 587 842 587 842 587 893 c 0,27,28
 587 924 587 924 600 945.5 c 128,-1,29
 613 967 613 967 629 986.5 c 128,-1,30
 645 1006 645 1006 658 1027.5 c 128,-1,31
 671 1049 671 1049 671 1080 c 0,32,33
 671 1105 671 1105 661 1126.5 c 128,-1,34
 651 1148 651 1148 633 1164 c 128,-1,35
 615 1180 615 1180 589 1189 c 128,-1,36
 563 1198 563 1198 532 1198 c 0,37,38
 469 1198 469 1198 430.5 1170.5 c 128,-1,39
 392 1143 392 1143 392 1092 c 2,40,-1
 392 785 l 2,41,42
 392 759 392 759 401.5 737.5 c 128,-1,43
 411 716 411 716 426.5 700 c 128,-1,44
 442 684 442 684 463.5 675 c 128,-1,45
 485 666 485 666 509 666 c 2,46,-1
 527 666 l 2,47,48
 546 666 546 666 562.5 659 c 128,-1,49
 579 652 579 652 591 639.5 c 128,-1,50
 603 627 603 627 609.5 610.5 c 128,-1,51
 616 594 616 594 616 576 c 0,52,53
 616 538 616 538 590.5 512 c 128,-1,54
 565 486 565 486 527 486 c 0,55,56
 476 486 476 486 442.5 452.5 c 128,-1,57
 409 419 409 419 409 368 c 2,58,-1
 409 298 l 2,59,60
 409 247 409 247 442.5 213.5 c 128,-1,61
 476 180 476 180 527 180 c 0,62,63
 549 180 549 180 569 189 c 128,-1,64
 589 198 589 198 604 213.5 c 128,-1,65
 619 229 619 229 628 250 c 128,-1,66
 637 271 637 271 637 296 c 0,67,68
 637 320 637 320 646 341.5 c 128,-1,69
 655 363 655 363 671 379 c 128,-1,70
 687 395 687 395 708.5 404.5 c 128,-1,71
 730 414 730 414 755 414 c 256,72,73
 780 414 780 414 801 404.5 c 128,-1,74
 822 395 822 395 838 379 c 128,-1,75
 854 363 854 363 863 341.5 c 128,-1,76
 872 320 872 320 872 296 c 0,77,78
 872 228 872 228 848.5 173.5 c 128,-1,79
 825 119 825 119 781 80.5 c 128,-1,80
 737 42 737 42 673 21 c 128,-1,81
 609 0 609 0 527 0 c 0,82,83
 442 0 442 0 376 21 c 128,-1,84
 310 42 310 42 264.5 80.5 c 128,-1,85
 219 119 219 119 195.5 173 c 128,-1,86
 172 227 172 227 172 294 c 2,87,-1
 172 324 l 2,0,1
EndSplineSet
EndChar

StartChar: F
Encoding: 70 70 35
Width: 1025
Flags: W
LayerCount: 2
Fore
SplineSet
184 90 m 0,0,1
 184 108 184 108 191 124.5 c 128,-1,2
 198 141 198 141 210 153.5 c 128,-1,3
 222 166 222 166 238.5 173.5 c 128,-1,4
 255 181 255 181 274 181 c 2,5,-1
 331 181 l 2,6,7
 382 181 382 181 415.5 214 c 128,-1,8
 449 247 449 247 449 298 c 2,9,-1
 449 531 l 1,10,-1
 405 531 l 2,11,12
 367 531 367 531 340.5 557 c 128,-1,13
 314 583 314 583 314 621 c 0,14,15
 314 639 314 639 321 655.5 c 128,-1,16
 328 672 328 672 340.5 684.5 c 128,-1,17
 353 697 353 697 369.5 704 c 128,-1,18
 386 711 386 711 405 711 c 2,19,-1
 449 711 l 1,20,-1
 449 956 l 2,21,22
 449 1014 449 1014 470 1050 c 128,-1,23
 491 1086 491 1086 517 1113 c 0,24,25
 526 1123 526 1123 534.5 1131 c 128,-1,26
 543 1139 543 1139 543 1149 c 0,27,28
 543 1157 543 1157 537 1168 c 128,-1,29
 531 1179 531 1179 514 1179 c 2,30,-1
 399 1179 l 2,31,32
 376 1179 376 1179 356.5 1169 c 128,-1,33
 337 1159 337 1159 322.5 1142.5 c 128,-1,34
 308 1126 308 1126 299.5 1104.5 c 128,-1,35
 291 1083 291 1083 291 1060 c 2,36,-1
 291 1003 l 2,37,38
 291 978 291 978 282 956.5 c 128,-1,39
 273 935 273 935 256.5 919.5 c 128,-1,40
 240 904 240 904 218 895 c 128,-1,41
 196 886 196 886 171 886 c 0,42,43
 147 886 147 886 125.5 895 c 128,-1,44
 104 904 104 904 88.5 919.5 c 128,-1,45
 73 935 73 935 63.5 956.5 c 128,-1,46
 54 978 54 978 54 1003 c 2,47,-1
 54 1063 l 2,48,49
 54 1124 54 1124 77.5 1178 c 128,-1,50
 101 1232 101 1232 141 1272 c 128,-1,51
 181 1312 181 1312 235 1335.5 c 128,-1,52
 289 1359 289 1359 350 1359 c 2,53,-1
 936 1359 l 2,54,55
 955 1359 955 1359 971.5 1352 c 128,-1,56
 988 1345 988 1345 1000 1332.5 c 128,-1,57
 1012 1320 1012 1320 1018.5 1303.5 c 128,-1,58
 1025 1287 1025 1287 1025 1269 c 0,59,60
 1025 1250 1025 1250 1018 1233.5 c 128,-1,61
 1011 1217 1011 1217 999 1205 c 128,-1,62
 987 1193 987 1193 971 1186 c 128,-1,63
 955 1179 955 1179 936 1179 c 2,64,-1
 795 1179 l 2,65,66
 772 1179 772 1179 752 1169.5 c 128,-1,67
 732 1160 732 1160 717 1144 c 128,-1,68
 702 1128 702 1128 693.5 1106.5 c 128,-1,69
 685 1085 685 1085 685 1061 c 2,70,-1
 685 711 l 1,71,-1
 877 711 l 2,72,73
 915 711 915 711 941.5 685 c 128,-1,74
 968 659 968 659 968 621 c 0,75,76
 968 603 968 603 961 586.5 c 128,-1,77
 954 570 954 570 941.5 557.5 c 128,-1,78
 929 545 929 545 912.5 538 c 128,-1,79
 896 531 896 531 877 531 c 2,80,-1
 685 531 l 1,81,-1
 685 296 l 2,82,83
 685 235 685 235 662 181 c 128,-1,84
 639 127 639 127 599 87 c 128,-1,85
 559 47 559 47 505 23.5 c 128,-1,86
 451 0 451 0 390 0 c 2,87,-1
 274 0 l 2,88,89
 236 0 236 0 210 26 c 128,-1,90
 184 52 184 52 184 90 c 0,0,1
EndSplineSet
EndChar

StartChar: G
Encoding: 71 71 36
Width: 1022
Flags: W
LayerCount: 2
Fore
SplineSet
156 1085 m 2,0,1
 156 1152 156 1152 179.5 1206 c 128,-1,2
 203 1260 203 1260 248.5 1298.5 c 128,-1,3
 294 1337 294 1337 360 1358 c 128,-1,4
 426 1379 426 1379 511 1379 c 0,5,6
 598 1379 598 1379 666 1358 c 128,-1,7
 734 1337 734 1337 780.5 1298.5 c 128,-1,8
 827 1260 827 1260 851.5 1205.5 c 128,-1,9
 876 1151 876 1151 876 1084 c 0,10,11
 876 1016 876 1016 863 959.5 c 128,-1,12
 850 903 850 903 826 862.5 c 128,-1,13
 802 822 802 822 768.5 799 c 128,-1,14
 735 776 735 776 693 776 c 0,15,16
 642 776 642 776 608.5 809 c 128,-1,17
 575 842 575 842 575 893 c 0,18,19
 575 924 575 924 588 945.5 c 128,-1,20
 601 967 601 967 617 986.5 c 128,-1,21
 633 1006 633 1006 646 1027.5 c 128,-1,22
 659 1049 659 1049 659 1080 c 0,23,24
 659 1105 659 1105 649 1126.5 c 128,-1,25
 639 1148 639 1148 621 1164 c 128,-1,26
 603 1180 603 1180 577 1189.5 c 128,-1,27
 551 1199 551 1199 519 1199 c 0,28,29
 490 1199 490 1199 467 1190 c 128,-1,30
 444 1181 444 1181 427.5 1165 c 128,-1,31
 411 1149 411 1149 402 1127 c 128,-1,32
 393 1105 393 1105 393 1080 c 2,33,-1
 393 268 l 2,34,35
 393 217 393 217 426.5 189.5 c 128,-1,36
 460 162 460 162 511 162 c 256,37,38
 562 162 562 162 595.5 189.5 c 128,-1,39
 629 217 629 217 629 268 c 2,40,-1
 629 440 l 2,41,42
 629 465 629 465 638 486.5 c 128,-1,43
 647 508 647 508 663 524 c 128,-1,44
 679 540 679 540 700.5 549 c 128,-1,45
 722 558 722 558 746 558 c 0,46,47
 771 558 771 558 793 549 c 128,-1,48
 815 540 815 540 831 524 c 128,-1,49
 847 508 847 508 856.5 486.5 c 128,-1,50
 866 465 866 465 866 440 c 2,51,-1
 866 -143 l 2,52,53
 866 -204 866 -204 843 -258 c 128,-1,54
 820 -312 820 -312 780 -352 c 128,-1,55
 740 -392 740 -392 686.5 -415.5 c 128,-1,56
 633 -439 633 -439 572 -439 c 2,57,-1
 454 -439 l 2,58,59
 416 -439 416 -439 390 -413 c 128,-1,60
 364 -387 364 -387 364 -349 c 0,61,62
 364 -331 364 -331 371 -314.5 c 128,-1,63
 378 -298 378 -298 390 -285.5 c 128,-1,64
 402 -273 402 -273 418.5 -265.5 c 128,-1,65
 435 -258 435 -258 454 -258 c 2,66,-1
 511 -258 l 2,67,68
 562 -258 562 -258 595.5 -225 c 128,-1,69
 629 -192 629 -192 629 -141 c 2,70,-1
 629 41 l 2,71,72
 629 60 629 60 618.5 66.5 c 128,-1,73
 608 73 608 73 599 73 c 0,74,75
 588 73 588 73 579.5 64.5 c 128,-1,76
 571 56 571 56 563 48 c 0,77,78
 536 21 536 21 499.5 0.5 c 128,-1,79
 463 -20 463 -20 407 -20 c 0,80,81
 353 -20 353 -20 307 3.5 c 128,-1,82
 261 27 261 27 227.5 67.5 c 128,-1,83
 194 108 194 108 175 161.5 c 128,-1,84
 156 215 156 215 156 276 c 2,85,-1
 156 1085 l 2,0,1
EndSplineSet
EndChar

StartChar: H
Encoding: 72 72 37
Width: 1327
Flags: W
LayerCount: 2
Fore
SplineSet
195 90 m 0,0,1
 195 108 195 108 202 124.5 c 128,-1,2
 209 141 209 141 221 153.5 c 128,-1,3
 233 166 233 166 249.5 173.5 c 128,-1,4
 266 181 266 181 285 181 c 2,5,-1
 342 181 l 2,6,7
 393 181 393 181 426.5 214 c 128,-1,8
 460 247 460 247 460 298 c 2,9,-1
 460 433 l 1,10,-1
 390 433 l 2,11,12
 372 433 372 433 356 440.5 c 128,-1,13
 340 448 340 448 328 460 c 128,-1,14
 316 472 316 472 309 488.5 c 128,-1,15
 302 505 302 505 302 523 c 0,16,17
 302 542 302 542 309 558.5 c 128,-1,18
 316 575 316 575 328 587.5 c 128,-1,19
 340 600 340 600 356 607 c 128,-1,20
 372 614 372 614 390 614 c 2,21,-1
 460 614 l 1,22,-1
 460 1179 l 1,23,-1
 415 1179 l 2,24,25
 364 1179 364 1179 332.5 1146.5 c 128,-1,26
 301 1114 301 1114 301 1060 c 2,27,-1
 301 1003 l 2,28,29
 301 978 301 978 292 956.5 c 128,-1,30
 283 935 283 935 266.5 919.5 c 128,-1,31
 250 904 250 904 228 895 c 128,-1,32
 206 886 206 886 181 886 c 0,33,34
 157 886 157 886 135.5 895 c 128,-1,35
 114 904 114 904 98.5 919.5 c 128,-1,36
 83 935 83 935 73.5 956.5 c 128,-1,37
 64 978 64 978 64 1003 c 2,38,-1
 64 1063 l 2,39,40
 64 1124 64 1124 87.5 1178 c 128,-1,41
 111 1232 111 1232 151.5 1272 c 128,-1,42
 192 1312 192 1312 245.5 1335.5 c 128,-1,43
 299 1359 299 1359 360 1359 c 2,44,-1
 578 1359 l 2,45,46
 603 1359 603 1359 624.5 1349.5 c 128,-1,47
 646 1340 646 1340 662 1324 c 128,-1,48
 678 1308 678 1308 687 1286 c 128,-1,49
 696 1264 696 1264 696 1239 c 2,50,-1
 696 614 l 1,51,-1
 935 614 l 1,52,-1
 935 1239 l 2,53,54
 935 1264 935 1264 944 1286 c 128,-1,55
 953 1308 953 1308 969 1324 c 128,-1,56
 985 1340 985 1340 1006.5 1349.5 c 128,-1,57
 1028 1359 1028 1359 1054 1359 c 0,58,59
 1079 1359 1079 1359 1100 1349.5 c 128,-1,60
 1121 1340 1121 1340 1137 1324 c 128,-1,61
 1153 1308 1153 1308 1162 1286 c 128,-1,62
 1171 1264 1171 1264 1171 1239 c 2,63,-1
 1171 117 l 2,64,65
 1171 93 1171 93 1162 71.5 c 128,-1,66
 1153 50 1153 50 1137 34.5 c 128,-1,67
 1121 19 1121 19 1100 9.5 c 128,-1,68
 1079 0 1079 0 1054 0 c 0,69,70
 1028 0 1028 0 1006.5 9.5 c 128,-1,71
 985 19 985 19 969 34.5 c 128,-1,72
 953 50 953 50 944 71.5 c 128,-1,73
 935 93 935 93 935 117 c 2,74,-1
 935 433 l 1,75,-1
 696 433 l 1,76,-1
 696 296 l 2,77,78
 696 235 696 235 673 181 c 128,-1,79
 650 127 650 127 610 87 c 128,-1,80
 570 47 570 47 516 23.5 c 128,-1,81
 462 0 462 0 401 0 c 2,82,-1
 285 0 l 2,83,84
 247 0 247 0 221 26 c 128,-1,85
 195 52 195 52 195 90 c 0,0,1
EndSplineSet
EndChar

StartChar: I
Encoding: 73 73 38
Width: 808
Flags: W
LayerCount: 2
Fore
SplineSet
151 90 m 0,0,1
 151 108 151 108 158 124.5 c 128,-1,2
 165 141 165 141 177 153.5 c 128,-1,3
 189 166 189 166 205.5 173.5 c 128,-1,4
 222 181 222 181 241 181 c 2,5,-1
 298 181 l 2,6,7
 349 181 349 181 382.5 214 c 128,-1,8
 416 247 416 247 416 298 c 2,9,-1
 416 1179 l 1,10,-1
 371 1179 l 2,11,12
 347 1179 347 1179 326 1169.5 c 128,-1,13
 305 1160 305 1160 289.5 1143.5 c 128,-1,14
 274 1127 274 1127 265.5 1105.5 c 128,-1,15
 257 1084 257 1084 257 1060 c 2,16,-1
 257 1003 l 2,17,18
 257 978 257 978 248 956.5 c 128,-1,19
 239 935 239 935 222.5 919.5 c 128,-1,20
 206 904 206 904 184 895 c 128,-1,21
 162 886 162 886 137 886 c 0,22,23
 113 886 113 886 91.5 895 c 128,-1,24
 70 904 70 904 54.5 919.5 c 128,-1,25
 39 935 39 935 29.5 956.5 c 128,-1,26
 20 978 20 978 20 1003 c 2,27,-1
 20 1063 l 2,28,29
 20 1124 20 1124 43.5 1178 c 128,-1,30
 67 1232 67 1232 107.5 1272 c 128,-1,31
 148 1312 148 1312 201.5 1335.5 c 128,-1,32
 255 1359 255 1359 316 1359 c 2,33,-1
 534 1359 l 2,34,35
 559 1359 559 1359 580.5 1349.5 c 128,-1,36
 602 1340 602 1340 618 1324 c 128,-1,37
 634 1308 634 1308 643 1286 c 128,-1,38
 652 1264 652 1264 652 1239 c 2,39,-1
 652 296 l 2,40,41
 652 235 652 235 629 181 c 128,-1,42
 606 127 606 127 566 87 c 128,-1,43
 526 47 526 47 472 23.5 c 128,-1,44
 418 0 418 0 357 0 c 2,45,-1
 241 0 l 2,46,47
 203 0 203 0 177 26 c 128,-1,48
 151 52 151 52 151 90 c 0,0,1
EndSplineSet
EndChar

StartChar: J
Encoding: 74 74 39
Width: 808
Flags: W
LayerCount: 2
Fore
SplineSet
297 -293 m 2,0,1
 322 -293 322 -293 343.5 -284 c 128,-1,2
 365 -275 365 -275 381 -259 c 128,-1,3
 397 -243 397 -243 406.5 -221.5 c 128,-1,4
 416 -200 416 -200 416 -176 c 2,5,-1
 416 1179 l 1,6,-1
 376 1179 l 2,7,8
 350 1179 350 1179 328.5 1169.5 c 128,-1,9
 307 1160 307 1160 291 1144 c 128,-1,10
 275 1128 275 1128 266 1106.5 c 128,-1,11
 257 1085 257 1085 257 1060 c 2,12,-1
 257 1003 l 2,13,14
 257 978 257 978 248 956.5 c 128,-1,15
 239 935 239 935 222.5 919.5 c 128,-1,16
 206 904 206 904 184 895 c 128,-1,17
 162 886 162 886 137 886 c 0,18,19
 113 886 113 886 91.5 895 c 128,-1,20
 70 904 70 904 54.5 919.5 c 128,-1,21
 39 935 39 935 29.5 956.5 c 128,-1,22
 20 978 20 978 20 1003 c 2,23,-1
 20 1063 l 2,24,25
 20 1124 20 1124 43.5 1178 c 128,-1,26
 67 1232 67 1232 107.5 1272 c 128,-1,27
 148 1312 148 1312 201.5 1335.5 c 128,-1,28
 255 1359 255 1359 316 1359 c 2,29,-1
 534 1359 l 2,30,31
 559 1359 559 1359 580.5 1349.5 c 128,-1,32
 602 1340 602 1340 618 1324 c 128,-1,33
 634 1308 634 1308 643 1286 c 128,-1,34
 652 1264 652 1264 652 1239 c 2,35,-1
 652 -178 l 2,36,37
 652 -239 652 -239 628.5 -293 c 128,-1,38
 605 -347 605 -347 565 -387 c 128,-1,39
 525 -427 525 -427 470.5 -450.5 c 128,-1,40
 416 -474 416 -474 355 -474 c 2,41,-1
 199 -474 l 2,42,43
 181 -474 181 -474 164.5 -467 c 128,-1,44
 148 -460 148 -460 136 -448 c 128,-1,45
 124 -436 124 -436 116.5 -419.5 c 128,-1,46
 109 -403 109 -403 109 -384 c 256,47,48
 109 -365 109 -365 116.5 -348.5 c 128,-1,49
 124 -332 124 -332 136 -319.5 c 128,-1,50
 148 -307 148 -307 164.5 -300 c 128,-1,51
 181 -293 181 -293 199 -293 c 2,52,-1
 297 -293 l 2,0,1
EndSplineSet
EndChar

StartChar: K
Encoding: 75 75 40
Width: 1360
Flags: W
LayerCount: 2
Fore
SplineSet
461 1179 m 1,0,-1
 409 1179 l 2,1,2
 386 1179 386 1179 366.5 1169 c 128,-1,3
 347 1159 347 1159 332.5 1142.5 c 128,-1,4
 318 1126 318 1126 309.5 1104.5 c 128,-1,5
 301 1083 301 1083 301 1060 c 2,6,-1
 301 1003 l 2,7,8
 301 978 301 978 292 956.5 c 128,-1,9
 283 935 283 935 266.5 919.5 c 128,-1,10
 250 904 250 904 228 895 c 128,-1,11
 206 886 206 886 181 886 c 0,12,13
 157 886 157 886 135.5 895 c 128,-1,14
 114 904 114 904 98.5 919.5 c 128,-1,15
 83 935 83 935 73.5 956.5 c 128,-1,16
 64 978 64 978 64 1003 c 2,17,-1
 64 1063 l 2,18,19
 64 1124 64 1124 87.5 1178 c 128,-1,20
 111 1232 111 1232 151 1272 c 128,-1,21
 191 1312 191 1312 245 1335.5 c 128,-1,22
 299 1359 299 1359 360 1359 c 2,23,-1
 581 1359 l 2,24,25
 605 1359 605 1359 626.5 1350 c 128,-1,26
 648 1341 648 1341 664 1324.5 c 128,-1,27
 680 1308 680 1308 689.5 1286 c 128,-1,28
 699 1264 699 1264 699 1239 c 2,29,-1
 699 724 l 1,30,-1
 815 724 l 2,31,32
 840 724 840 724 861 733.5 c 128,-1,33
 882 743 882 743 898 759 c 128,-1,34
 914 775 914 775 923 797 c 128,-1,35
 932 819 932 819 932 844 c 2,36,-1
 932 1239 l 2,37,38
 932 1264 932 1264 941.5 1286 c 128,-1,39
 951 1308 951 1308 967 1324.5 c 128,-1,40
 983 1341 983 1341 1005 1350 c 128,-1,41
 1027 1359 1027 1359 1052 1359 c 0,42,43
 1076 1359 1076 1359 1097.5 1350 c 128,-1,44
 1119 1341 1119 1341 1135 1324.5 c 128,-1,45
 1151 1308 1151 1308 1160.5 1286 c 128,-1,46
 1170 1264 1170 1264 1170 1239 c 2,47,-1
 1170 886 l 2,48,49
 1170 834 1170 834 1159.5 795 c 128,-1,50
 1149 756 1149 756 1129.5 726 c 128,-1,51
 1110 696 1110 696 1083 674 c 128,-1,52
 1056 652 1056 652 1023 634 c 1,53,54
 1095 606 1095 606 1133 552.5 c 128,-1,55
 1171 499 1171 499 1171 414 c 2,56,-1
 1171 385 l 2,57,58
 1171 295 1171 295 1184 229 c 128,-1,59
 1197 163 1197 163 1220 111.5 c 128,-1,60
 1243 60 1243 60 1275.5 17.5 c 128,-1,61
 1308 -25 1308 -25 1347 -68 c 0,62,63
 1364 -88 1364 -88 1372 -108 c 128,-1,64
 1380 -128 1380 -128 1380 -148 c 256,65,66
 1380 -168 1380 -168 1372.5 -186.5 c 128,-1,67
 1365 -205 1365 -205 1351.5 -218.5 c 128,-1,68
 1338 -232 1338 -232 1319.5 -240 c 128,-1,69
 1301 -248 1301 -248 1280 -248 c 256,70,71
 1259 -248 1259 -248 1225.5 -232.5 c 128,-1,72
 1192 -217 1192 -217 1153.5 -183.5 c 128,-1,73
 1115 -150 1115 -150 1075.5 -97 c 128,-1,74
 1036 -44 1036 -44 1004.5 31 c 128,-1,75
 973 106 973 106 953 204 c 128,-1,76
 933 302 933 302 933 425 c 0,77,78
 933 450 933 450 923.5 472 c 128,-1,79
 914 494 914 494 898.5 510 c 128,-1,80
 883 526 883 526 861.5 535 c 128,-1,81
 840 544 840 544 816 544 c 2,82,-1
 699 544 l 1,83,-1
 699 98 l 2,84,85
 699 74 699 74 689.5 52.5 c 128,-1,86
 680 31 680 31 664 15 c 128,-1,87
 648 -1 648 -1 626.5 -10 c 128,-1,88
 605 -19 605 -19 581 -19 c 0,89,90
 556 -19 556 -19 534 -9.5 c 128,-1,91
 512 0 512 0 496 15.5 c 128,-1,92
 480 31 480 31 470.5 52.5 c 128,-1,93
 461 74 461 74 461 98 c 2,94,-1
 461 1179 l 1,0,-1
EndSplineSet
EndChar

StartChar: L
Encoding: 76 76 41
Width: 1025
Flags: W
LayerCount: 2
Fore
SplineSet
10 90 m 0,0,1
 10 109 10 109 17 125.5 c 128,-1,2
 24 142 24 142 36 154.5 c 128,-1,3
 48 167 48 167 64 174 c 128,-1,4
 80 181 80 181 98 181 c 0,5,6
 123 181 123 181 144.5 189.5 c 128,-1,7
 166 198 166 198 182 213 c 128,-1,8
 198 228 198 228 207 248.5 c 128,-1,9
 216 269 216 269 216 293 c 2,10,-1
 216 1063 l 2,11,12
 216 1124 216 1124 239.5 1178 c 128,-1,13
 263 1232 263 1232 303.5 1272 c 128,-1,14
 344 1312 344 1312 397.5 1335.5 c 128,-1,15
 451 1359 451 1359 512 1359 c 2,16,-1
 658 1359 l 2,17,18
 677 1359 677 1359 693.5 1352 c 128,-1,19
 710 1345 710 1345 722 1332.5 c 128,-1,20
 734 1320 734 1320 741 1303.5 c 128,-1,21
 748 1287 748 1287 748 1269 c 0,22,23
 748 1231 748 1231 722 1205 c 128,-1,24
 696 1179 696 1179 658 1179 c 2,25,-1
 572 1179 l 2,26,27
 546 1179 546 1179 524.5 1169.5 c 128,-1,28
 503 1160 503 1160 487 1144 c 128,-1,29
 471 1128 471 1128 462 1106.5 c 128,-1,30
 453 1085 453 1085 453 1060 c 2,31,-1
 453 402 l 2,32,33
 453 346 453 346 432.5 309 c 128,-1,34
 412 272 412 272 385 246 c 0,35,36
 376 237 376 237 368 229 c 128,-1,37
 360 221 360 221 360 210 c 0,38,39
 360 201 360 201 366.5 190.5 c 128,-1,40
 373 180 373 180 389 180 c 2,41,-1
 638 180 l 2,42,43
 660 180 660 180 679.5 189.5 c 128,-1,44
 699 199 699 199 714 215.5 c 128,-1,45
 729 232 729 232 737.5 253.5 c 128,-1,46
 746 275 746 275 746 298 c 0,47,48
 746 323 746 323 755 344 c 128,-1,49
 764 365 764 365 780.5 381 c 128,-1,50
 797 397 797 397 818.5 406 c 128,-1,51
 840 415 840 415 866 415 c 0,52,53
 890 415 890 415 911.5 406 c 128,-1,54
 933 397 933 397 949 381 c 128,-1,55
 965 365 965 365 974 343 c 128,-1,56
 983 321 983 321 983 296 c 0,57,58
 983 235 983 235 959.5 181 c 128,-1,59
 936 127 936 127 896 87 c 128,-1,60
 856 47 856 47 802 23.5 c 128,-1,61
 748 0 748 0 687 0 c 2,62,-1
 98 0 l 2,63,64
 80 0 80 0 64 7.5 c 128,-1,65
 48 15 48 15 36 27 c 128,-1,66
 24 39 24 39 17 55.5 c 128,-1,67
 10 72 10 72 10 90 c 0,0,1
EndSplineSet
EndChar

StartChar: M
Encoding: 77 77 42
Width: 1676
Flags: W
LayerCount: 2
Fore
SplineSet
98 90 m 0,0,1
 98 108 98 108 105 124.5 c 128,-1,2
 112 141 112 141 124 153.5 c 128,-1,3
 136 166 136 166 152.5 173.5 c 128,-1,4
 169 181 169 181 188 181 c 2,5,-1
 215 181 l 2,6,7
 266 181 266 181 299.5 214 c 128,-1,8
 333 247 333 247 333 298 c 2,9,-1
 333 1179 l 1,10,-1
 288 1179 l 1,11,12
 264 1178 264 1178 243 1168 c 128,-1,13
 222 1158 222 1158 206.5 1142 c 128,-1,14
 191 1126 191 1126 182.5 1105 c 128,-1,15
 174 1084 174 1084 174 1060 c 2,16,-1
 174 1003 l 2,17,18
 174 978 174 978 165 956.5 c 128,-1,19
 156 935 156 935 139.5 919.5 c 128,-1,20
 123 904 123 904 101 895 c 128,-1,21
 79 886 79 886 54 886 c 0,22,23
 30 886 30 886 8.5 895 c 128,-1,24
 -13 904 -13 904 -28.5 919.5 c 128,-1,25
 -44 935 -44 935 -53.5 956.5 c 128,-1,26
 -63 978 -63 978 -63 1003 c 2,27,-1
 -63 1063 l 2,28,29
 -63 1124 -63 1124 -39.5 1178 c 128,-1,30
 -16 1232 -16 1232 24.5 1272 c 128,-1,31
 65 1312 65 1312 118.5 1335.5 c 128,-1,32
 172 1359 172 1359 233 1359 c 2,33,-1
 451 1359 l 2,34,35
 483 1359 483 1359 509 1343.5 c 128,-1,36
 535 1328 535 1328 552 1302 c 0,37,38
 562 1286 562 1286 576 1286 c 0,39,40
 589 1286 589 1286 596.5 1294 c 128,-1,41
 604 1302 604 1302 614 1311 c 0,42,43
 643 1337 643 1337 683 1358 c 128,-1,44
 723 1379 723 1379 783 1379 c 0,45,46
 844 1379 844 1379 895 1350 c 128,-1,47
 946 1321 946 1321 984 1273 c 0,48,49
 990 1266 990 1266 994.5 1264 c 128,-1,50
 999 1262 999 1262 1007 1262 c 0,51,52
 1016 1262 1016 1262 1024.5 1268.5 c 128,-1,53
 1033 1275 1033 1275 1038 1283 c 0,54,55
 1068 1328 1068 1328 1117 1353.5 c 128,-1,56
 1166 1379 1166 1379 1233 1379 c 0,57,58
 1294 1379 1294 1379 1346.5 1355.5 c 128,-1,59
 1399 1332 1399 1332 1437.5 1292 c 128,-1,60
 1476 1252 1476 1252 1498 1198 c 128,-1,61
 1520 1144 1520 1144 1520 1083 c 2,62,-1
 1520 98 l 2,63,64
 1520 74 1520 74 1511 52.5 c 128,-1,65
 1502 31 1502 31 1486 15.5 c 128,-1,66
 1470 0 1470 0 1448 -9.5 c 128,-1,67
 1426 -19 1426 -19 1401 -19 c 0,68,69
 1377 -19 1377 -19 1355.5 -9.5 c 128,-1,70
 1334 0 1334 0 1318.5 15.5 c 128,-1,71
 1303 31 1303 31 1293.5 52.5 c 128,-1,72
 1284 74 1284 74 1284 98 c 2,73,-1
 1284 1080 l 2,74,75
 1284 1105 1284 1105 1274.5 1126.5 c 128,-1,76
 1265 1148 1265 1148 1249 1164 c 128,-1,77
 1233 1180 1233 1180 1210.5 1189.5 c 128,-1,78
 1188 1199 1188 1199 1163 1199 c 0,79,80
 1139 1199 1139 1199 1118 1189.5 c 128,-1,81
 1097 1180 1097 1180 1080.5 1163.5 c 128,-1,82
 1064 1147 1064 1147 1054.5 1126 c 128,-1,83
 1045 1105 1045 1105 1045 1082 c 2,84,-1
 1045 98 l 2,85,86
 1045 74 1045 74 1036 52.5 c 128,-1,87
 1027 31 1027 31 1011 15.5 c 128,-1,88
 995 0 995 0 973.5 -9.5 c 128,-1,89
 952 -19 952 -19 928 -19 c 0,90,91
 903 -19 903 -19 881 -9.5 c 128,-1,92
 859 0 859 0 843 15.5 c 128,-1,93
 827 31 827 31 817.5 52.5 c 128,-1,94
 808 74 808 74 808 98 c 2,95,-1
 808 1080 l 2,96,97
 808 1105 808 1105 798.5 1126.5 c 128,-1,98
 789 1148 789 1148 773 1164 c 128,-1,99
 757 1180 757 1180 735.5 1189.5 c 128,-1,100
 714 1199 714 1199 690 1199 c 256,101,102
 666 1199 666 1199 644.5 1191 c 128,-1,103
 623 1183 623 1183 606 1167.5 c 128,-1,104
 589 1152 589 1152 579 1129.5 c 128,-1,105
 569 1107 569 1107 569 1079 c 2,106,-1
 569 296 l 2,107,108
 569 235 569 235 546 181 c 128,-1,109
 523 127 523 127 483 87 c 128,-1,110
 443 47 443 47 389 23.5 c 128,-1,111
 335 0 335 0 274 0 c 2,112,-1
 188 0 l 2,113,114
 150 0 150 0 124 26 c 128,-1,115
 98 52 98 52 98 90 c 0,0,1
EndSplineSet
EndChar

StartChar: N
Encoding: 78 78 43
Width: 1200
Flags: W
LayerCount: 2
Fore
SplineSet
98 90 m 0,0,1
 98 108 98 108 105 124.5 c 128,-1,2
 112 141 112 141 124 153.5 c 128,-1,3
 136 166 136 166 152.5 173.5 c 128,-1,4
 169 181 169 181 188 181 c 2,5,-1
 215 181 l 2,6,7
 266 181 266 181 299.5 214 c 128,-1,8
 333 247 333 247 333 298 c 2,9,-1
 333 1179 l 1,10,-1
 288 1179 l 1,11,12
 264 1178 264 1178 243 1168 c 128,-1,13
 222 1158 222 1158 206.5 1142 c 128,-1,14
 191 1126 191 1126 182.5 1105 c 128,-1,15
 174 1084 174 1084 174 1060 c 2,16,-1
 174 1003 l 2,17,18
 174 978 174 978 165 956.5 c 128,-1,19
 156 935 156 935 139.5 919.5 c 128,-1,20
 123 904 123 904 101 895 c 128,-1,21
 79 886 79 886 54 886 c 0,22,23
 30 886 30 886 8.5 895 c 128,-1,24
 -13 904 -13 904 -28.5 919.5 c 128,-1,25
 -44 935 -44 935 -53.5 956.5 c 128,-1,26
 -63 978 -63 978 -63 1003 c 2,27,-1
 -63 1063 l 2,28,29
 -63 1124 -63 1124 -39.5 1178 c 128,-1,30
 -16 1232 -16 1232 24.5 1272 c 128,-1,31
 65 1312 65 1312 118.5 1335.5 c 128,-1,32
 172 1359 172 1359 233 1359 c 2,33,-1
 451 1359 l 2,34,35
 480 1359 480 1359 505 1345.5 c 128,-1,36
 530 1332 530 1332 546 1310 c 0,37,38
 551 1302 551 1302 556.5 1294 c 128,-1,39
 562 1286 562 1286 576 1286 c 0,40,41
 588 1286 588 1286 596.5 1294 c 128,-1,42
 605 1302 605 1302 614 1311 c 0,43,44
 641 1337 641 1337 681 1358 c 128,-1,45
 721 1379 721 1379 782 1379 c 0,46,47
 836 1379 836 1379 884 1355.5 c 128,-1,48
 932 1332 932 1332 967.5 1292 c 128,-1,49
 1003 1252 1003 1252 1023.5 1198 c 128,-1,50
 1044 1144 1044 1144 1044 1083 c 2,51,-1
 1045 98 l 2,52,53
 1045 74 1045 74 1036 52.5 c 128,-1,54
 1027 31 1027 31 1011 15.5 c 128,-1,55
 995 0 995 0 973.5 -9.5 c 128,-1,56
 952 -19 952 -19 928 -19 c 0,57,58
 903 -19 903 -19 881 -9.5 c 128,-1,59
 859 0 859 0 843 15.5 c 128,-1,60
 827 31 827 31 817.5 52.5 c 128,-1,61
 808 74 808 74 808 98 c 2,62,-1
 807 1080 l 2,63,64
 807 1105 807 1105 798 1126.5 c 128,-1,65
 789 1148 789 1148 773 1164 c 128,-1,66
 757 1180 757 1180 735.5 1189.5 c 128,-1,67
 714 1199 714 1199 690 1199 c 256,68,69
 666 1199 666 1199 644.5 1190.5 c 128,-1,70
 623 1182 623 1182 606 1167 c 128,-1,71
 589 1152 589 1152 579 1131.5 c 128,-1,72
 569 1111 569 1111 569 1087 c 2,73,-1
 569 296 l 2,74,75
 569 235 569 235 546 181 c 128,-1,76
 523 127 523 127 483 87 c 128,-1,77
 443 47 443 47 389 23.5 c 128,-1,78
 335 0 335 0 274 0 c 2,79,-1
 188 0 l 2,80,81
 150 0 150 0 124 26 c 128,-1,82
 98 52 98 52 98 90 c 0,0,1
EndSplineSet
EndChar

StartChar: O
Encoding: 79 79 44
Width: 1022
Flags: W
LayerCount: 2
Fore
SplineSet
156 600 m 2,0,1
 156 625 156 625 165.5 646.5 c 128,-1,2
 175 668 175 668 191 684 c 128,-1,3
 207 700 207 700 229 709 c 128,-1,4
 251 718 251 718 276 718 c 0,5,6
 300 718 300 718 321.5 709 c 128,-1,7
 343 700 343 700 359 684 c 128,-1,8
 375 668 375 668 384 646.5 c 128,-1,9
 393 625 393 625 393 600 c 2,10,-1
 393 268 l 2,11,12
 393 217 393 217 426.5 189.5 c 128,-1,13
 460 162 460 162 511 162 c 256,14,15
 562 162 562 162 595.5 189.5 c 128,-1,16
 629 217 629 217 629 268 c 2,17,-1
 629 1080 l 2,18,19
 629 1105 629 1105 620 1127 c 128,-1,20
 611 1149 611 1149 594.5 1165 c 128,-1,21
 578 1181 578 1181 554.5 1190 c 128,-1,22
 531 1199 531 1199 503 1199 c 0,23,24
 471 1199 471 1199 445 1189.5 c 128,-1,25
 419 1180 419 1180 401 1164 c 128,-1,26
 383 1148 383 1148 373 1126.5 c 128,-1,27
 363 1105 363 1105 363 1080 c 0,28,29
 363 1049 363 1049 376 1027.5 c 128,-1,30
 389 1006 389 1006 405 986.5 c 128,-1,31
 421 967 421 967 434 945.5 c 128,-1,32
 447 924 447 924 447 893 c 0,33,34
 447 842 447 842 413.5 809 c 128,-1,35
 380 776 380 776 329 776 c 0,36,37
 287 776 287 776 253.5 799 c 128,-1,38
 220 822 220 822 196 862.5 c 128,-1,39
 172 903 172 903 159 959.5 c 128,-1,40
 146 1016 146 1016 146 1084 c 0,41,42
 146 1151 146 1151 170.5 1205.5 c 128,-1,43
 195 1260 195 1260 241.5 1298.5 c 128,-1,44
 288 1337 288 1337 356 1358 c 128,-1,45
 424 1379 424 1379 511 1379 c 0,46,47
 596 1379 596 1379 662 1358 c 128,-1,48
 728 1337 728 1337 773.5 1298.5 c 128,-1,49
 819 1260 819 1260 842.5 1206 c 128,-1,50
 866 1152 866 1152 866 1085 c 2,51,-1
 866 277 l 2,52,53
 866 208 866 208 842 153.5 c 128,-1,54
 818 99 818 99 772.5 60.5 c 128,-1,55
 727 22 727 22 661 1.5 c 128,-1,56
 595 -19 595 -19 511 -19 c 0,57,58
 426 -19 426 -19 360 1.5 c 128,-1,59
 294 22 294 22 248.5 60 c 128,-1,60
 203 98 203 98 179.5 152 c 128,-1,61
 156 206 156 206 156 274 c 2,62,-1
 156 600 l 2,0,1
EndSplineSet
EndChar

StartChar: P
Encoding: 80 80 45
Width: 1120
Flags: W
LayerCount: 2
Fore
SplineSet
333 956 m 2,0,1
 333 1014 333 1014 354 1050 c 128,-1,2
 375 1086 375 1086 401 1113 c 0,3,4
 410 1123 410 1123 418.5 1131 c 128,-1,5
 427 1139 427 1139 427 1149 c 0,6,7
 427 1158 427 1158 420.5 1168.5 c 128,-1,8
 414 1179 414 1179 395 1179 c 2,9,-1
 282 1179 l 2,10,11
 259 1179 259 1179 239.5 1169 c 128,-1,12
 220 1159 220 1159 205.5 1142.5 c 128,-1,13
 191 1126 191 1126 182.5 1104.5 c 128,-1,14
 174 1083 174 1083 174 1060 c 2,15,-1
 174 1003 l 2,16,17
 174 978 174 978 165 956.5 c 128,-1,18
 156 935 156 935 139.5 919.5 c 128,-1,19
 123 904 123 904 101 895 c 128,-1,20
 79 886 79 886 54 886 c 0,21,22
 30 886 30 886 8.5 895 c 128,-1,23
 -13 904 -13 904 -28.5 919.5 c 128,-1,24
 -44 935 -44 935 -53.5 956.5 c 128,-1,25
 -63 978 -63 978 -63 1003 c 2,26,-1
 -63 1063 l 2,27,28
 -63 1124 -63 1124 -39.5 1178 c 128,-1,29
 -16 1232 -16 1232 24 1272 c 128,-1,30
 64 1312 64 1312 118 1335.5 c 128,-1,31
 172 1359 172 1359 233 1359 c 2,32,-1
 756 1359 l 2,33,34
 817 1359 817 1359 870 1335.5 c 128,-1,35
 923 1312 923 1312 962 1272 c 128,-1,36
 1001 1232 1001 1232 1023 1178 c 128,-1,37
 1045 1124 1045 1124 1045 1063 c 2,38,-1
 1045 770 l 2,39,40
 1045 708 1045 708 1022 654 c 128,-1,41
 999 600 999 600 959 560 c 128,-1,42
 919 520 919 520 865 497 c 128,-1,43
 811 474 811 474 750 474 c 2,44,-1
 570 474 l 1,45,-1
 570 98 l 2,46,47
 570 74 570 74 561 52.5 c 128,-1,48
 552 31 552 31 536 15.5 c 128,-1,49
 520 0 520 0 498.5 -9.5 c 128,-1,50
 477 -19 477 -19 452 -19 c 0,51,52
 428 -19 428 -19 406 -9.5 c 128,-1,53
 384 0 384 0 368 15.5 c 128,-1,54
 352 31 352 31 342.5 52.5 c 128,-1,55
 333 74 333 74 333 98 c 2,56,-1
 333 956 l 2,0,1
692 652 m 2,57,58
 716 652 716 652 737.5 661.5 c 128,-1,59
 759 671 759 671 774.5 687 c 128,-1,60
 790 703 790 703 799.5 725 c 128,-1,61
 809 747 809 747 809 772 c 2,62,-1
 809 1060 l 2,63,64
 809 1085 809 1085 799.5 1106.5 c 128,-1,65
 790 1128 790 1128 774.5 1144 c 128,-1,66
 759 1160 759 1160 738 1169.5 c 128,-1,67
 717 1179 717 1179 693 1179 c 0,68,69
 666 1179 666 1179 643.5 1169.5 c 128,-1,70
 621 1160 621 1160 604.5 1144 c 128,-1,71
 588 1128 588 1128 579 1106.5 c 128,-1,72
 570 1085 570 1085 570 1061 c 2,73,-1
 570 652 l 1,74,-1
 692 652 l 2,57,58
EndSplineSet
EndChar

StartChar: Q
Encoding: 81 81 46
Width: 1022
Flags: W
LayerCount: 2
Fore
SplineSet
162 90 m 0,0,1
 162 109 162 109 169 125.5 c 128,-1,2
 176 142 176 142 188 154.5 c 128,-1,3
 200 167 200 167 216 174 c 128,-1,4
 232 181 232 181 250 181 c 2,5,-1
 511 181 l 2,6,7
 559 181 559 181 594 207 c 128,-1,8
 629 233 629 233 629 282 c 2,9,-1
 629 1080 l 2,10,11
 629 1105 629 1105 620 1126.5 c 128,-1,12
 611 1148 611 1148 595 1164 c 128,-1,13
 579 1180 579 1180 557.5 1189.5 c 128,-1,14
 536 1199 536 1199 511 1199 c 0,15,16
 484 1199 484 1199 460.5 1189.5 c 128,-1,17
 437 1180 437 1180 419.5 1164 c 128,-1,18
 402 1148 402 1148 392.5 1126.5 c 128,-1,19
 383 1105 383 1105 383 1080 c 2,20,-1
 383 668 l 2,21,22
 383 637 383 637 396 615.5 c 128,-1,23
 409 594 409 594 425 574.5 c 128,-1,24
 441 555 441 555 454 533.5 c 128,-1,25
 467 512 467 512 467 481 c 0,26,27
 467 430 467 430 433.5 397 c 128,-1,28
 400 364 400 364 349 364 c 0,29,30
 261 364 261 364 208.5 443 c 128,-1,31
 156 522 156 522 156 672 c 2,32,-1
 156 1085 l 2,33,34
 156 1152 156 1152 179.5 1206 c 128,-1,35
 203 1260 203 1260 248.5 1298.5 c 128,-1,36
 294 1337 294 1337 360 1358 c 128,-1,37
 426 1379 426 1379 511 1379 c 0,38,39
 595 1379 595 1379 661 1358 c 128,-1,40
 727 1337 727 1337 772.5 1298.5 c 128,-1,41
 818 1260 818 1260 842 1205 c 128,-1,42
 866 1150 866 1150 866 1083 c 2,43,-1
 866 403 l 2,44,45
 866 347 866 347 845.5 310.5 c 128,-1,46
 825 274 825 274 798 247 c 0,47,48
 790 239 790 239 781.5 230.5 c 128,-1,49
 773 222 773 222 773 211 c 0,50,51
 773 202 773 202 779 191.5 c 128,-1,52
 785 181 785 181 802 181 c 2,53,-1
 866 181 l 2,54,55
 884 181 884 181 900.5 174 c 128,-1,56
 917 167 917 167 929 154.5 c 128,-1,57
 941 142 941 142 948.5 125.5 c 128,-1,58
 956 109 956 109 956 90 c 256,59,60
 956 71 956 71 948.5 54.5 c 128,-1,61
 941 38 941 38 929 26 c 128,-1,62
 917 14 917 14 900.5 7 c 128,-1,63
 884 0 884 0 866 0 c 2,64,-1
 250 0 l 2,65,66
 232 0 232 0 216 7.5 c 128,-1,67
 200 15 200 15 188 27 c 128,-1,68
 176 39 176 39 169 55.5 c 128,-1,69
 162 72 162 72 162 90 c 0,0,1
EndSplineSet
EndChar

StartChar: R
Encoding: 82 82 47
Width: 1197
Flags: W
LayerCount: 2
Fore
SplineSet
333 956 m 2,0,1
 333 1014 333 1014 353.5 1050.5 c 128,-1,2
 374 1087 374 1087 401 1113 c 0,3,4
 410 1122 410 1122 418.5 1131 c 128,-1,5
 427 1140 427 1140 427 1149 c 256,6,7
 427 1158 427 1158 420.5 1168.5 c 128,-1,8
 414 1179 414 1179 395 1179 c 2,9,-1
 282 1179 l 2,10,11
 259 1179 259 1179 239.5 1169 c 128,-1,12
 220 1159 220 1159 205.5 1142.5 c 128,-1,13
 191 1126 191 1126 182.5 1104.5 c 128,-1,14
 174 1083 174 1083 174 1060 c 2,15,-1
 174 1003 l 2,16,17
 174 978 174 978 165 956.5 c 128,-1,18
 156 935 156 935 139.5 919.5 c 128,-1,19
 123 904 123 904 101 895 c 128,-1,20
 79 886 79 886 54 886 c 0,21,22
 30 886 30 886 8.5 895 c 128,-1,23
 -13 904 -13 904 -28.5 919.5 c 128,-1,24
 -44 935 -44 935 -53.5 956.5 c 128,-1,25
 -63 978 -63 978 -63 1003 c 2,26,-1
 -63 1063 l 2,27,28
 -63 1124 -63 1124 -39.5 1178 c 128,-1,29
 -16 1232 -16 1232 24 1272 c 128,-1,30
 64 1312 64 1312 118 1335.5 c 128,-1,31
 172 1359 172 1359 233 1359 c 2,32,-1
 752 1359 l 2,33,34
 813 1359 813 1359 865.5 1335.5 c 128,-1,35
 918 1312 918 1312 957 1272 c 128,-1,36
 996 1232 996 1232 1018.5 1178 c 128,-1,37
 1041 1124 1041 1124 1041 1063 c 2,38,-1
 1042 886 l 2,39,40
 1043 792 1043 792 1005 731.5 c 128,-1,41
 967 671 967 671 895 634 c 1,42,43
 967 606 967 606 1005 552.5 c 128,-1,44
 1043 499 1043 499 1043 414 c 2,45,-1
 1043 385 l 2,46,47
 1043 295 1043 295 1056 228 c 128,-1,48
 1069 161 1069 161 1092.5 108.5 c 128,-1,49
 1116 56 1116 56 1148 14 c 128,-1,50
 1180 -28 1180 -28 1219 -68 c 0,51,52
 1237 -87 1237 -87 1245 -107 c 128,-1,53
 1253 -127 1253 -127 1253 -147 c 256,54,55
 1253 -167 1253 -167 1245 -185.5 c 128,-1,56
 1237 -204 1237 -204 1223.5 -218 c 128,-1,57
 1210 -232 1210 -232 1191.5 -240 c 128,-1,58
 1173 -248 1173 -248 1152 -248 c 256,59,60
 1131 -248 1131 -248 1097 -232.5 c 128,-1,61
 1063 -217 1063 -217 1024.5 -183 c 128,-1,62
 986 -149 986 -149 947 -96 c 128,-1,63
 908 -43 908 -43 876.5 32 c 128,-1,64
 845 107 845 107 825 204.5 c 128,-1,65
 805 302 805 302 805 425 c 0,66,67
 805 450 805 450 795.5 472 c 128,-1,68
 786 494 786 494 770.5 510 c 128,-1,69
 755 526 755 526 733.5 535 c 128,-1,70
 712 544 712 544 688 544 c 2,71,-1
 570 544 l 1,72,-1
 570 98 l 2,73,74
 570 74 570 74 561 52.5 c 128,-1,75
 552 31 552 31 536 15.5 c 128,-1,76
 520 0 520 0 498.5 -9.5 c 128,-1,77
 477 -19 477 -19 452 -19 c 0,78,79
 428 -19 428 -19 406 -9.5 c 128,-1,80
 384 0 384 0 368 15.5 c 128,-1,81
 352 31 352 31 342.5 52.5 c 128,-1,82
 333 74 333 74 333 98 c 2,83,-1
 333 956 l 2,0,1
687 724 m 2,84,85
 712 724 712 724 733.5 733.5 c 128,-1,86
 755 743 755 743 771 759 c 128,-1,87
 787 775 787 775 796 797 c 128,-1,88
 805 819 805 819 805 844 c 2,89,-1
 805 1060 l 2,90,91
 805 1085 805 1085 795.5 1106.5 c 128,-1,92
 786 1128 786 1128 770.5 1144 c 128,-1,93
 755 1160 755 1160 734 1169.5 c 128,-1,94
 713 1179 713 1179 689 1179 c 0,95,96
 662 1179 662 1179 640 1169.5 c 128,-1,97
 618 1160 618 1160 602.5 1144 c 128,-1,98
 587 1128 587 1128 578.5 1106.5 c 128,-1,99
 570 1085 570 1085 570 1061 c 2,100,-1
 570 724 l 1,101,-1
 687 724 l 2,84,85
EndSplineSet
EndChar

StartChar: S
Encoding: 83 83 48
Width: 987
Flags: W
LayerCount: 2
Fore
SplineSet
252 90 m 0,0,1
 252 108 252 108 259.5 124.5 c 128,-1,2
 267 141 267 141 279.5 153.5 c 128,-1,3
 292 166 292 166 308.5 173.5 c 128,-1,4
 325 181 325 181 343 181 c 2,5,-1
 427 181 l 2,6,7
 488 181 488 181 525 212.5 c 128,-1,8
 562 244 562 244 562 295 c 0,9,10
 562 330 562 330 546 358.5 c 128,-1,11
 530 387 530 387 499 415 c 1,12,-1
 328 555 l 2,13,14
 270 602 270 602 227.5 646.5 c 128,-1,15
 185 691 185 691 156.5 741 c 128,-1,16
 128 791 128 791 114 852.5 c 128,-1,17
 100 914 100 914 100 995 c 0,18,19
 100 1086 100 1086 125.5 1157.5 c 128,-1,20
 151 1229 151 1229 199 1278.5 c 128,-1,21
 247 1328 247 1328 315.5 1353.5 c 128,-1,22
 384 1379 384 1379 470 1379 c 0,23,24
 551 1379 551 1379 616 1358 c 128,-1,25
 681 1337 681 1337 726 1297.5 c 128,-1,26
 771 1258 771 1258 795 1201.5 c 128,-1,27
 819 1145 819 1145 819 1074 c 0,28,29
 819 1015 819 1015 806 964 c 128,-1,30
 793 913 793 913 769 875.5 c 128,-1,31
 745 838 745 838 711.5 817 c 128,-1,32
 678 796 678 796 636 796 c 0,33,34
 585 796 585 796 551.5 829 c 128,-1,35
 518 862 518 862 518 913 c 0,36,37
 518 941 518 941 531 960 c 128,-1,38
 544 979 544 979 560 996 c 128,-1,39
 576 1013 576 1013 589 1032 c 128,-1,40
 602 1051 602 1051 602 1080 c 0,41,42
 602 1105 602 1105 592.5 1126.5 c 128,-1,43
 583 1148 583 1148 565.5 1164 c 128,-1,44
 548 1180 548 1180 524 1189.5 c 128,-1,45
 500 1199 500 1199 471 1199 c 0,46,47
 439 1199 439 1199 412.5 1186 c 128,-1,48
 386 1173 386 1173 366 1149 c 128,-1,49
 346 1125 346 1125 335 1090.5 c 128,-1,50
 324 1056 324 1056 324 1013 c 0,51,52
 324 975 324 975 332.5 939 c 128,-1,53
 341 903 341 903 356 871.5 c 128,-1,54
 371 840 371 840 391 814 c 128,-1,55
 411 788 411 788 434 770 c 2,56,-1
 661 588 l 1,57,58
 733 528 733 528 766.5 462.5 c 128,-1,59
 800 397 800 397 800 312 c 0,60,61
 800 244 800 244 773.5 187 c 128,-1,62
 747 130 747 130 703 88.5 c 128,-1,63
 659 47 659 47 602 23.5 c 128,-1,64
 545 0 545 0 484 0 c 2,65,-1
 343 0 l 2,66,67
 325 0 325 0 308.5 7 c 128,-1,68
 292 14 292 14 279.5 26 c 128,-1,69
 267 38 267 38 259.5 54.5 c 128,-1,70
 252 71 252 71 252 90 c 0,0,1
EndSplineSet
EndChar

StartChar: T
Encoding: 84 84 49
Width: 878
Flags: W
LayerCount: 2
Fore
SplineSet
235 90 m 0,0,1
 235 108 235 108 242 124.5 c 128,-1,2
 249 141 249 141 261 153.5 c 128,-1,3
 273 166 273 166 289.5 173.5 c 128,-1,4
 306 181 306 181 325 181 c 2,5,-1
 382 181 l 2,6,7
 433 181 433 181 466.5 214 c 128,-1,8
 500 247 500 247 500 298 c 2,9,-1
 500 956 l 2,10,11
 500 1014 500 1014 521 1050 c 128,-1,12
 542 1086 542 1086 568 1113 c 0,13,14
 577 1123 577 1123 585.5 1131 c 128,-1,15
 594 1139 594 1139 594 1149 c 0,16,17
 594 1158 594 1158 587.5 1168.5 c 128,-1,18
 581 1179 581 1179 562 1179 c 2,19,-1
 344 1179 l 2,20,21
 321 1179 321 1179 301.5 1169 c 128,-1,22
 282 1159 282 1159 267.5 1142.5 c 128,-1,23
 253 1126 253 1126 244.5 1104.5 c 128,-1,24
 236 1083 236 1083 236 1060 c 2,25,-1
 236 1003 l 2,26,27
 236 978 236 978 227 956.5 c 128,-1,28
 218 935 218 935 201.5 919.5 c 128,-1,29
 185 904 185 904 163 895 c 128,-1,30
 141 886 141 886 116 886 c 0,31,32
 92 886 92 886 70.5 895 c 128,-1,33
 49 904 49 904 33.5 919.5 c 128,-1,34
 18 935 18 935 8.5 956.5 c 128,-1,35
 -1 978 -1 978 -1 1003 c 2,36,-1
 -1 1063 l 2,37,38
 -1 1124 -1 1124 22.5 1178 c 128,-1,39
 46 1232 46 1232 86 1272 c 128,-1,40
 126 1312 126 1312 180 1335.5 c 128,-1,41
 234 1359 234 1359 295 1359 c 2,42,-1
 846 1359 l 2,43,44
 865 1359 865 1359 881.5 1352 c 128,-1,45
 898 1345 898 1345 910 1332.5 c 128,-1,46
 922 1320 922 1320 928.5 1303.5 c 128,-1,47
 935 1287 935 1287 935 1269 c 0,48,49
 935 1250 935 1250 928 1233.5 c 128,-1,50
 921 1217 921 1217 909 1205 c 128,-1,51
 897 1193 897 1193 881 1186 c 128,-1,52
 865 1179 865 1179 846 1179 c 0,53,54
 823 1179 823 1179 803 1169.5 c 128,-1,55
 783 1160 783 1160 768 1144 c 128,-1,56
 753 1128 753 1128 744.5 1106.5 c 128,-1,57
 736 1085 736 1085 736 1061 c 2,58,-1
 736 296 l 2,59,60
 736 235 736 235 713 181 c 128,-1,61
 690 127 690 127 650 87 c 128,-1,62
 610 47 610 47 556 23.5 c 128,-1,63
 502 0 502 0 441 0 c 2,64,-1
 325 0 l 2,65,66
 287 0 287 0 261 26 c 128,-1,67
 235 52 235 52 235 90 c 0,0,1
EndSplineSet
EndChar

StartChar: U
Encoding: 85 85 50
Width: 1362
Flags: W
LayerCount: 2
Fore
SplineSet
461 1179 m 1,0,-1
 415 1179 l 2,1,2
 391 1179 391 1179 370 1169.5 c 128,-1,3
 349 1160 349 1160 333.5 1143.5 c 128,-1,4
 318 1127 318 1127 309.5 1105.5 c 128,-1,5
 301 1084 301 1084 301 1060 c 2,6,-1
 301 1003 l 2,7,8
 301 978 301 978 292 956.5 c 128,-1,9
 283 935 283 935 266.5 919.5 c 128,-1,10
 250 904 250 904 228 895 c 128,-1,11
 206 886 206 886 181 886 c 0,12,13
 157 886 157 886 135.5 895 c 128,-1,14
 114 904 114 904 98 919.5 c 128,-1,15
 82 935 82 935 73 956.5 c 128,-1,16
 64 978 64 978 64 1003 c 2,17,-1
 64 1063 l 2,18,19
 64 1124 64 1124 87.5 1178 c 128,-1,20
 111 1232 111 1232 151 1272 c 128,-1,21
 191 1312 191 1312 245 1335.5 c 128,-1,22
 299 1359 299 1359 360 1359 c 2,23,-1
 578 1359 l 2,24,25
 603 1359 603 1359 625 1349.5 c 128,-1,26
 647 1340 647 1340 663 1324.5 c 128,-1,27
 679 1309 679 1309 688.5 1287.5 c 128,-1,28
 698 1266 698 1266 698 1242 c 2,29,-1
 698 280 l 2,30,31
 698 255 698 255 707 233.5 c 128,-1,32
 716 212 716 212 732 196 c 128,-1,33
 748 180 748 180 769.5 170.5 c 128,-1,34
 791 161 791 161 815 161 c 256,35,36
 839 161 839 161 860.5 168.5 c 128,-1,37
 882 176 882 176 898.5 189.5 c 128,-1,38
 915 203 915 203 925 223 c 128,-1,39
 935 243 935 243 935 268 c 2,40,-1
 935 1262 l 2,41,42
 935 1286 935 1286 944.5 1307.5 c 128,-1,43
 954 1329 954 1329 970 1344.5 c 128,-1,44
 986 1360 986 1360 1007.5 1369.5 c 128,-1,45
 1029 1379 1029 1379 1054 1379 c 0,46,47
 1078 1379 1078 1379 1099.5 1369.5 c 128,-1,48
 1121 1360 1121 1360 1137 1344.5 c 128,-1,49
 1153 1329 1153 1329 1162.5 1307.5 c 128,-1,50
 1172 1286 1172 1286 1172 1262 c 2,51,-1
 1172 101 l 2,52,53
 1172 75 1172 75 1162.5 53.5 c 128,-1,54
 1153 32 1153 32 1137 15.5 c 128,-1,55
 1121 -1 1121 -1 1099.5 -10 c 128,-1,56
 1078 -19 1078 -19 1054 -19 c 0,57,58
 1027 -19 1027 -19 1008 -11 c 128,-1,59
 989 -3 989 -3 976 8.5 c 128,-1,60
 963 20 963 20 956 31.5 c 128,-1,61
 949 43 949 43 946 49 c 0,62,63
 942 57 942 57 936.5 65.5 c 128,-1,64
 931 74 931 74 918 74 c 0,65,66
 906 74 906 74 897.5 66 c 128,-1,67
 889 58 889 58 880 49 c 0,68,69
 866 36 866 36 850.5 23.5 c 128,-1,70
 835 11 835 11 816 1.5 c 128,-1,71
 797 -8 797 -8 774 -13.5 c 128,-1,72
 751 -19 751 -19 723 -19 c 0,73,74
 669 -19 669 -19 621 4.5 c 128,-1,75
 573 28 573 28 537.5 68 c 128,-1,76
 502 108 502 108 481.5 162 c 128,-1,77
 461 216 461 216 461 277 c 2,78,-1
 461 1179 l 1,0,-1
EndSplineSet
EndChar

StartChar: V
Encoding: 86 86 51
Width: 1172
Flags: W
LayerCount: 2
Fore
SplineSet
342 1179 m 1,0,-1
 287 1179 l 2,1,2
 263 1179 263 1179 242 1169.5 c 128,-1,3
 221 1160 221 1160 205.5 1143.5 c 128,-1,4
 190 1127 190 1127 181.5 1105.5 c 128,-1,5
 173 1084 173 1084 173 1060 c 2,6,-1
 173 1003 l 2,7,8
 173 978 173 978 164 956.5 c 128,-1,9
 155 935 155 935 138.5 919.5 c 128,-1,10
 122 904 122 904 100 895 c 128,-1,11
 78 886 78 886 53 886 c 0,12,13
 29 886 29 886 7.5 895 c 128,-1,14
 -14 904 -14 904 -29.5 919.5 c 128,-1,15
 -45 935 -45 935 -54.5 956.5 c 128,-1,16
 -64 978 -64 978 -64 1003 c 2,17,-1
 -64 1063 l 2,18,19
 -64 1124 -64 1124 -40.5 1178 c 128,-1,20
 -17 1232 -17 1232 23.5 1272 c 128,-1,21
 64 1312 64 1312 117.5 1335.5 c 128,-1,22
 171 1359 171 1359 232 1359 c 2,23,-1
 440 1359 l 2,24,25
 461 1359 461 1359 481.5 1353 c 128,-1,26
 502 1347 502 1347 519 1335.5 c 128,-1,27
 536 1324 536 1324 548 1307 c 128,-1,28
 560 1290 560 1290 565 1268 c 2,29,-1
 662 803 l 2,30,31
 669 768 669 768 680.5 715.5 c 128,-1,32
 692 663 692 663 704 598.5 c 128,-1,33
 716 534 716 534 727.5 460.5 c 128,-1,34
 739 387 739 387 747 311 c 1,35,36
 754 387 754 387 764.5 460 c 128,-1,37
 775 533 775 533 786.5 596.5 c 128,-1,38
 798 660 798 660 808.5 712 c 128,-1,39
 819 764 819 764 827 800 c 2,40,-1
 928 1268 l 2,41,42
 932 1285 932 1285 943 1301.5 c 128,-1,43
 954 1318 954 1318 970.5 1330.5 c 128,-1,44
 987 1343 987 1343 1007 1351 c 128,-1,45
 1027 1359 1027 1359 1048 1359 c 0,46,47
 1074 1359 1074 1359 1095 1349 c 128,-1,48
 1116 1339 1116 1339 1130.5 1322 c 128,-1,49
 1145 1305 1145 1305 1153 1283.5 c 128,-1,50
 1161 1262 1161 1262 1161 1240 c 0,51,52
 1161 1232 1161 1232 1160 1224 c 128,-1,53
 1159 1216 1159 1216 1157 1208 c 2,54,-1
 871 78 l 2,55,56
 860 36 860 36 827.5 8.5 c 128,-1,57
 795 -19 795 -19 747 -19 c 0,58,59
 724 -19 724 -19 703.5 -11 c 128,-1,60
 683 -3 683 -3 666.5 10.5 c 128,-1,61
 650 24 650 24 638 42.5 c 128,-1,62
 626 61 626 61 621 81 c 2,63,-1
 342 1179 l 1,0,-1
EndSplineSet
EndChar

StartChar: W
Encoding: 87 87 52
Width: 1672
Flags: W
LayerCount: 2
Fore
SplineSet
333 1179 m 1,0,-1
 290 1179 l 2,1,2
 266 1179 266 1179 245 1169.5 c 128,-1,3
 224 1160 224 1160 208.5 1143.5 c 128,-1,4
 193 1127 193 1127 184.5 1105.5 c 128,-1,5
 176 1084 176 1084 176 1060 c 2,6,-1
 176 1003 l 2,7,8
 176 978 176 978 167 956.5 c 128,-1,9
 158 935 158 935 141.5 919.5 c 128,-1,10
 125 904 125 904 103 895 c 128,-1,11
 81 886 81 886 56 886 c 0,12,13
 32 886 32 886 10.5 895 c 128,-1,14
 -11 904 -11 904 -26.5 919.5 c 128,-1,15
 -42 935 -42 935 -51.5 956.5 c 128,-1,16
 -61 978 -61 978 -61 1003 c 2,17,-1
 -61 1063 l 2,18,19
 -61 1124 -61 1124 -37.5 1178 c 128,-1,20
 -14 1232 -14 1232 26.5 1272 c 128,-1,21
 67 1312 67 1312 120.5 1335.5 c 128,-1,22
 174 1359 174 1359 235 1359 c 2,23,-1
 453 1359 l 2,24,25
 477 1359 477 1359 498.5 1350 c 128,-1,26
 520 1341 520 1341 536 1324.5 c 128,-1,27
 552 1308 552 1308 561 1286 c 128,-1,28
 570 1264 570 1264 570 1239 c 2,29,-1
 570 268 l 2,30,31
 570 217 570 217 603.5 189.5 c 128,-1,32
 637 162 637 162 688 162 c 0,33,34
 736 162 736 162 771 188.5 c 128,-1,35
 806 215 806 215 806 268 c 2,36,-1
 806 1259 l 2,37,38
 806 1284 806 1284 815.5 1306 c 128,-1,39
 825 1328 825 1328 841 1344.5 c 128,-1,40
 857 1361 857 1361 879 1370 c 128,-1,41
 901 1379 901 1379 926 1379 c 0,42,43
 950 1379 950 1379 971.5 1370 c 128,-1,44
 993 1361 993 1361 1009 1344.5 c 128,-1,45
 1025 1328 1025 1328 1034 1306 c 128,-1,46
 1043 1284 1043 1284 1043 1259 c 2,47,-1
 1043 268 l 2,48,49
 1043 214 1043 214 1076.5 188 c 128,-1,50
 1110 162 1110 162 1161 162 c 256,51,52
 1212 162 1212 162 1245.5 189.5 c 128,-1,53
 1279 217 1279 217 1279 268 c 2,54,-1
 1280 1259 l 2,55,56
 1280 1284 1280 1284 1289.5 1306 c 128,-1,57
 1299 1328 1299 1328 1315 1344.5 c 128,-1,58
 1331 1361 1331 1361 1353 1370 c 128,-1,59
 1375 1379 1375 1379 1400 1379 c 0,60,61
 1424 1379 1424 1379 1445.5 1370 c 128,-1,62
 1467 1361 1467 1361 1483 1344.5 c 128,-1,63
 1499 1328 1499 1328 1508 1306 c 128,-1,64
 1517 1284 1517 1284 1517 1259 c 2,65,-1
 1516 274 l 2,66,67
 1516 206 1516 206 1491.5 152 c 128,-1,68
 1467 98 1467 98 1423.5 60 c 128,-1,69
 1380 22 1380 22 1320.5 1.5 c 128,-1,70
 1261 -19 1261 -19 1191 -19 c 0,71,72
 1105 -19 1105 -19 1047.5 6 c 128,-1,73
 990 31 990 31 948 81 c 0,74,75
 937 93 937 93 926 93 c 0,76,77
 912 93 912 93 902 81 c 0,78,79
 860 31 860 31 802.5 6 c 128,-1,80
 745 -19 745 -19 658 -19 c 0,81,82
 589 -19 589 -19 529.5 1.5 c 128,-1,83
 470 22 470 22 426.5 60.5 c 128,-1,84
 383 99 383 99 358 153.5 c 128,-1,85
 333 208 333 208 333 277 c 2,86,-1
 333 1179 l 1,0,-1
EndSplineSet
EndChar

StartChar: X
Encoding: 88 88 53
Width: 1199
Flags: W
LayerCount: 2
Fore
SplineSet
333 484 m 2,0,1
 333 569 333 569 371 622 c 128,-1,2
 409 675 409 675 481 704 c 1,3,4
 448 722 448 722 420.5 744 c 128,-1,5
 393 766 393 766 373.5 796 c 128,-1,6
 354 826 354 826 343.5 865 c 128,-1,7
 333 904 333 904 333 956 c 2,8,-1
 333 1179 l 1,9,-1
 287 1179 l 2,10,11
 263 1179 263 1179 242 1169.5 c 128,-1,12
 221 1160 221 1160 205.5 1143.5 c 128,-1,13
 190 1127 190 1127 181.5 1105.5 c 128,-1,14
 173 1084 173 1084 173 1060 c 2,15,-1
 173 1003 l 2,16,17
 173 978 173 978 164 956.5 c 128,-1,18
 155 935 155 935 138.5 919.5 c 128,-1,19
 122 904 122 904 100 895 c 128,-1,20
 78 886 78 886 53 886 c 0,21,22
 29 886 29 886 7.5 895 c 128,-1,23
 -14 904 -14 904 -29.5 919.5 c 128,-1,24
 -45 935 -45 935 -54.5 956.5 c 128,-1,25
 -64 978 -64 978 -64 1003 c 2,26,-1
 -64 1063 l 2,27,28
 -64 1124 -64 1124 -40.5 1178 c 128,-1,29
 -17 1232 -17 1232 23.5 1272 c 128,-1,30
 64 1312 64 1312 117.5 1335.5 c 128,-1,31
 171 1359 171 1359 232 1359 c 2,32,-1
 450 1359 l 2,33,34
 475 1359 475 1359 497 1349.5 c 128,-1,35
 519 1340 519 1340 535 1324 c 128,-1,36
 551 1308 551 1308 560 1286 c 128,-1,37
 569 1264 569 1264 569 1239 c 2,38,-1
 569 912 l 2,39,40
 569 887 569 887 578 865.5 c 128,-1,41
 587 844 587 844 603 828 c 128,-1,42
 619 812 619 812 641.5 803 c 128,-1,43
 664 794 664 794 691 794 c 0,44,45
 715 794 715 794 736 803 c 128,-1,46
 757 812 757 812 772.5 828 c 128,-1,47
 788 844 788 844 797.5 865.5 c 128,-1,48
 807 887 807 887 807 912 c 2,49,-1
 807 1259 l 2,50,51
 807 1284 807 1284 816 1306 c 128,-1,52
 825 1328 825 1328 841 1344 c 128,-1,53
 857 1360 857 1360 878.5 1369.5 c 128,-1,54
 900 1379 900 1379 926 1379 c 0,55,56
 951 1379 951 1379 972 1369.5 c 128,-1,57
 993 1360 993 1360 1009 1344 c 128,-1,58
 1025 1328 1025 1328 1034 1306 c 128,-1,59
 1043 1284 1043 1284 1043 1259 c 2,60,-1
 1043 956 l 2,61,62
 1043 904 1043 904 1032 865 c 128,-1,63
 1021 826 1021 826 1001.5 796 c 128,-1,64
 982 766 982 766 955 744 c 128,-1,65
 928 722 928 722 895 704 c 1,66,67
 967 675 967 675 1005 622 c 128,-1,68
 1043 569 1043 569 1043 484 c 2,69,-1
 1043 98 l 2,70,71
 1043 74 1043 74 1034 52.5 c 128,-1,72
 1025 31 1025 31 1009 15.5 c 128,-1,73
 993 0 993 0 972 -9.5 c 128,-1,74
 951 -19 951 -19 926 -19 c 0,75,76
 900 -19 900 -19 878.5 -9.5 c 128,-1,77
 857 0 857 0 841 15.5 c 128,-1,78
 825 31 825 31 816 52.5 c 128,-1,79
 807 74 807 74 807 98 c 2,80,-1
 807 495 l 2,81,82
 807 520 807 520 798 541.5 c 128,-1,83
 789 563 789 563 773.5 579 c 128,-1,84
 758 595 758 595 737 604.5 c 128,-1,85
 716 614 716 614 691 614 c 0,86,87
 665 614 665 614 643 605 c 128,-1,88
 621 596 621 596 604.5 580 c 128,-1,89
 588 564 588 564 578.5 542 c 128,-1,90
 569 520 569 520 569 495 c 2,91,-1
 569 98 l 2,92,93
 569 74 569 74 560 52.5 c 128,-1,94
 551 31 551 31 535 15.5 c 128,-1,95
 519 0 519 0 497 -9.5 c 128,-1,96
 475 -19 475 -19 450 -19 c 256,97,98
 425 -19 425 -19 403.5 -9.5 c 128,-1,99
 382 0 382 0 366.5 15.5 c 128,-1,100
 351 31 351 31 342 52.5 c 128,-1,101
 333 74 333 74 333 98 c 2,102,-1
 333 484 l 2,0,1
EndSplineSet
EndChar

StartChar: Y
Encoding: 89 89 54
Width: 1361
Flags: W
LayerCount: 2
Fore
SplineSet
604 90 m 256,0,1
 604 128 604 128 630.5 154.5 c 128,-1,2
 657 181 657 181 695 181 c 2,3,-1
 813 181 l 2,4,5
 838 181 838 181 860 190 c 128,-1,6
 882 199 882 199 898 215 c 128,-1,7
 914 231 914 231 923.5 252.5 c 128,-1,8
 933 274 933 274 933 298 c 2,9,-1
 933 435 l 2,10,11
 933 454 933 454 922.5 460.5 c 128,-1,12
 912 467 912 467 903 467 c 0,13,14
 892 467 892 467 883.5 458.5 c 128,-1,15
 875 450 875 450 867 442 c 0,16,17
 840 415 840 415 803 394.5 c 128,-1,18
 766 374 766 374 709 374 c 0,19,20
 655 374 655 374 609 397.5 c 128,-1,21
 563 421 563 421 530 461 c 128,-1,22
 497 501 497 501 478 555 c 128,-1,23
 459 609 459 609 459 670 c 2,24,-1
 459 1179 l 1,25,-1
 415 1179 l 2,26,27
 391 1179 391 1179 370 1169.5 c 128,-1,28
 349 1160 349 1160 333.5 1143.5 c 128,-1,29
 318 1127 318 1127 309.5 1105.5 c 128,-1,30
 301 1084 301 1084 301 1060 c 2,31,-1
 301 1003 l 2,32,33
 301 978 301 978 292 956.5 c 128,-1,34
 283 935 283 935 266.5 919.5 c 128,-1,35
 250 904 250 904 228 895 c 128,-1,36
 206 886 206 886 181 886 c 0,37,38
 157 886 157 886 135.5 895 c 128,-1,39
 114 904 114 904 98.5 919.5 c 128,-1,40
 83 935 83 935 73.5 956.5 c 128,-1,41
 64 978 64 978 64 1003 c 2,42,-1
 64 1063 l 2,43,44
 64 1124 64 1124 87.5 1178 c 128,-1,45
 111 1232 111 1232 151.5 1272 c 128,-1,46
 192 1312 192 1312 245.5 1335.5 c 128,-1,47
 299 1359 299 1359 360 1359 c 2,48,-1
 577 1359 l 2,49,50
 601 1359 601 1359 623 1349.5 c 128,-1,51
 645 1340 645 1340 661 1324.5 c 128,-1,52
 677 1309 677 1309 686.5 1287.5 c 128,-1,53
 696 1266 696 1266 696 1242 c 2,54,-1
 696 673 l 2,55,56
 696 648 696 648 705.5 626.5 c 128,-1,57
 715 605 715 605 731 589 c 128,-1,58
 747 573 747 573 768.5 563.5 c 128,-1,59
 790 554 790 554 815 554 c 0,60,61
 839 554 839 554 860 561.5 c 128,-1,62
 881 569 881 569 897.5 583 c 128,-1,63
 914 597 914 597 923.5 617 c 128,-1,64
 933 637 933 637 933 661 c 2,65,-1
 933 1262 l 2,66,67
 933 1286 933 1286 942.5 1307.5 c 128,-1,68
 952 1329 952 1329 968 1344.5 c 128,-1,69
 984 1360 984 1360 1005.5 1369.5 c 128,-1,70
 1027 1379 1027 1379 1051 1379 c 0,71,72
 1076 1379 1076 1379 1098 1369.5 c 128,-1,73
 1120 1360 1120 1360 1136 1344.5 c 128,-1,74
 1152 1329 1152 1329 1161.5 1307.5 c 128,-1,75
 1171 1286 1171 1286 1171 1262 c 2,76,-1
 1171 296 l 2,77,78
 1171 235 1171 235 1147 181 c 128,-1,79
 1123 127 1123 127 1082.5 87 c 128,-1,80
 1042 47 1042 47 987.5 23.5 c 128,-1,81
 933 0 933 0 872 0 c 2,82,-1
 695 0 l 2,83,84
 657 0 657 0 630.5 26 c 128,-1,85
 604 52 604 52 604 90 c 256,0,1
EndSplineSet
EndChar

StartChar: Z
Encoding: 90 90 55
Width: 876
Flags: W
LayerCount: 2
Fore
SplineSet
140 120 m 0,0,1
 140 150 140 150 154 176 c 1,2,-1
 588 1179 l 1,3,-1
 384 1179 l 2,4,5
 361 1179 361 1179 341.5 1169 c 128,-1,6
 322 1159 322 1159 307.5 1142.5 c 128,-1,7
 293 1126 293 1126 284.5 1104.5 c 128,-1,8
 276 1083 276 1083 276 1060 c 2,9,-1
 276 1003 l 2,10,11
 276 978 276 978 267 956.5 c 128,-1,12
 258 935 258 935 241.5 919.5 c 128,-1,13
 225 904 225 904 203 895 c 128,-1,14
 181 886 181 886 156 886 c 0,15,16
 132 886 132 886 110.5 895 c 128,-1,17
 89 904 89 904 73.5 919.5 c 128,-1,18
 58 935 58 935 48.5 956.5 c 128,-1,19
 39 978 39 978 39 1003 c 2,20,-1
 39 1063 l 2,21,22
 39 1124 39 1124 62.5 1178 c 128,-1,23
 86 1232 86 1232 126 1272 c 128,-1,24
 166 1312 166 1312 220 1335.5 c 128,-1,25
 274 1359 274 1359 335 1359 c 2,26,-1
 397 1359 l 2,27,28
 425 1359 425 1359 448.5 1353.5 c 128,-1,29
 472 1348 472 1348 491 1338.5 c 128,-1,30
 510 1329 510 1329 525.5 1316.5 c 128,-1,31
 541 1304 541 1304 555 1291 c 0,32,33
 564 1282 564 1282 572.5 1274 c 128,-1,34
 581 1266 581 1266 593 1266 c 0,35,36
 606 1266 606 1266 611.5 1274 c 128,-1,37
 617 1282 617 1282 621 1291 c 0,38,39
 624 1297 624 1297 631 1308.5 c 128,-1,40
 638 1320 638 1320 651 1331.5 c 128,-1,41
 664 1343 664 1343 683 1351 c 128,-1,42
 702 1359 702 1359 729 1359 c 0,43,44
 753 1359 753 1359 774.5 1350 c 128,-1,45
 796 1341 796 1341 812 1324.5 c 128,-1,46
 828 1308 828 1308 837.5 1286 c 128,-1,47
 847 1264 847 1264 847 1239 c 0,48,49
 847 1209 847 1209 833 1183 c 1,50,-1
 398 180 l 1,51,-1
 759 180 l 2,52,53
 777 180 777 180 793.5 173 c 128,-1,54
 810 166 810 166 822.5 153.5 c 128,-1,55
 835 141 835 141 842.5 124.5 c 128,-1,56
 850 108 850 108 850 90 c 0,57,58
 850 71 850 71 842.5 54.5 c 128,-1,59
 835 38 835 38 822.5 26 c 128,-1,60
 810 14 810 14 793.5 7 c 128,-1,61
 777 0 777 0 759 0 c 2,62,-1
 590 0 l 2,63,64
 561 0 561 0 538 5.5 c 128,-1,65
 515 11 515 11 496 20.5 c 128,-1,66
 477 30 477 30 461.5 42.5 c 128,-1,67
 446 55 446 55 432 68 c 0,68,69
 422 77 422 77 414 85 c 128,-1,70
 406 93 406 93 394 93 c 0,71,72
 381 93 381 93 375.5 85 c 128,-1,73
 370 77 370 77 366 68 c 0,74,75
 363 62 363 62 356 50.5 c 128,-1,76
 349 39 349 39 336 27.5 c 128,-1,77
 323 16 323 16 304 8 c 128,-1,78
 285 0 285 0 258 0 c 0,79,80
 234 0 234 0 212.5 9 c 128,-1,81
 191 18 191 18 175 34.5 c 128,-1,82
 159 51 159 51 149.5 72.5 c 128,-1,83
 140 94 140 94 140 120 c 0,0,1
EndSplineSet
EndChar

StartChar: ampersand
Encoding: 38 38 56
Width: 1195
Flags: W
LayerCount: 2
Fore
SplineSet
156 549 m 2,0,1
 156 601 156 601 167.5 640 c 128,-1,2
 179 679 179 679 200.5 709 c 128,-1,3
 222 739 222 739 252 761 c 128,-1,4
 282 783 282 783 320 801 c 1,5,6
 287 819 287 819 259.5 841 c 128,-1,7
 232 863 232 863 212.5 893 c 128,-1,8
 193 923 193 923 182.5 962 c 128,-1,9
 172 1001 172 1001 172 1053 c 2,10,-1
 172 1085 l 2,11,12
 172 1152 172 1152 195.5 1206 c 128,-1,13
 219 1260 219 1260 264.5 1298.5 c 128,-1,14
 310 1337 310 1337 376 1358 c 128,-1,15
 442 1379 442 1379 527 1379 c 0,16,17
 607 1379 607 1379 671 1358.5 c 128,-1,18
 735 1338 735 1338 779.5 1300 c 128,-1,19
 824 1262 824 1262 848 1208 c 128,-1,20
 872 1154 872 1154 872 1088 c 2,21,-1
 872 1073 l 2,22,23
 872 1049 872 1049 863 1027.5 c 128,-1,24
 854 1006 854 1006 838 990 c 128,-1,25
 822 974 822 974 801 964.5 c 128,-1,26
 780 955 780 955 755 955 c 256,27,28
 730 955 730 955 708.5 964.5 c 128,-1,29
 687 974 687 974 671 990 c 128,-1,30
 655 1006 655 1006 646 1027.5 c 128,-1,31
 637 1049 637 1049 637 1073 c 2,32,-1
 637 1088 l 1,33,34
 636 1112 636 1112 627 1132 c 128,-1,35
 618 1152 618 1152 603 1167 c 128,-1,36
 588 1182 588 1182 568.5 1190.5 c 128,-1,37
 549 1199 549 1199 527 1199 c 0,38,39
 476 1199 476 1199 442.5 1165.5 c 128,-1,40
 409 1132 409 1132 409 1081 c 2,41,-1
 409 1019 l 2,42,43
 409 994 409 994 418 974 c 128,-1,44
 427 954 427 954 441.5 939 c 128,-1,45
 456 924 456 924 473 914.5 c 128,-1,46
 490 905 490 905 507 901 c 0,47,48
 545 893 545 893 570.5 868 c 128,-1,49
 596 843 596 843 596 801 c 256,50,51
 596 759 596 759 570.5 734 c 128,-1,52
 545 709 545 709 507 701 c 0,53,54
 488 697 488 697 467.5 687.5 c 128,-1,55
 447 678 447 678 430.5 663 c 128,-1,56
 414 648 414 648 403 628 c 128,-1,57
 392 608 392 608 392 583 c 2,58,-1
 392 287 l 2,59,60
 392 261 392 261 402 241.5 c 128,-1,61
 412 222 412 222 430 208.5 c 128,-1,62
 448 195 448 195 472 188 c 128,-1,63
 496 181 496 181 523 181 c 0,64,65
 555 181 555 181 582 190 c 128,-1,66
 609 199 609 199 629 215 c 128,-1,67
 649 231 649 231 660 252.5 c 128,-1,68
 671 274 671 274 671 299 c 0,69,70
 671 332 671 332 658 353 c 128,-1,71
 645 374 645 374 629 393 c 128,-1,72
 613 412 613 412 600 433 c 128,-1,73
 587 454 587 454 587 486 c 0,74,75
 587 511 587 511 596 532 c 128,-1,76
 605 553 605 553 621 569 c 128,-1,77
 637 585 637 585 658.5 594 c 128,-1,78
 680 603 680 603 705 603 c 2,79,-1
 850 603 l 2,80,81
 872 603 872 603 892 613 c 128,-1,82
 912 623 912 623 926.5 639.5 c 128,-1,83
 941 656 941 656 949.5 677.5 c 128,-1,84
 958 699 958 699 958 722 c 2,85,-1
 958 786 l 2,86,87
 958 811 958 811 967 832 c 128,-1,88
 976 853 976 853 992.5 869 c 128,-1,89
 1009 885 1009 885 1030.5 894 c 128,-1,90
 1052 903 1052 903 1078 903 c 0,91,92
 1102 903 1102 903 1123.5 894 c 128,-1,93
 1145 885 1145 885 1160.5 869 c 128,-1,94
 1176 853 1176 853 1185.5 832 c 128,-1,95
 1195 811 1195 811 1195 786 c 2,96,-1
 1195 719 l 2,97,98
 1195 658 1195 658 1171.5 604 c 128,-1,99
 1148 550 1148 550 1108 510 c 128,-1,100
 1068 470 1068 470 1014 446.5 c 128,-1,101
 960 423 960 423 899 423 c 2,102,-1
 852 423 l 1,103,104
 869 397 869 397 878.5 367 c 128,-1,105
 888 337 888 337 888 295 c 0,106,107
 888 228 888 228 863.5 173.5 c 128,-1,108
 839 119 839 119 792.5 80.5 c 128,-1,109
 746 42 746 42 678 21 c 128,-1,110
 610 0 610 0 523 0 c 0,111,112
 437 0 437 0 368.5 20.5 c 128,-1,113
 300 41 300 41 253 79.5 c 128,-1,114
 206 118 206 118 181 172.5 c 128,-1,115
 156 227 156 227 156 296 c 2,116,-1
 156 549 l 2,0,1
EndSplineSet
EndChar

StartChar: zero
Encoding: 48 48 57
Width: 1023
Flags: W
LayerCount: 2
Fore
SplineSet
156 1085 m 2,0,1
 156 1152 156 1152 179.5 1206 c 128,-1,2
 203 1260 203 1260 248.5 1298.5 c 128,-1,3
 294 1337 294 1337 360 1358 c 128,-1,4
 426 1379 426 1379 511 1379 c 0,5,6
 595 1379 595 1379 661 1358 c 128,-1,7
 727 1337 727 1337 772.5 1298.5 c 128,-1,8
 818 1260 818 1260 842 1205 c 128,-1,9
 866 1150 866 1150 866 1083 c 2,10,-1
 866 274 l 2,11,12
 866 206 866 206 842.5 152 c 128,-1,13
 819 98 819 98 773.5 60 c 128,-1,14
 728 22 728 22 662 1.5 c 128,-1,15
 596 -19 596 -19 511 -19 c 0,16,17
 427 -19 427 -19 361 1.5 c 128,-1,18
 295 22 295 22 249.5 60.5 c 128,-1,19
 204 99 204 99 180 153.5 c 128,-1,20
 156 208 156 208 156 277 c 2,21,-1
 156 1085 l 2,0,1
393 268 m 2,22,23
 393 217 393 217 426.5 189.5 c 128,-1,24
 460 162 460 162 511 162 c 256,25,26
 562 162 562 162 595.5 189.5 c 128,-1,27
 629 217 629 217 629 268 c 2,28,-1
 629 1080 l 2,29,30
 629 1105 629 1105 620 1126.5 c 128,-1,31
 611 1148 611 1148 595 1164 c 128,-1,32
 579 1180 579 1180 557.5 1189.5 c 128,-1,33
 536 1199 536 1199 511 1199 c 256,34,35
 486 1199 486 1199 464.5 1189.5 c 128,-1,36
 443 1180 443 1180 427 1164 c 128,-1,37
 411 1148 411 1148 402 1126.5 c 128,-1,38
 393 1105 393 1105 393 1080 c 2,39,-1
 393 268 l 2,22,23
EndSplineSet
EndChar

StartChar: one
Encoding: 49 49 58
Width: 678
Flags: W
LayerCount: 2
Fore
SplineSet
219 1178 m 1,0,-1
 94 1178 l 2,1,2
 76 1178 76 1178 60 1185.5 c 128,-1,3
 44 1193 44 1193 32 1205 c 128,-1,4
 20 1217 20 1217 13 1233.5 c 128,-1,5
 6 1250 6 1250 6 1268 c 0,6,7
 6 1287 6 1287 13 1303.5 c 128,-1,8
 20 1320 20 1320 32 1332.5 c 128,-1,9
 44 1345 44 1345 60 1352 c 128,-1,10
 76 1359 76 1359 94 1359 c 2,11,-1
 368 1359 l 2,12,13
 387 1359 387 1359 403.5 1352 c 128,-1,14
 420 1345 420 1345 432 1332.5 c 128,-1,15
 444 1320 444 1320 450.5 1303.5 c 128,-1,16
 457 1287 457 1287 457 1269 c 2,17,-1
 457 97 l 2,18,19
 457 73 457 73 447.5 51.5 c 128,-1,20
 438 30 438 30 422 14 c 128,-1,21
 406 -2 406 -2 384.5 -11 c 128,-1,22
 363 -20 363 -20 339 -20 c 0,23,24
 314 -20 314 -20 292 -10.5 c 128,-1,25
 270 -1 270 -1 254 14.5 c 128,-1,26
 238 30 238 30 228.5 51.5 c 128,-1,27
 219 73 219 73 219 97 c 2,28,-1
 219 1178 l 1,0,-1
EndSplineSet
EndChar

StartChar: two
Encoding: 50 50 59
Width: 1023
Flags: W
LayerCount: 2
Fore
SplineSet
161 122 m 2,0,1
 161 198 161 198 170 257.5 c 128,-1,2
 179 317 179 317 203.5 372.5 c 128,-1,3
 228 428 228 428 272 487.5 c 128,-1,4
 316 547 316 547 386 623 c 2,5,-1
 560 812 l 2,6,7
 592 847 592 847 613.5 899.5 c 128,-1,8
 635 952 635 952 635 1007 c 0,9,10
 635 1050 635 1050 621.5 1082.5 c 128,-1,11
 608 1115 608 1115 586 1136 c 128,-1,12
 564 1157 564 1157 537 1167.5 c 128,-1,13
 510 1178 510 1178 482 1178 c 2,14,-1
 286 1178 l 2,15,16
 268 1178 268 1178 251.5 1185.5 c 128,-1,17
 235 1193 235 1193 222.5 1205.5 c 128,-1,18
 210 1218 210 1218 203 1234.5 c 128,-1,19
 196 1251 196 1251 196 1269 c 0,20,21
 196 1306 196 1306 222.5 1332.5 c 128,-1,22
 249 1359 249 1359 286 1359 c 2,23,-1
 526 1359 l 2,24,25
 611 1359 611 1359 674 1328.5 c 128,-1,26
 737 1298 737 1298 779 1247.5 c 128,-1,27
 821 1197 821 1197 841.5 1131.5 c 128,-1,28
 862 1066 862 1066 862 997 c 0,29,30
 862 931 862 931 846.5 876.5 c 128,-1,31
 831 822 831 822 804 773.5 c 128,-1,32
 777 725 777 725 740 679 c 128,-1,33
 703 633 703 633 660 585 c 2,34,-1
 501 407 l 2,35,36
 472 374 472 374 452 348 c 128,-1,37
 432 322 432 322 420 297 c 128,-1,38
 408 272 408 272 403 244.5 c 128,-1,39
 398 217 398 217 398 181 c 1,40,-1
 770 181 l 2,41,42
 788 181 788 181 804 173.5 c 128,-1,43
 820 166 820 166 832 154 c 128,-1,44
 844 142 844 142 851 125.5 c 128,-1,45
 858 109 858 109 858 91 c 0,46,47
 858 72 858 72 851 55.5 c 128,-1,48
 844 39 844 39 832 26.5 c 128,-1,49
 820 14 820 14 804 7 c 128,-1,50
 788 0 788 0 770 0 c 2,51,-1
 279 0 l 2,52,53
 254 0 254 0 232.5 9.5 c 128,-1,54
 211 19 211 19 195 35 c 128,-1,55
 179 51 179 51 170 73 c 128,-1,56
 161 95 161 95 161 120 c 2,57,-1
 161 122 l 2,0,1
EndSplineSet
EndChar

StartChar: three
Encoding: 51 51 60
Width: 1023
Flags: W
LayerCount: 2
Fore
SplineSet
165 90 m 0,0,1
 165 109 165 109 172 125.5 c 128,-1,2
 179 142 179 142 191 154.5 c 128,-1,3
 203 167 203 167 219 174 c 128,-1,4
 235 181 235 181 253 181 c 2,5,-1
 491 181 l 2,6,7
 516 181 516 181 537.5 190.5 c 128,-1,8
 559 200 559 200 575 216 c 128,-1,9
 591 232 591 232 600 253.5 c 128,-1,10
 609 275 609 275 609 300 c 2,11,-1
 609 570 l 2,12,13
 609 604 609 604 600 630 c 128,-1,14
 591 656 591 656 576.5 673.5 c 128,-1,15
 562 691 562 691 544 700 c 128,-1,16
 526 709 526 709 507 709 c 0,17,18
 483 709 483 709 467.5 700.5 c 128,-1,19
 452 692 452 692 438.5 682 c 128,-1,20
 425 672 425 672 410.5 663.5 c 128,-1,21
 396 655 396 655 374 655 c 0,22,23
 353 655 353 655 336 662.5 c 128,-1,24
 319 670 319 670 306 683 c 128,-1,25
 293 696 293 696 286 712.5 c 128,-1,26
 279 729 279 729 279 746 c 0,27,28
 279 776 279 776 296 800 c 2,29,-1
 561 1178 l 1,30,-1
 213 1178 l 2,31,32
 195 1178 195 1178 179 1185.5 c 128,-1,33
 163 1193 163 1193 151 1205 c 128,-1,34
 139 1217 139 1217 132 1233.5 c 128,-1,35
 125 1250 125 1250 125 1268 c 0,36,37
 125 1287 125 1287 132 1303.5 c 128,-1,38
 139 1320 139 1320 151 1332.5 c 128,-1,39
 163 1345 163 1345 179 1352 c 128,-1,40
 195 1359 195 1359 213 1359 c 2,41,-1
 741 1359 l 2,42,43
 786 1359 786 1359 816 1331 c 128,-1,44
 846 1303 846 1303 846 1258 c 0,45,46
 846 1244 846 1244 842 1228.5 c 128,-1,47
 838 1213 838 1213 828 1200 c 2,48,-1
 569 854 l 1,49,50
 582 861 582 861 598 865 c 128,-1,51
 614 869 614 869 635 869 c 0,52,53
 680 869 680 869 718.5 847.5 c 128,-1,54
 757 826 757 826 785.5 787 c 128,-1,55
 814 748 814 748 830 693.5 c 128,-1,56
 846 639 846 639 846 573 c 2,57,-1
 846 294 l 2,58,59
 846 233 846 233 824.5 179.5 c 128,-1,60
 803 126 803 126 759 86 c 128,-1,61
 715 46 715 46 648 23 c 128,-1,62
 581 0 581 0 491 0 c 2,63,-1
 253 0 l 2,64,65
 235 0 235 0 219 7.5 c 128,-1,66
 203 15 203 15 191 27 c 128,-1,67
 179 39 179 39 172 55.5 c 128,-1,68
 165 72 165 72 165 90 c 0,0,1
EndSplineSet
EndChar

StartChar: four
Encoding: 52 52 61
Width: 1023
Flags: W
LayerCount: 2
Fore
SplineSet
156 277 m 1,0,1
 124 287 124 287 106.5 313.5 c 128,-1,2
 89 340 89 340 89 370 c 0,3,4
 89 385 89 385 93 397 c 2,5,-1
 360 1290 l 2,6,7
 372 1330 372 1330 404 1352 c 128,-1,8
 436 1374 436 1374 475 1374 c 0,9,10
 501 1374 501 1374 522.5 1364 c 128,-1,11
 544 1354 544 1354 559.5 1338 c 128,-1,12
 575 1322 575 1322 583.5 1300.5 c 128,-1,13
 592 1279 592 1279 592 1257 c 0,14,15
 592 1247 592 1247 590 1237 c 128,-1,16
 588 1227 588 1227 585 1217 c 2,17,-1
 331 453 l 1,18,-1
 589 453 l 1,19,-1
 589 794 l 2,20,21
 589 819 589 819 598.5 841 c 128,-1,22
 608 863 608 863 624 879.5 c 128,-1,23
 640 896 640 896 662 905 c 128,-1,24
 684 914 684 914 709 914 c 0,25,26
 733 914 733 914 754.5 905 c 128,-1,27
 776 896 776 896 792 879.5 c 128,-1,28
 808 863 808 863 817.5 841 c 128,-1,29
 827 819 827 819 827 794 c 2,30,-1
 827 453 l 1,31,-1
 887 453 l 2,32,33
 906 453 906 453 922.5 446 c 128,-1,34
 939 439 939 439 951.5 427 c 128,-1,35
 964 415 964 415 971 399 c 128,-1,36
 978 383 978 383 978 364 c 0,37,38
 978 326 978 326 951.5 299.5 c 128,-1,39
 925 273 925 273 887 273 c 2,40,-1
 827 273 l 1,41,-1
 827 97 l 2,42,43
 827 73 827 73 817.5 51.5 c 128,-1,44
 808 30 808 30 792 14 c 128,-1,45
 776 -2 776 -2 754.5 -11 c 128,-1,46
 733 -20 733 -20 709 -20 c 0,47,48
 684 -20 684 -20 662 -10.5 c 128,-1,49
 640 -1 640 -1 624 14.5 c 128,-1,50
 608 30 608 30 598.5 51.5 c 128,-1,51
 589 73 589 73 589 97 c 2,52,-1
 589 273 l 1,53,-1
 179 273 l 2,54,55
 165 273 165 273 156 277 c 1,0,1
EndSplineSet
EndChar

StartChar: five
Encoding: 53 53 62
Width: 1023
Flags: W
LayerCount: 2
Fore
SplineSet
183 90 m 0,0,1
 183 109 183 109 190 125.5 c 128,-1,2
 197 142 197 142 209 154.5 c 128,-1,3
 221 167 221 167 237 174 c 128,-1,4
 253 181 253 181 271 181 c 2,5,-1
 512 181 l 2,6,7
 537 181 537 181 558.5 190.5 c 128,-1,8
 580 200 580 200 596 216 c 128,-1,9
 612 232 612 232 621 253.5 c 128,-1,10
 630 275 630 275 630 300 c 2,11,-1
 630 612 l 2,12,13
 630 637 630 637 619.5 658.5 c 128,-1,14
 609 680 609 680 591 696 c 128,-1,15
 573 712 573 712 550 721.5 c 128,-1,16
 527 731 527 731 502 731 c 0,17,18
 454 731 454 731 425 709.5 c 128,-1,19
 396 688 396 688 381 656 c 0,20,21
 367 626 367 626 335.5 607.5 c 128,-1,22
 304 589 304 589 270 589 c 0,23,24
 244 589 244 589 221.5 599 c 128,-1,25
 199 609 199 609 182.5 625.5 c 128,-1,26
 166 642 166 642 156 664.5 c 128,-1,27
 146 687 146 687 146 713 c 2,28,-1
 146 1239 l 2,29,30
 146 1264 146 1264 155 1286 c 128,-1,31
 164 1308 164 1308 180 1324 c 128,-1,32
 196 1340 196 1340 217.5 1349.5 c 128,-1,33
 239 1359 239 1359 264 1359 c 2,34,-1
 765 1359 l 2,35,36
 783 1359 783 1359 799 1352 c 128,-1,37
 815 1345 815 1345 827 1332.5 c 128,-1,38
 839 1320 839 1320 846 1303.5 c 128,-1,39
 853 1287 853 1287 853 1268 c 0,40,41
 853 1250 853 1250 846 1233.5 c 128,-1,42
 839 1217 839 1217 827 1205 c 128,-1,43
 815 1193 815 1193 799 1185.5 c 128,-1,44
 783 1178 783 1178 765 1178 c 2,45,-1
 374 1178 l 1,46,-1
 374 850 l 2,47,48
 374 831 374 831 384.5 824.5 c 128,-1,49
 395 818 395 818 404 818 c 0,50,51
 415 818 415 818 423 826.5 c 128,-1,52
 431 835 431 835 440 843 c 0,53,54
 470 872 470 872 511 891.5 c 128,-1,55
 552 911 552 911 616 911 c 0,56,57
 670 911 670 911 716 887.5 c 128,-1,58
 762 864 762 864 795.5 823.5 c 128,-1,59
 829 783 829 783 848 729.5 c 128,-1,60
 867 676 867 676 867 615 c 2,61,-1
 867 294 l 2,62,63
 867 233 867 233 845.5 179.5 c 128,-1,64
 824 126 824 126 780 86 c 128,-1,65
 736 46 736 46 669 23 c 128,-1,66
 602 0 602 0 512 0 c 2,67,-1
 271 0 l 2,68,69
 253 0 253 0 237 7.5 c 128,-1,70
 221 15 221 15 209 27 c 128,-1,71
 197 39 197 39 190 55.5 c 128,-1,72
 183 72 183 72 183 90 c 0,0,1
EndSplineSet
EndChar

StartChar: six
Encoding: 54 54 63
Width: 1023
Flags: W
LayerCount: 2
Fore
SplineSet
156 937 m 2,0,1
 156 1018 156 1018 179 1094 c 128,-1,2
 202 1170 202 1170 248.5 1229 c 128,-1,3
 295 1288 295 1288 365.5 1323.5 c 128,-1,4
 436 1359 436 1359 532 1359 c 2,5,-1
 644 1359 l 2,6,7
 681 1359 681 1359 707.5 1332.5 c 128,-1,8
 734 1306 734 1306 734 1269 c 0,9,10
 734 1251 734 1251 727 1234.5 c 128,-1,11
 720 1218 720 1218 707.5 1206 c 128,-1,12
 695 1194 695 1194 678.5 1186.5 c 128,-1,13
 662 1179 662 1179 644 1179 c 2,14,-1
 566 1179 l 2,15,16
 534 1179 534 1179 503.5 1165 c 128,-1,17
 473 1151 473 1151 448 1122.5 c 128,-1,18
 423 1094 423 1094 408 1050 c 128,-1,19
 393 1006 393 1006 393 947 c 2,20,-1
 393 859 l 2,21,22
 393 840 393 840 403.5 833.5 c 128,-1,23
 414 827 414 827 423 827 c 0,24,25
 434 827 434 827 442.5 835.5 c 128,-1,26
 451 844 451 844 459 852 c 0,27,28
 486 879 486 879 522.5 899.5 c 128,-1,29
 559 920 559 920 615 920 c 0,30,31
 669 920 669 920 715 896.5 c 128,-1,32
 761 873 761 873 794.5 832.5 c 128,-1,33
 828 792 828 792 847 738.5 c 128,-1,34
 866 685 866 685 866 624 c 2,35,-1
 866 275 l 2,36,37
 866 208 866 208 842.5 154 c 128,-1,38
 819 100 819 100 773.5 61.5 c 128,-1,39
 728 23 728 23 662 2 c 128,-1,40
 596 -19 596 -19 511 -19 c 0,41,42
 427 -19 427 -19 361 2 c 128,-1,43
 295 23 295 23 249.5 61.5 c 128,-1,44
 204 100 204 100 180 154.5 c 128,-1,45
 156 209 156 209 156 277 c 2,46,-1
 156 937 l 2,0,1
393 280 m 2,47,48
 393 255 393 255 402 233.5 c 128,-1,49
 411 212 411 212 427 196 c 128,-1,50
 443 180 443 180 464.5 170.5 c 128,-1,51
 486 161 486 161 511 161 c 256,52,53
 536 161 536 161 557.5 170.5 c 128,-1,54
 579 180 579 180 595 196 c 128,-1,55
 611 212 611 212 620 233.5 c 128,-1,56
 629 255 629 255 629 280 c 2,57,-1
 629 621 l 2,58,59
 629 646 629 646 620 667.5 c 128,-1,60
 611 689 611 689 595 705 c 128,-1,61
 579 721 579 721 557.5 730.5 c 128,-1,62
 536 740 536 740 511 740 c 0,63,64
 487 740 487 740 466 732.5 c 128,-1,65
 445 725 445 725 428.5 711 c 128,-1,66
 412 697 412 697 402.5 677 c 128,-1,67
 393 657 393 657 393 633 c 2,68,-1
 393 280 l 2,47,48
EndSplineSet
EndChar

StartChar: seven
Encoding: 55 55 64
Width: 912
Flags: W
LayerCount: 2
Fore
SplineSet
567 1179 m 1,0,-1
 150 1179 l 2,1,2
 131 1179 131 1179 114.5 1186 c 128,-1,3
 98 1193 98 1193 85.5 1205 c 128,-1,4
 73 1217 73 1217 66 1233 c 128,-1,5
 59 1249 59 1249 59 1268 c 0,6,7
 59 1306 59 1306 85.5 1332.5 c 128,-1,8
 112 1359 112 1359 150 1359 c 2,9,-1
 707 1359 l 2,10,11
 731 1359 731 1359 749.5 1351 c 128,-1,12
 768 1343 768 1343 780.5 1329.5 c 128,-1,13
 793 1316 793 1316 800 1299 c 128,-1,14
 807 1282 807 1282 807 1263 c 0,15,16
 807 1249 807 1249 804 1236 c 2,17,-1
 457 65 l 2,18,19
 446 27 446 27 414 3.5 c 128,-1,20
 382 -20 382 -20 343 -20 c 0,21,22
 317 -20 317 -20 295.5 -10 c 128,-1,23
 274 0 274 0 258.5 16.5 c 128,-1,24
 243 33 243 33 234.5 54.5 c 128,-1,25
 226 76 226 76 226 99 c 0,26,27
 226 118 226 118 232 138 c 2,28,-1
 567 1179 l 1,0,-1
EndSplineSet
EndChar

StartChar: eight
Encoding: 56 56 65
Width: 1023
Flags: W
LayerCount: 2
Fore
SplineSet
149 487 m 2,0,1
 149 572 149 572 187 626 c 128,-1,2
 225 680 225 680 303 710 c 1,3,4
 271 728 271 728 245 750 c 128,-1,5
 219 772 219 772 200 801.5 c 128,-1,6
 181 831 181 831 171 869.5 c 128,-1,7
 161 908 161 908 161 959 c 2,8,-1
 161 1083 l 2,9,10
 161 1150 161 1150 185 1205 c 128,-1,11
 209 1260 209 1260 254 1298.5 c 128,-1,12
 299 1337 299 1337 364 1358 c 128,-1,13
 429 1379 429 1379 511 1379 c 256,14,15
 593 1379 593 1379 658 1358 c 128,-1,16
 723 1337 723 1337 768 1298.5 c 128,-1,17
 813 1260 813 1260 837 1205 c 128,-1,18
 861 1150 861 1150 861 1083 c 2,19,-1
 861 959 l 2,20,21
 861 908 861 908 850.5 869.5 c 128,-1,22
 840 831 840 831 821.5 801.5 c 128,-1,23
 803 772 803 772 776.5 750 c 128,-1,24
 750 728 750 728 718 710 c 1,25,26
 796 680 796 680 834.5 626 c 128,-1,27
 873 572 873 572 873 487 c 2,28,-1
 873 277 l 2,29,30
 873 208 873 208 848 153.5 c 128,-1,31
 823 99 823 99 776 60.5 c 128,-1,32
 729 22 729 22 662 1.5 c 128,-1,33
 595 -19 595 -19 511 -19 c 256,34,35
 427 -19 427 -19 360 1.5 c 128,-1,36
 293 22 293 22 246 60.5 c 128,-1,37
 199 99 199 99 174 153.5 c 128,-1,38
 149 208 149 208 149 277 c 2,39,-1
 149 487 l 2,0,1
510 787 m 0,40,41
 533 787 533 787 553.5 794 c 128,-1,42
 574 801 574 801 589.5 814.5 c 128,-1,43
 605 828 605 828 614 847.5 c 128,-1,44
 623 867 623 867 623 893 c 2,45,-1
 623 1080 l 2,46,47
 623 1105 623 1105 614.5 1126.5 c 128,-1,48
 606 1148 606 1148 591 1164 c 128,-1,49
 576 1180 576 1180 555.5 1189.5 c 128,-1,50
 535 1199 535 1199 510 1199 c 0,51,52
 484 1199 484 1199 463.5 1190 c 128,-1,53
 443 1181 443 1181 428 1165 c 128,-1,54
 413 1149 413 1149 405 1127 c 128,-1,55
 397 1105 397 1105 397 1080 c 2,56,-1
 397 893 l 2,57,58
 397 842 397 842 429.5 814.5 c 128,-1,59
 462 787 462 787 510 787 c 0,40,41
382 267 m 2,60,61
 382 216 382 216 418.5 188.5 c 128,-1,62
 455 161 455 161 510 161 c 0,63,64
 564 161 564 161 601 188.5 c 128,-1,65
 638 216 638 216 638 267 c 2,66,-1
 638 507 l 2,67,68
 638 532 638 532 628 553.5 c 128,-1,69
 618 575 618 575 601 591 c 128,-1,70
 584 607 584 607 560.5 616.5 c 128,-1,71
 537 626 537 626 510 626 c 256,72,73
 483 626 483 626 459.5 616.5 c 128,-1,74
 436 607 436 607 418.5 591 c 128,-1,75
 401 575 401 575 391.5 553.5 c 128,-1,76
 382 532 382 532 382 507 c 2,77,-1
 382 267 l 2,60,61
EndSplineSet
EndChar

StartChar: nine
Encoding: 57 57 66
Width: 1023
Flags: W
LayerCount: 2
Fore
SplineSet
366 90 m 0,0,1
 366 108 366 108 373 124.5 c 128,-1,2
 380 141 380 141 392.5 153 c 128,-1,3
 405 165 405 165 421.5 172.5 c 128,-1,4
 438 180 438 180 456 180 c 0,5,6
 487 180 487 180 518 196 c 128,-1,7
 549 212 549 212 574 244 c 128,-1,8
 599 276 599 276 614 325.5 c 128,-1,9
 629 375 629 375 629 442 c 2,10,-1
 629 520 l 2,11,12
 629 539 629 539 618.5 545.5 c 128,-1,13
 608 552 608 552 599 552 c 0,14,15
 588 552 588 552 579.5 543.5 c 128,-1,16
 571 535 571 535 563 527 c 0,17,18
 536 500 536 500 499.5 479.5 c 128,-1,19
 463 459 463 459 407 459 c 0,20,21
 353 459 353 459 307 482.5 c 128,-1,22
 261 506 261 506 227.5 546.5 c 128,-1,23
 194 587 194 587 175 640.5 c 128,-1,24
 156 694 156 694 156 755 c 2,25,-1
 156 1085 l 2,26,27
 156 1152 156 1152 179.5 1206 c 128,-1,28
 203 1260 203 1260 248.5 1298.5 c 128,-1,29
 294 1337 294 1337 360 1358 c 128,-1,30
 426 1379 426 1379 511 1379 c 0,31,32
 595 1379 595 1379 661 1358 c 128,-1,33
 727 1337 727 1337 772.5 1298.5 c 128,-1,34
 818 1260 818 1260 842 1205 c 128,-1,35
 866 1150 866 1150 866 1083 c 2,36,-1
 866 452 l 2,37,38
 866 366 866 366 843 284.5 c 128,-1,39
 820 203 820 203 773.5 140 c 128,-1,40
 727 77 727 77 656.5 38.5 c 128,-1,41
 586 0 586 0 490 0 c 2,42,-1
 456 0 l 2,43,44
 419 0 419 0 392.5 26.5 c 128,-1,45
 366 53 366 53 366 90 c 0,0,1
511 639 m 0,46,47
 535 639 535 639 556 646.5 c 128,-1,48
 577 654 577 654 593.5 668 c 128,-1,49
 610 682 610 682 619.5 702 c 128,-1,50
 629 722 629 722 629 746 c 2,51,-1
 629 1080 l 2,52,53
 629 1105 629 1105 620 1126.5 c 128,-1,54
 611 1148 611 1148 595 1164 c 128,-1,55
 579 1180 579 1180 557.5 1189.5 c 128,-1,56
 536 1199 536 1199 511 1199 c 256,57,58
 486 1199 486 1199 464.5 1189.5 c 128,-1,59
 443 1180 443 1180 427 1164 c 128,-1,60
 411 1148 411 1148 402 1126.5 c 128,-1,61
 393 1105 393 1105 393 1080 c 2,62,-1
 393 758 l 2,63,64
 393 733 393 733 402 711.5 c 128,-1,65
 411 690 411 690 427 674 c 128,-1,66
 443 658 443 658 464.5 648.5 c 128,-1,67
 486 639 486 639 511 639 c 0,46,47
EndSplineSet
EndChar

StartChar: period
Encoding: 46 46 67
Width: 513
Flags: W
LayerCount: 2
Fore
SplineSet
122 113 m 0,0,1
 122 141 122 141 133 165.5 c 128,-1,2
 144 190 144 190 162.5 208.5 c 128,-1,3
 181 227 181 227 205.5 237.5 c 128,-1,4
 230 248 230 248 257 248 c 256,5,6
 284 248 284 248 308.5 237.5 c 128,-1,7
 333 227 333 227 351.5 208.5 c 128,-1,8
 370 190 370 190 381 165.5 c 128,-1,9
 392 141 392 141 392 113 c 0,10,11
 392 86 392 86 381 62 c 128,-1,12
 370 38 370 38 351.5 19.5 c 128,-1,13
 333 1 333 1 308.5 -9.5 c 128,-1,14
 284 -20 284 -20 257 -20 c 256,15,16
 230 -20 230 -20 205.5 -9.5 c 128,-1,17
 181 1 181 1 162.5 19.5 c 128,-1,18
 144 38 144 38 133 62 c 128,-1,19
 122 86 122 86 122 113 c 0,0,1
EndSplineSet
EndChar

StartChar: periodcentered
Encoding: 183 183 68
Width: 513
Flags: W
LayerCount: 2
Fore
SplineSet
256 484 m 256,0,1
 229 484 229 484 204.5 494.5 c 128,-1,2
 180 505 180 505 161.5 523.5 c 128,-1,3
 143 542 143 542 132 566 c 128,-1,4
 121 590 121 590 121 617 c 0,5,6
 121 645 121 645 132 669.5 c 128,-1,7
 143 694 143 694 161.5 712.5 c 128,-1,8
 180 731 180 731 204.5 741.5 c 128,-1,9
 229 752 229 752 256 752 c 256,10,11
 283 752 283 752 307.5 741.5 c 128,-1,12
 332 731 332 731 350.5 712.5 c 128,-1,13
 369 694 369 694 380 669.5 c 128,-1,14
 391 645 391 645 391 617 c 0,15,16
 391 590 391 590 380 566 c 128,-1,17
 369 542 369 542 350.5 523.5 c 128,-1,18
 332 505 332 505 307.5 494.5 c 128,-1,19
 283 484 283 484 256 484 c 256,0,1
EndSplineSet
EndChar

StartChar: bullet
Encoding: 8226 8226 69
Width: 513
Flags: W
LayerCount: 2
Fore
SplineSet
256 408 m 256,0,1
 213 408 213 408 175 425 c 128,-1,2
 137 442 137 442 108 470.5 c 128,-1,3
 79 499 79 499 62 537 c 128,-1,4
 45 575 45 575 45 617 c 0,5,6
 45 660 45 660 62 698.5 c 128,-1,7
 79 737 79 737 108 765.5 c 128,-1,8
 137 794 137 794 175 810.5 c 128,-1,9
 213 827 213 827 256 827 c 256,10,11
 299 827 299 827 337 810.5 c 128,-1,12
 375 794 375 794 404 765.5 c 128,-1,13
 433 737 433 737 450 698.5 c 128,-1,14
 467 660 467 660 467 617 c 0,15,16
 467 575 467 575 450 537 c 128,-1,17
 433 499 433 499 404 470.5 c 128,-1,18
 375 442 375 442 337 425 c 128,-1,19
 299 408 299 408 256 408 c 256,0,1
EndSplineSet
EndChar

StartChar: comma
Encoding: 44 44 70
Width: 513
Flags: W
LayerCount: 2
Fore
SplineSet
166 16 m 0,0,1
 146 34 146 34 133.5 61.5 c 128,-1,2
 121 89 121 89 121 116 c 0,3,4
 121 144 121 144 131.5 168 c 128,-1,5
 142 192 142 192 160 210 c 128,-1,6
 178 228 178 228 202 238 c 128,-1,7
 226 248 226 248 252 248 c 0,8,9
 294 248 294 248 323.5 230 c 128,-1,10
 353 212 353 212 371.5 183.5 c 128,-1,11
 390 155 390 155 398.5 119 c 128,-1,12
 407 83 407 83 407 46 c 0,13,14
 407 -32 407 -32 386 -91.5 c 128,-1,15
 365 -151 365 -151 319 -199 c 1,16,17
 290 -227 290 -227 266.5 -239 c 128,-1,18
 243 -251 243 -251 224 -251 c 0,19,20
 195 -251 195 -251 176 -230 c 128,-1,21
 157 -209 157 -209 157 -181 c 0,22,23
 157 -163 157 -163 164.5 -149 c 128,-1,24
 172 -135 172 -135 181.5 -122 c 128,-1,25
 191 -109 191 -109 198.5 -95 c 128,-1,26
 206 -81 206 -81 206 -62 c 256,27,28
 206 -43 206 -43 197 -23 c 128,-1,29
 188 -3 188 -3 166 16 c 0,0,1
EndSplineSet
EndChar

StartChar: colon
Encoding: 58 58 71
Width: 513
Flags: W
LayerCount: 2
Fore
SplineSet
256 817 m 256,0,1
 229 817 229 817 204.5 827.5 c 128,-1,2
 180 838 180 838 161.5 856.5 c 128,-1,3
 143 875 143 875 132 899 c 128,-1,4
 121 923 121 923 121 950 c 0,5,6
 121 978 121 978 132 1002.5 c 128,-1,7
 143 1027 143 1027 161.5 1045.5 c 128,-1,8
 180 1064 180 1064 204.5 1074.5 c 128,-1,9
 229 1085 229 1085 256 1085 c 256,10,11
 283 1085 283 1085 307.5 1074.5 c 128,-1,12
 332 1064 332 1064 350.5 1045.5 c 128,-1,13
 369 1027 369 1027 380 1002.5 c 128,-1,14
 391 978 391 978 391 950 c 0,15,16
 391 923 391 923 380 899 c 128,-1,17
 369 875 369 875 350.5 856.5 c 128,-1,18
 332 838 332 838 307.5 827.5 c 128,-1,19
 283 817 283 817 256 817 c 256,0,1
121 113 m 0,20,21
 121 141 121 141 132 165.5 c 128,-1,22
 143 190 143 190 161.5 208.5 c 128,-1,23
 180 227 180 227 204.5 237.5 c 128,-1,24
 229 248 229 248 256 248 c 256,25,26
 283 248 283 248 307.5 237.5 c 128,-1,27
 332 227 332 227 350.5 208.5 c 128,-1,28
 369 190 369 190 380 165.5 c 128,-1,29
 391 141 391 141 391 113 c 0,30,31
 391 86 391 86 380 62 c 128,-1,32
 369 38 369 38 350.5 19.5 c 128,-1,33
 332 1 332 1 307.5 -9.5 c 128,-1,34
 283 -20 283 -20 256 -20 c 256,35,36
 229 -20 229 -20 204.5 -9.5 c 128,-1,37
 180 1 180 1 161.5 19.5 c 128,-1,38
 143 38 143 38 132 62 c 128,-1,39
 121 86 121 86 121 113 c 0,20,21
EndSplineSet
EndChar

StartChar: semicolon
Encoding: 59 59 72
Width: 513
Flags: W
LayerCount: 2
Fore
SplineSet
256 817 m 256,0,1
 229 817 229 817 204.5 827.5 c 128,-1,2
 180 838 180 838 161.5 856.5 c 128,-1,3
 143 875 143 875 132 899 c 128,-1,4
 121 923 121 923 121 950 c 0,5,6
 121 978 121 978 132 1002.5 c 128,-1,7
 143 1027 143 1027 161.5 1045.5 c 128,-1,8
 180 1064 180 1064 204.5 1074.5 c 128,-1,9
 229 1085 229 1085 256 1085 c 256,10,11
 283 1085 283 1085 307.5 1074.5 c 128,-1,12
 332 1064 332 1064 350.5 1045.5 c 128,-1,13
 369 1027 369 1027 380 1002.5 c 128,-1,14
 391 978 391 978 391 950 c 0,15,16
 391 923 391 923 380 899 c 128,-1,17
 369 875 369 875 350.5 856.5 c 128,-1,18
 332 838 332 838 307.5 827.5 c 128,-1,19
 283 817 283 817 256 817 c 256,0,1
166 16 m 0,20,21
 146 34 146 34 133.5 61.5 c 128,-1,22
 121 89 121 89 121 116 c 0,23,24
 121 144 121 144 131.5 168 c 128,-1,25
 142 192 142 192 160 210 c 128,-1,26
 178 228 178 228 202 238 c 128,-1,27
 226 248 226 248 252 248 c 0,28,29
 294 248 294 248 323.5 230 c 128,-1,30
 353 212 353 212 371.5 183.5 c 128,-1,31
 390 155 390 155 398.5 119 c 128,-1,32
 407 83 407 83 407 46 c 0,33,34
 407 -32 407 -32 386 -91.5 c 128,-1,35
 365 -151 365 -151 319 -199 c 1,36,37
 290 -227 290 -227 266.5 -239 c 128,-1,38
 243 -251 243 -251 224 -251 c 0,39,40
 195 -251 195 -251 176 -230 c 128,-1,41
 157 -209 157 -209 157 -181 c 0,42,43
 157 -163 157 -163 164.5 -149 c 128,-1,44
 172 -135 172 -135 181.5 -122 c 128,-1,45
 191 -109 191 -109 198.5 -95 c 128,-1,46
 206 -81 206 -81 206 -62 c 256,47,48
 206 -43 206 -43 197 -23 c 128,-1,49
 188 -3 188 -3 166 16 c 0,20,21
EndSplineSet
EndChar

StartChar: exclam
Encoding: 33 33 73
Width: 513
Flags: W
LayerCount: 2
Fore
SplineSet
254 428 m 256,0,1
 214 428 214 428 187.5 455 c 128,-1,2
 161 482 161 482 158 522 c 2,3,-1
 102 1182 l 2,4,5
 101 1188 101 1188 101 1194.5 c 128,-1,6
 101 1201 101 1201 101 1207 c 0,7,8
 101 1240 101 1240 109 1271 c 128,-1,9
 117 1302 117 1302 135 1326 c 128,-1,10
 153 1350 153 1350 182.5 1364.5 c 128,-1,11
 212 1379 212 1379 254 1379 c 0,12,13
 294 1379 294 1379 323.5 1364.5 c 128,-1,14
 353 1350 353 1350 373 1325 c 128,-1,15
 393 1300 393 1300 403 1268 c 128,-1,16
 413 1236 413 1236 413 1202 c 0,17,18
 413 1197 413 1197 412.5 1192 c 128,-1,19
 412 1187 412 1187 412 1182 c 2,20,-1
 353 522 l 2,21,22
 349 483 349 483 321.5 455.5 c 128,-1,23
 294 428 294 428 254 428 c 256,0,1
119 113 m 0,24,25
 119 141 119 141 130 165.5 c 128,-1,26
 141 190 141 190 159.5 208.5 c 128,-1,27
 178 227 178 227 202.5 237.5 c 128,-1,28
 227 248 227 248 254 248 c 256,29,30
 281 248 281 248 305.5 237.5 c 128,-1,31
 330 227 330 227 348.5 208.5 c 128,-1,32
 367 190 367 190 378 165.5 c 128,-1,33
 389 141 389 141 389 113 c 0,34,35
 389 86 389 86 378 62 c 128,-1,36
 367 38 367 38 348.5 19.5 c 128,-1,37
 330 1 330 1 305.5 -9.5 c 128,-1,38
 281 -20 281 -20 254 -20 c 256,39,40
 227 -20 227 -20 202.5 -9.5 c 128,-1,41
 178 1 178 1 159.5 19.5 c 128,-1,42
 141 38 141 38 130 62 c 128,-1,43
 119 86 119 86 119 113 c 0,24,25
EndSplineSet
EndChar

StartChar: exclamdown
Encoding: 161 161 74
Width: 513
Flags: W
LayerCount: 2
Fore
SplineSet
259 1111 m 256,0,1
 232 1111 232 1111 207.5 1121.5 c 128,-1,2
 183 1132 183 1132 164.5 1150.5 c 128,-1,3
 146 1169 146 1169 135 1193.5 c 128,-1,4
 124 1218 124 1218 124 1246 c 0,5,6
 124 1273 124 1273 135 1297 c 128,-1,7
 146 1321 146 1321 164.5 1339.5 c 128,-1,8
 183 1358 183 1358 207.5 1368.5 c 128,-1,9
 232 1379 232 1379 259 1379 c 256,10,11
 286 1379 286 1379 310.5 1368.5 c 128,-1,12
 335 1358 335 1358 353.5 1339.5 c 128,-1,13
 372 1321 372 1321 383 1297 c 128,-1,14
 394 1273 394 1273 394 1246 c 0,15,16
 394 1218 394 1218 383 1193.5 c 128,-1,17
 372 1169 372 1169 353.5 1150.5 c 128,-1,18
 335 1132 335 1132 310.5 1121.5 c 128,-1,19
 286 1111 286 1111 259 1111 c 256,0,1
160 837 m 2,20,21
 164 876 164 876 191.5 903.5 c 128,-1,22
 219 931 219 931 259 931 c 0,23,24
 298 931 298 931 324.5 904 c 128,-1,25
 351 877 351 877 355 837 c 2,26,-1
 411 177 l 2,27,28
 412 170 412 170 412 164 c 128,-1,29
 412 158 412 158 412 152 c 0,30,31
 412 118 412 118 404 87 c 128,-1,32
 396 56 396 56 377.5 32 c 128,-1,33
 359 8 359 8 330 -6 c 128,-1,34
 301 -20 301 -20 259 -20 c 0,35,36
 219 -20 219 -20 189 -5.5 c 128,-1,37
 159 9 159 9 139.5 34 c 128,-1,38
 120 59 120 59 110 90.5 c 128,-1,39
 100 122 100 122 100 157 c 0,40,41
 100 162 100 162 100 167 c 128,-1,42
 100 172 100 172 101 177 c 2,43,-1
 160 837 l 2,20,21
EndSplineSet
EndChar

StartChar: question
Encoding: 63 63 75
Width: 990
Flags: W
LayerCount: 2
Fore
SplineSet
401 448 m 0,0,1
 377 448 377 448 356 457 c 128,-1,2
 335 466 335 466 320 481 c 128,-1,3
 305 496 305 496 296 516 c 128,-1,4
 287 536 287 536 287 559 c 2,5,-1
 287 599 l 2,6,7
 287 655 287 655 304 701.5 c 128,-1,8
 321 748 321 748 350 786 c 128,-1,9
 379 824 379 824 418 854 c 128,-1,10
 457 884 457 884 502 908 c 2,11,-1
 564 941 l 2,12,13
 587 953 587 953 606.5 975.5 c 128,-1,14
 626 998 626 998 626 1037 c 2,15,-1
 626 1059 l 2,16,17
 626 1084 626 1084 616.5 1105.5 c 128,-1,18
 607 1127 607 1127 591 1143 c 128,-1,19
 575 1159 575 1159 553.5 1168.5 c 128,-1,20
 532 1178 532 1178 507 1178 c 2,21,-1
 251 1178 l 2,22,23
 233 1178 233 1178 216.5 1185.5 c 128,-1,24
 200 1193 200 1193 187.5 1205 c 128,-1,25
 175 1217 175 1217 168 1233.5 c 128,-1,26
 161 1250 161 1250 161 1268 c 0,27,28
 161 1305 161 1305 187.5 1331.5 c 128,-1,29
 214 1358 214 1358 251 1358 c 2,30,-1
 509 1358 l 2,31,32
 593 1358 593 1358 658.5 1337 c 128,-1,33
 724 1316 724 1316 769.5 1277.5 c 128,-1,34
 815 1239 815 1239 838.5 1184 c 128,-1,35
 862 1129 862 1129 862 1062 c 2,36,-1
 862 1028 l 2,37,38
 862 977 862 977 845.5 936 c 128,-1,39
 829 895 829 895 800.5 861.5 c 128,-1,40
 772 828 772 828 734.5 800.5 c 128,-1,41
 697 773 697 773 656 750 c 2,42,-1
 610 724 l 2,43,44
 592 714 592 714 574.5 699 c 128,-1,45
 557 684 557 684 543.5 666 c 128,-1,46
 530 648 530 648 521.5 627.5 c 128,-1,47
 513 607 513 607 513 586 c 2,48,-1
 513 559 l 2,49,50
 513 536 513 536 504 515.5 c 128,-1,51
 495 495 495 495 480 480 c 128,-1,52
 465 465 465 465 444.5 456.5 c 128,-1,53
 424 448 424 448 401 448 c 0,0,1
264 114 m 0,54,55
 264 142 264 142 275 166.5 c 128,-1,56
 286 191 286 191 304.5 209.5 c 128,-1,57
 323 228 323 228 347.5 238.5 c 128,-1,58
 372 249 372 249 399 249 c 256,59,60
 426 249 426 249 450.5 238.5 c 128,-1,61
 475 228 475 228 493.5 209.5 c 128,-1,62
 512 191 512 191 523 166.5 c 128,-1,63
 534 142 534 142 534 114 c 0,64,65
 534 87 534 87 523 63 c 128,-1,66
 512 39 512 39 493.5 20.5 c 128,-1,67
 475 2 475 2 450.5 -8.5 c 128,-1,68
 426 -19 426 -19 399 -19 c 256,69,70
 372 -19 372 -19 347.5 -8.5 c 128,-1,71
 323 2 323 2 304.5 20.5 c 128,-1,72
 286 39 286 39 275 63 c 128,-1,73
 264 87 264 87 264 114 c 0,54,55
EndSplineSet
EndChar

StartChar: questiondown
Encoding: 191 191 76
Width: 990
Flags: W
LayerCount: 2
Fore
SplineSet
591 1109 m 256,0,1
 564 1109 564 1109 539.5 1119.5 c 128,-1,2
 515 1130 515 1130 496.5 1148.5 c 128,-1,3
 478 1167 478 1167 467 1191.5 c 128,-1,4
 456 1216 456 1216 456 1244 c 0,5,6
 456 1271 456 1271 467 1295 c 128,-1,7
 478 1319 478 1319 496.5 1337.5 c 128,-1,8
 515 1356 515 1356 539.5 1366.5 c 128,-1,9
 564 1377 564 1377 591 1377 c 256,10,11
 618 1377 618 1377 642.5 1366.5 c 128,-1,12
 667 1356 667 1356 685.5 1337.5 c 128,-1,13
 704 1319 704 1319 715 1295 c 128,-1,14
 726 1271 726 1271 726 1244 c 0,15,16
 726 1216 726 1216 715 1191.5 c 128,-1,17
 704 1167 704 1167 685.5 1148.5 c 128,-1,18
 667 1130 667 1130 642.5 1119.5 c 128,-1,19
 618 1109 618 1109 591 1109 c 256,0,1
128 330 m 2,20,21
 128 381 128 381 144.5 422 c 128,-1,22
 161 463 161 463 189.5 496.5 c 128,-1,23
 218 530 218 530 255.5 557.5 c 128,-1,24
 293 585 293 585 334 608 c 2,25,-1
 380 634 l 2,26,27
 398 644 398 644 415.5 659 c 128,-1,28
 433 674 433 674 446.5 692 c 128,-1,29
 460 710 460 710 468.5 730.5 c 128,-1,30
 477 751 477 751 477 772 c 2,31,-1
 477 799 l 2,32,33
 477 822 477 822 486 842.5 c 128,-1,34
 495 863 495 863 510 878 c 128,-1,35
 525 893 525 893 545.5 901.5 c 128,-1,36
 566 910 566 910 589 910 c 0,37,38
 613 910 613 910 634 901 c 128,-1,39
 655 892 655 892 670 877 c 128,-1,40
 685 862 685 862 694 841.5 c 128,-1,41
 703 821 703 821 703 799 c 2,42,-1
 703 759 l 2,43,44
 703 703 703 703 686 656.5 c 128,-1,45
 669 610 669 610 639.5 572 c 128,-1,46
 610 534 610 534 571 504 c 128,-1,47
 532 474 532 474 488 450 c 2,48,-1
 426 417 l 2,49,50
 403 404 403 404 383.5 382 c 128,-1,51
 364 360 364 360 364 321 c 2,52,-1
 364 299 l 2,53,54
 364 274 364 274 373.5 252.5 c 128,-1,55
 383 231 383 231 399 215 c 128,-1,56
 415 199 415 199 436.5 189.5 c 128,-1,57
 458 180 458 180 483 180 c 2,58,-1
 739 180 l 2,59,60
 757 180 757 180 773.5 172.5 c 128,-1,61
 790 165 790 165 802.5 153 c 128,-1,62
 815 141 815 141 822 124.5 c 128,-1,63
 829 108 829 108 829 90 c 0,64,65
 829 53 829 53 802.5 26.5 c 128,-1,66
 776 0 776 0 739 0 c 2,67,-1
 481 0 l 2,68,69
 397 0 397 0 331.5 21 c 128,-1,70
 266 42 266 42 220.5 80.5 c 128,-1,71
 175 119 175 119 151.5 173.5 c 128,-1,72
 128 228 128 228 128 296 c 2,73,-1
 128 330 l 2,20,21
EndSplineSet
EndChar

StartChar: quoteleft
Encoding: 8216 8216 77
Width: 513
Flags: W
LayerCount: 2
Fore
SplineSet
268 880 m 0,0,1
 226 880 226 880 196.5 898 c 128,-1,2
 167 916 167 916 148.5 944.5 c 128,-1,3
 130 973 130 973 121.5 1009 c 128,-1,4
 113 1045 113 1045 113 1082 c 0,5,6
 113 1160 113 1160 134 1219.5 c 128,-1,7
 155 1279 155 1279 201 1327 c 1,8,9
 230 1355 230 1355 253.5 1367 c 128,-1,10
 277 1379 277 1379 296 1379 c 0,11,12
 325 1379 325 1379 344 1358 c 128,-1,13
 363 1337 363 1337 363 1309 c 0,14,15
 363 1291 363 1291 355.5 1277 c 128,-1,16
 348 1263 348 1263 338.5 1250 c 128,-1,17
 329 1237 329 1237 321.5 1223 c 128,-1,18
 314 1209 314 1209 314 1190 c 256,19,20
 314 1171 314 1171 323 1151 c 128,-1,21
 332 1131 332 1131 354 1112 c 0,22,23
 374 1094 374 1094 386.5 1066.5 c 128,-1,24
 399 1039 399 1039 399 1012 c 0,25,26
 399 984 399 984 388.5 960 c 128,-1,27
 378 936 378 936 360 918 c 128,-1,28
 342 900 342 900 318 890 c 128,-1,29
 294 880 294 880 268 880 c 0,0,1
EndSplineSet
EndChar

StartChar: quoteright
Encoding: 8217 8217 78
Width: 513
Flags: W
LayerCount: 2
Fore
SplineSet
216 880 m 0,0,1
 187 880 187 880 168 901 c 128,-1,2
 149 922 149 922 149 950 c 0,3,4
 149 968 149 968 156.5 982 c 128,-1,5
 164 996 164 996 173.5 1009 c 128,-1,6
 183 1022 183 1022 190.5 1036 c 128,-1,7
 198 1050 198 1050 198 1069 c 256,8,9
 198 1088 198 1088 189 1108 c 128,-1,10
 180 1128 180 1128 158 1147 c 0,11,12
 138 1164 138 1164 125.5 1192 c 128,-1,13
 113 1220 113 1220 113 1247 c 0,14,15
 113 1275 113 1275 123.5 1299 c 128,-1,16
 134 1323 134 1323 152 1341 c 128,-1,17
 170 1359 170 1359 194 1369 c 128,-1,18
 218 1379 218 1379 244 1379 c 0,19,20
 286 1379 286 1379 315.5 1361 c 128,-1,21
 345 1343 345 1343 363.5 1314.5 c 128,-1,22
 382 1286 382 1286 390.5 1250 c 128,-1,23
 399 1214 399 1214 399 1177 c 0,24,25
 399 1099 399 1099 378 1039.5 c 128,-1,26
 357 980 357 980 311 932 c 1,27,28
 282 904 282 904 258.5 892 c 128,-1,29
 235 880 235 880 216 880 c 0,0,1
EndSplineSet
EndChar

StartChar: quotedblleft
Encoding: 8220 8220 79
Width: 1023
Flags: W
LayerCount: 2
Fore
SplineSet
743 860 m 0,0,1
 701 860 701 860 671.5 878 c 128,-1,2
 642 896 642 896 623.5 924.5 c 128,-1,3
 605 953 605 953 596.5 989 c 128,-1,4
 588 1025 588 1025 588 1062 c 0,5,6
 588 1140 588 1140 609 1199.5 c 128,-1,7
 630 1259 630 1259 676 1307 c 1,8,9
 705 1335 705 1335 728.5 1347 c 128,-1,10
 752 1359 752 1359 771 1359 c 0,11,12
 800 1359 800 1359 819 1338 c 128,-1,13
 838 1317 838 1317 838 1289 c 0,14,15
 838 1271 838 1271 830.5 1257 c 128,-1,16
 823 1243 823 1243 813.5 1230 c 128,-1,17
 804 1217 804 1217 796.5 1203 c 128,-1,18
 789 1189 789 1189 789 1170 c 256,19,20
 789 1151 789 1151 798 1131 c 128,-1,21
 807 1111 807 1111 829 1092 c 0,22,23
 849 1074 849 1074 861.5 1046.5 c 128,-1,24
 874 1019 874 1019 874 992 c 0,25,26
 874 964 874 964 863.5 940 c 128,-1,27
 853 916 853 916 835 898 c 128,-1,28
 817 880 817 880 793 870 c 128,-1,29
 769 860 769 860 743 860 c 0,0,1
304 860 m 0,30,31
 262 860 262 860 232.5 878 c 128,-1,32
 203 896 203 896 184.5 924.5 c 128,-1,33
 166 953 166 953 157.5 989 c 128,-1,34
 149 1025 149 1025 149 1062 c 0,35,36
 149 1140 149 1140 170 1199.5 c 128,-1,37
 191 1259 191 1259 237 1307 c 1,38,39
 266 1335 266 1335 289.5 1347 c 128,-1,40
 313 1359 313 1359 332 1359 c 0,41,42
 361 1359 361 1359 380 1338 c 128,-1,43
 399 1317 399 1317 399 1289 c 0,44,45
 399 1271 399 1271 391.5 1257 c 128,-1,46
 384 1243 384 1243 374.5 1230 c 128,-1,47
 365 1217 365 1217 357.5 1203 c 128,-1,48
 350 1189 350 1189 350 1170 c 256,49,50
 350 1151 350 1151 359 1131 c 128,-1,51
 368 1111 368 1111 390 1092 c 0,52,53
 410 1074 410 1074 422.5 1046.5 c 128,-1,54
 435 1019 435 1019 435 992 c 0,55,56
 435 964 435 964 424.5 940 c 128,-1,57
 414 916 414 916 396 898 c 128,-1,58
 378 880 378 880 354 870 c 128,-1,59
 330 860 330 860 304 860 c 0,30,31
EndSplineSet
EndChar

StartChar: quotedblright
Encoding: 8221 8221 80
Width: 1023
Flags: W
LayerCount: 2
Fore
SplineSet
691 860 m 0,0,1
 662 860 662 860 643 881 c 128,-1,2
 624 902 624 902 624 930 c 0,3,4
 624 948 624 948 631.5 962 c 128,-1,5
 639 976 639 976 648.5 989 c 128,-1,6
 658 1002 658 1002 665.5 1016 c 128,-1,7
 673 1030 673 1030 673 1049 c 256,8,9
 673 1068 673 1068 664 1088 c 128,-1,10
 655 1108 655 1108 633 1127 c 0,11,12
 613 1144 613 1144 600.5 1172 c 128,-1,13
 588 1200 588 1200 588 1227 c 0,14,15
 588 1255 588 1255 598.5 1279 c 128,-1,16
 609 1303 609 1303 627 1321 c 128,-1,17
 645 1339 645 1339 669 1349 c 128,-1,18
 693 1359 693 1359 719 1359 c 0,19,20
 761 1359 761 1359 790.5 1341 c 128,-1,21
 820 1323 820 1323 838.5 1294.5 c 128,-1,22
 857 1266 857 1266 865.5 1230 c 128,-1,23
 874 1194 874 1194 874 1157 c 0,24,25
 874 1079 874 1079 853 1019.5 c 128,-1,26
 832 960 832 960 786 912 c 1,27,28
 757 884 757 884 733.5 872 c 128,-1,29
 710 860 710 860 691 860 c 0,0,1
252 860 m 0,30,31
 223 860 223 860 204 881 c 128,-1,32
 185 902 185 902 185 930 c 0,33,34
 185 948 185 948 192.5 962 c 128,-1,35
 200 976 200 976 209.5 989 c 128,-1,36
 219 1002 219 1002 226.5 1016 c 128,-1,37
 234 1030 234 1030 234 1049 c 256,38,39
 234 1068 234 1068 225 1088 c 128,-1,40
 216 1108 216 1108 194 1127 c 0,41,42
 174 1144 174 1144 161.5 1172 c 128,-1,43
 149 1200 149 1200 149 1227 c 0,44,45
 149 1255 149 1255 159.5 1279 c 128,-1,46
 170 1303 170 1303 188 1321 c 128,-1,47
 206 1339 206 1339 230 1349 c 128,-1,48
 254 1359 254 1359 280 1359 c 0,49,50
 322 1359 322 1359 351.5 1341 c 128,-1,51
 381 1323 381 1323 399.5 1294.5 c 128,-1,52
 418 1266 418 1266 426.5 1230 c 128,-1,53
 435 1194 435 1194 435 1157 c 0,54,55
 435 1079 435 1079 414 1019.5 c 128,-1,56
 393 960 393 960 347 912 c 1,57,58
 318 884 318 884 294.5 872 c 128,-1,59
 271 860 271 860 252 860 c 0,30,31
EndSplineSet
EndChar

StartChar: quotesingle
Encoding: 39 39 81
Width: 513
Flags: W
LayerCount: 2
Fore
SplineSet
256 798 m 256,0,1
 222 798 222 798 201 821.5 c 128,-1,2
 180 845 180 845 175 877 c 2,3,-1
 128 1178 l 2,4,5
 126 1186 126 1186 124 1198 c 128,-1,6
 122 1210 122 1210 122 1222 c 0,7,8
 122 1250 122 1250 132 1275 c 128,-1,9
 142 1300 142 1300 160 1319 c 128,-1,10
 178 1338 178 1338 202.5 1348.5 c 128,-1,11
 227 1359 227 1359 256 1359 c 0,12,13
 284 1359 284 1359 309 1348 c 128,-1,14
 334 1337 334 1337 352.5 1318.5 c 128,-1,15
 371 1300 371 1300 381.5 1275 c 128,-1,16
 392 1250 392 1250 392 1222 c 0,17,18
 392 1212 392 1212 391 1200.5 c 128,-1,19
 390 1189 390 1189 388 1178 c 2,20,-1
 339 877 l 2,21,22
 334 845 334 845 312 821.5 c 128,-1,23
 290 798 290 798 256 798 c 256,0,1
EndSplineSet
EndChar

StartChar: quotesinglbase
Encoding: 8218 8218 82
Width: 513
Flags: W
LayerCount: 2
Fore
SplineSet
158 16 m 0,0,1
 138 34 138 34 125.5 61.5 c 128,-1,2
 113 89 113 89 113 116 c 0,3,4
 113 144 113 144 123.5 168 c 128,-1,5
 134 192 134 192 152 210 c 128,-1,6
 170 228 170 228 194 238 c 128,-1,7
 218 248 218 248 244 248 c 0,8,9
 286 248 286 248 315.5 230 c 128,-1,10
 345 212 345 212 363.5 183.5 c 128,-1,11
 382 155 382 155 390.5 119 c 128,-1,12
 399 83 399 83 399 46 c 0,13,14
 399 -32 399 -32 378 -91.5 c 128,-1,15
 357 -151 357 -151 311 -199 c 1,16,17
 282 -227 282 -227 258.5 -239 c 128,-1,18
 235 -251 235 -251 216 -251 c 0,19,20
 187 -251 187 -251 168 -230 c 128,-1,21
 149 -209 149 -209 149 -181 c 0,22,23
 149 -163 149 -163 156.5 -149 c 128,-1,24
 164 -135 164 -135 173.5 -122 c 128,-1,25
 183 -109 183 -109 190.5 -95 c 128,-1,26
 198 -81 198 -81 198 -62 c 256,27,28
 198 -43 198 -43 189 -23 c 128,-1,29
 180 -3 180 -3 158 16 c 0,0,1
EndSplineSet
EndChar

StartChar: quotedbl
Encoding: 34 34 83
Width: 922
Flags: W
LayerCount: 2
Fore
SplineSet
665 798 m 256,0,1
 631 798 631 798 610 821.5 c 128,-1,2
 589 845 589 845 584 877 c 2,3,-1
 537 1178 l 2,4,5
 535 1186 535 1186 533 1198 c 128,-1,6
 531 1210 531 1210 531 1222 c 0,7,8
 531 1250 531 1250 541 1275 c 128,-1,9
 551 1300 551 1300 569 1319 c 128,-1,10
 587 1338 587 1338 611.5 1348.5 c 128,-1,11
 636 1359 636 1359 665 1359 c 0,12,13
 693 1359 693 1359 718 1348 c 128,-1,14
 743 1337 743 1337 761.5 1318.5 c 128,-1,15
 780 1300 780 1300 790.5 1275 c 128,-1,16
 801 1250 801 1250 801 1222 c 0,17,18
 801 1212 801 1212 800 1200.5 c 128,-1,19
 799 1189 799 1189 797 1178 c 2,20,-1
 748 877 l 2,21,22
 743 845 743 845 721 821.5 c 128,-1,23
 699 798 699 798 665 798 c 256,0,1
256 798 m 256,24,25
 222 798 222 798 201 821.5 c 128,-1,26
 180 845 180 845 175 877 c 2,27,-1
 128 1178 l 2,28,29
 126 1186 126 1186 124 1198 c 128,-1,30
 122 1210 122 1210 122 1222 c 0,31,32
 122 1250 122 1250 132 1275 c 128,-1,33
 142 1300 142 1300 160 1319 c 128,-1,34
 178 1338 178 1338 202.5 1348.5 c 128,-1,35
 227 1359 227 1359 256 1359 c 0,36,37
 284 1359 284 1359 309 1348 c 128,-1,38
 334 1337 334 1337 352.5 1318.5 c 128,-1,39
 371 1300 371 1300 381.5 1275 c 128,-1,40
 392 1250 392 1250 392 1222 c 0,41,42
 392 1212 392 1212 391 1200.5 c 128,-1,43
 390 1189 390 1189 388 1178 c 2,44,-1
 339 877 l 2,45,46
 334 845 334 845 312 821.5 c 128,-1,47
 290 798 290 798 256 798 c 256,24,25
EndSplineSet
EndChar

StartChar: quotedblbase
Encoding: 8222 8222 84
Width: 1023
Flags: W
LayerCount: 2
Fore
SplineSet
588 117 m 0,0,1
 588 145 588 145 598.5 169 c 128,-1,2
 609 193 609 193 627 211 c 128,-1,3
 645 229 645 229 669 239 c 128,-1,4
 693 249 693 249 719 249 c 0,5,6
 761 249 761 249 790.5 231 c 128,-1,7
 820 213 820 213 838.5 184.5 c 128,-1,8
 857 156 857 156 865.5 120 c 128,-1,9
 874 84 874 84 874 47 c 0,10,11
 874 -31 874 -31 853 -90.5 c 128,-1,12
 832 -150 832 -150 786 -198 c 1,13,14
 757 -226 757 -226 733.5 -238 c 128,-1,15
 710 -250 710 -250 691 -250 c 0,16,17
 662 -250 662 -250 643 -229 c 128,-1,18
 624 -208 624 -208 624 -180 c 0,19,20
 624 -162 624 -162 631.5 -148 c 128,-1,21
 639 -134 639 -134 648.5 -121 c 128,-1,22
 658 -108 658 -108 665.5 -94 c 128,-1,23
 673 -80 673 -80 673 -61 c 256,24,25
 673 -42 673 -42 664 -22 c 128,-1,26
 655 -2 655 -2 633 17 c 0,27,28
 613 35 613 35 600.5 62.5 c 128,-1,29
 588 90 588 90 588 117 c 0,0,1
149 117 m 0,30,31
 149 145 149 145 159.5 169 c 128,-1,32
 170 193 170 193 188 211 c 128,-1,33
 206 229 206 229 230 239 c 128,-1,34
 254 249 254 249 280 249 c 0,35,36
 322 249 322 249 351.5 231 c 128,-1,37
 381 213 381 213 399.5 184.5 c 128,-1,38
 418 156 418 156 426.5 120 c 128,-1,39
 435 84 435 84 435 47 c 0,40,41
 435 -31 435 -31 414 -90.5 c 128,-1,42
 393 -150 393 -150 347 -198 c 1,43,44
 318 -226 318 -226 294.5 -238 c 128,-1,45
 271 -250 271 -250 252 -250 c 0,46,47
 223 -250 223 -250 204 -229 c 128,-1,48
 185 -208 185 -208 185 -180 c 0,49,50
 185 -162 185 -162 192.5 -148 c 128,-1,51
 200 -134 200 -134 209.5 -121 c 128,-1,52
 219 -108 219 -108 226.5 -94 c 128,-1,53
 234 -80 234 -80 234 -61 c 256,54,55
 234 -42 234 -42 225 -22 c 128,-1,56
 216 -2 216 -2 194 17 c 0,57,58
 174 35 174 35 161.5 62.5 c 128,-1,59
 149 90 149 90 149 117 c 0,30,31
EndSplineSet
EndChar

StartChar: guilsinglleft
Encoding: 8249 8249 85
Width: 1023
Flags: W
LayerCount: 2
Fore
SplineSet
324 435 m 1,0,1
 302 455 302 455 285.5 478.5 c 128,-1,2
 269 502 269 502 269 537 c 0,3,4
 269 569 269 569 285.5 591 c 128,-1,5
 302 613 302 613 324 633 c 1,6,-1
 620 931 l 2,7,8
 630 941 630 941 643 946 c 128,-1,9
 656 951 656 951 669 951 c 0,10,11
 698 951 698 951 715 930.5 c 128,-1,12
 732 910 732 910 732 886 c 1,13,14
 733 874 733 874 728.5 863.5 c 128,-1,15
 724 853 724 853 718 843 c 2,16,-1
 514 534 l 1,17,-1
 718 225 l 2,18,19
 732 205 732 205 732 182 c 0,20,21
 732 158 732 158 715 137.5 c 128,-1,22
 698 117 698 117 669 117 c 0,23,24
 656 117 656 117 643 122 c 128,-1,25
 630 127 630 127 620 137 c 2,26,-1
 324 435 l 1,0,1
EndSplineSet
EndChar

StartChar: guilsinglright
Encoding: 8250 8250 86
Width: 1023
Flags: W
LayerCount: 2
Fore
SplineSet
311 132 m 1,0,1
 300 143 300 143 295 155.5 c 128,-1,2
 290 168 290 168 290 182 c 1,3,4
 289 194 289 194 293 204.5 c 128,-1,5
 297 215 297 215 304 225 c 2,6,-1
 508 534 l 1,7,-1
 304 843 l 2,8,9
 290 863 290 863 290 886 c 0,10,11
 290 910 290 910 306.5 930.5 c 128,-1,12
 323 951 323 951 352 951 c 1,13,14
 366 950 366 950 379 945.5 c 128,-1,15
 392 941 392 941 402 931 c 2,16,-1
 698 633 l 1,17,18
 720 613 720 613 736.5 591 c 128,-1,19
 753 569 753 569 753 537 c 0,20,21
 753 502 753 502 736.5 478.5 c 128,-1,22
 720 455 720 455 698 435 c 1,23,-1
 402 137 l 2,24,25
 392 127 392 127 379 122 c 128,-1,26
 366 117 366 117 352 117 c 0,27,28
 329 117 329 117 311 132 c 1,0,1
EndSplineSet
EndChar

StartChar: guillemotleft
Encoding: 171 171 87
Width: 1495
Flags: W
LayerCount: 2
Fore
SplineSet
796 435 m 1,0,1
 774 455 774 455 757.5 478.5 c 128,-1,2
 741 502 741 502 741 537 c 0,3,4
 741 569 741 569 757.5 591 c 128,-1,5
 774 613 774 613 796 633 c 1,6,-1
 1092 931 l 2,7,8
 1102 941 1102 941 1115 946 c 128,-1,9
 1128 951 1128 951 1141 951 c 0,10,11
 1170 951 1170 951 1187 930.5 c 128,-1,12
 1204 910 1204 910 1204 886 c 1,13,14
 1205 874 1205 874 1200.5 863.5 c 128,-1,15
 1196 853 1196 853 1190 843 c 2,16,-1
 986 534 l 1,17,-1
 1190 225 l 2,18,19
 1204 205 1204 205 1204 182 c 0,20,21
 1204 158 1204 158 1187 137.5 c 128,-1,22
 1170 117 1170 117 1141 117 c 0,23,24
 1114 117 1114 117 1092 137 c 1,25,-1
 796 435 l 1,0,1
324 435 m 1,26,27
 302 455 302 455 285.5 478.5 c 128,-1,28
 269 502 269 502 269 537 c 0,29,30
 269 569 269 569 285.5 591 c 128,-1,31
 302 613 302 613 324 633 c 1,32,-1
 620 931 l 2,33,34
 630 941 630 941 643 946 c 128,-1,35
 656 951 656 951 669 951 c 0,36,37
 698 951 698 951 715 930.5 c 128,-1,38
 732 910 732 910 732 886 c 1,39,40
 733 874 733 874 728.5 863.5 c 128,-1,41
 724 853 724 853 718 843 c 2,42,-1
 514 534 l 1,43,-1
 718 225 l 2,44,45
 732 205 732 205 732 182 c 0,46,47
 732 158 732 158 715 137.5 c 128,-1,48
 698 117 698 117 669 117 c 0,49,50
 656 117 656 117 643 122 c 128,-1,51
 630 127 630 127 620 137 c 2,52,-1
 324 435 l 1,26,27
EndSplineSet
EndChar

StartChar: guillemotright
Encoding: 187 187 88
Width: 1495
Flags: W
LayerCount: 2
Fore
SplineSet
783 132 m 1,0,1
 772 143 772 143 767 155.5 c 128,-1,2
 762 168 762 168 762 182 c 1,3,4
 761 194 761 194 765 204.5 c 128,-1,5
 769 215 769 215 776 225 c 2,6,-1
 980 534 l 1,7,-1
 776 843 l 2,8,9
 762 863 762 863 762 886 c 0,10,11
 762 910 762 910 778.5 930.5 c 128,-1,12
 795 951 795 951 824 951 c 1,13,14
 838 950 838 950 851 945.5 c 128,-1,15
 864 941 864 941 874 931 c 2,16,-1
 1170 633 l 1,17,18
 1192 613 1192 613 1208.5 591 c 128,-1,19
 1225 569 1225 569 1225 537 c 0,20,21
 1225 502 1225 502 1208.5 478.5 c 128,-1,22
 1192 455 1192 455 1170 435 c 1,23,-1
 874 137 l 2,24,25
 864 127 864 127 851 122 c 128,-1,26
 838 117 838 117 824 117 c 0,27,28
 801 117 801 117 783 132 c 1,0,1
311 132 m 1,29,30
 300 143 300 143 295 155.5 c 128,-1,31
 290 168 290 168 290 182 c 1,32,33
 289 194 289 194 293 204.5 c 128,-1,34
 297 215 297 215 304 225 c 2,35,-1
 508 534 l 1,36,-1
 304 843 l 2,37,38
 290 863 290 863 290 886 c 0,39,40
 290 910 290 910 306.5 930.5 c 128,-1,41
 323 951 323 951 352 951 c 1,42,43
 366 950 366 950 379 945.5 c 128,-1,44
 392 941 392 941 402 931 c 2,45,-1
 698 633 l 1,46,47
 720 613 720 613 736.5 591 c 128,-1,48
 753 569 753 569 753 537 c 0,49,50
 753 502 753 502 736.5 478.5 c 128,-1,51
 720 455 720 455 698 435 c 1,52,-1
 402 137 l 2,53,54
 392 127 392 127 379 122 c 128,-1,55
 366 117 366 117 352 117 c 0,56,57
 329 117 329 117 311 132 c 1,29,30
EndSplineSet
EndChar

StartChar: onesuperior
Encoding: 185 185 89
Width: 845
Flags: W
LayerCount: 2
Fore
SplineSet
420 646 m 0,0,1
 400 646 400 646 383 653 c 128,-1,2
 366 660 366 660 353 672.5 c 128,-1,3
 340 685 340 685 333 702 c 128,-1,4
 326 719 326 719 326 738 c 2,5,-1
 326 1218 l 1,6,-1
 281 1218 l 2,7,8
 252 1218 252 1218 232 1238.5 c 128,-1,9
 212 1259 212 1259 212 1288 c 256,10,11
 212 1317 212 1317 232 1338 c 128,-1,12
 252 1359 252 1359 281 1359 c 2,13,-1
 442 1359 l 2,14,15
 472 1359 472 1359 492 1338.5 c 128,-1,16
 512 1318 512 1318 512 1289 c 2,17,-1
 512 738 l 2,18,19
 512 699 512 699 485.5 672.5 c 128,-1,20
 459 646 459 646 420 646 c 0,0,1
EndSplineSet
EndChar

StartChar: twosuperior
Encoding: 178 178 90
Width: 845
Flags: W
LayerCount: 2
Fore
SplineSet
234 666 m 2,0,1
 195 666 195 666 168.5 692.5 c 128,-1,2
 142 719 142 719 142 758 c 0,3,4
 142 799 142 799 148 830.5 c 128,-1,5
 154 862 154 862 173 890.5 c 128,-1,6
 192 919 192 919 226.5 947.5 c 128,-1,7
 261 976 261 976 318 1009 c 2,8,-1
 470 1098 l 2,9,10
 490 1109 490 1109 502.5 1126 c 128,-1,11
 515 1143 515 1143 515 1162 c 0,12,13
 515 1182 515 1182 499.5 1200 c 128,-1,14
 484 1218 484 1218 455 1218 c 2,15,-1
 238 1218 l 2,16,17
 209 1218 209 1218 189 1238.5 c 128,-1,18
 169 1259 169 1259 169 1288 c 256,19,20
 169 1317 169 1317 189 1338 c 128,-1,21
 209 1359 209 1359 238 1359 c 2,22,-1
 472 1359 l 2,23,24
 530 1359 530 1359 573.5 1342.5 c 128,-1,25
 617 1326 617 1326 645.5 1298.5 c 128,-1,26
 674 1271 674 1271 688 1235.5 c 128,-1,27
 702 1200 702 1200 702 1162 c 0,28,29
 702 1089 702 1089 659.5 1037 c 128,-1,30
 617 985 617 985 545 946 c 2,31,-1
 409 872 l 2,32,33
 381 857 381 857 366.5 840 c 128,-1,34
 352 823 352 823 347 807 c 1,35,-1
 635 807 l 2,36,37
 662 807 662 807 682 786 c 128,-1,38
 702 765 702 765 702 736 c 256,39,40
 702 707 702 707 682 686.5 c 128,-1,41
 662 666 662 666 634 666 c 2,42,-1
 234 666 l 2,0,1
EndSplineSet
EndChar

StartChar: threesuperior
Encoding: 179 179 91
Width: 845
Flags: W
LayerCount: 2
Fore
SplineSet
244 666 m 2,0,1
 215 666 215 666 194.5 686.5 c 128,-1,2
 174 707 174 707 174 736 c 256,3,4
 174 765 174 765 194.5 786 c 128,-1,5
 215 807 215 807 244 807 c 2,6,-1
 422 807 l 2,7,8
 461 807 461 807 488 829 c 128,-1,9
 515 851 515 851 515 893 c 2,10,-1
 515 956 l 2,11,12
 515 973 515 973 507.5 986.5 c 128,-1,13
 500 1000 500 1000 488 1009 c 128,-1,14
 476 1018 476 1018 461 1022.5 c 128,-1,15
 446 1027 446 1027 431 1027 c 0,16,17
 411 1027 411 1027 398.5 1022.5 c 128,-1,18
 386 1018 386 1018 375 1012.5 c 128,-1,19
 364 1007 364 1007 352.5 1002.5 c 128,-1,20
 341 998 341 998 323 998 c 0,21,22
 300 998 300 998 284 1014 c 128,-1,23
 268 1030 268 1030 268 1053 c 0,24,25
 268 1067 268 1067 274 1079 c 128,-1,26
 280 1091 280 1091 290 1099 c 2,27,-1
 431 1218 l 1,28,-1
 212 1218 l 2,29,30
 182 1218 182 1218 162 1238.5 c 128,-1,31
 142 1259 142 1259 142 1288 c 256,32,33
 142 1317 142 1317 162 1338 c 128,-1,34
 182 1359 182 1359 212 1359 c 2,35,-1
 645 1359 l 2,36,37
 669 1359 669 1359 685.5 1342.5 c 128,-1,38
 702 1326 702 1326 702 1302 c 0,39,40
 702 1285 702 1285 695 1275 c 128,-1,41
 688 1265 688 1265 680 1258 c 2,42,-1
 491 1101 l 1,43,44
 513 1109 513 1109 543 1109 c 0,45,46
 577 1109 577 1109 606 1098 c 128,-1,47
 635 1087 635 1087 656.5 1067 c 128,-1,48
 678 1047 678 1047 690 1019.5 c 128,-1,49
 702 992 702 992 702 958 c 2,50,-1
 702 897 l 2,51,52
 702 789 702 789 630 727.5 c 128,-1,53
 558 666 558 666 422 666 c 2,54,-1
 244 666 l 2,0,1
EndSplineSet
EndChar

StartChar: onequarter
Encoding: 188 188 92
Width: 1687
Flags: W
LayerCount: 2
Fore
SplineSet
987 1361 m 2,0,1
 998 1388 998 1388 1021 1402.5 c 128,-1,2
 1044 1417 1044 1417 1070 1417 c 0,3,4
 1090 1417 1090 1417 1107 1409.5 c 128,-1,5
 1124 1402 1124 1402 1136.5 1389.5 c 128,-1,6
 1149 1377 1149 1377 1156 1361 c 128,-1,7
 1163 1345 1163 1345 1163 1327 c 256,8,9
 1163 1309 1163 1309 1155 1290 c 2,10,-1
 599 -19 l 2,11,12
 587 -45 587 -45 565 -59.5 c 128,-1,13
 543 -74 543 -74 517 -74 c 0,14,15
 496 -74 496 -74 478.5 -66 c 128,-1,16
 461 -58 461 -58 449 -45 c 128,-1,17
 437 -32 437 -32 430.5 -15.5 c 128,-1,18
 424 1 424 1 424 18 c 0,19,20
 424 37 424 37 431 52 c 2,21,-1
 987 1361 l 2,0,1
396 646 m 0,22,23
 376 646 376 646 359 653 c 128,-1,24
 342 660 342 660 329 672.5 c 128,-1,25
 316 685 316 685 309 702 c 128,-1,26
 302 719 302 719 302 738 c 2,27,-1
 302 1218 l 1,28,-1
 257 1218 l 2,29,30
 228 1218 228 1218 208 1238.5 c 128,-1,31
 188 1259 188 1259 188 1288 c 256,32,33
 188 1317 188 1317 208 1338 c 128,-1,34
 228 1359 228 1359 257 1359 c 2,35,-1
 418 1359 l 2,36,37
 448 1359 448 1359 468 1338.5 c 128,-1,38
 488 1318 488 1318 488 1289 c 2,39,-1
 488 738 l 2,40,41
 488 699 488 699 461.5 672.5 c 128,-1,42
 435 646 435 646 396 646 c 0,22,23
1133 661 m 1,43,44
 1143 682 1143 682 1165 697.5 c 128,-1,45
 1187 713 1187 713 1216 713 c 0,46,47
 1241 713 1241 713 1258.5 704 c 128,-1,48
 1276 695 1276 695 1287.5 681 c 128,-1,49
 1299 667 1299 667 1304 650.5 c 128,-1,50
 1309 634 1309 634 1309 619 c 0,51,52
 1309 602 1309 602 1302 586 c 2,53,-1
 1138 254 l 1,54,-1
 1301 254 l 1,55,-1
 1301 380 l 2,56,57
 1301 399 1301 399 1308 415.5 c 128,-1,58
 1315 432 1315 432 1327.5 444.5 c 128,-1,59
 1340 457 1340 457 1356.5 464.5 c 128,-1,60
 1373 472 1373 472 1393 472 c 0,61,62
 1432 472 1432 472 1459 445.5 c 128,-1,63
 1486 419 1486 419 1486 380 c 2,64,-1
 1486 254 l 1,65,-1
 1532 254 l 2,66,67
 1560 254 1560 254 1580.5 233 c 128,-1,68
 1601 212 1601 212 1601 183 c 256,69,70
 1601 154 1601 154 1581 133.5 c 128,-1,71
 1561 113 1561 113 1532 113 c 2,72,-1
 1486 113 l 1,73,-1
 1486 53 l 2,74,75
 1486 34 1486 34 1479 17 c 128,-1,76
 1472 0 1472 0 1459.5 -12.5 c 128,-1,77
 1447 -25 1447 -25 1430 -32 c 128,-1,78
 1413 -39 1413 -39 1393 -39 c 0,79,80
 1354 -39 1354 -39 1327.5 -12.5 c 128,-1,81
 1301 14 1301 14 1301 53 c 2,82,-1
 1301 113 l 1,83,-1
 1010 113 l 2,84,85
 979 113 979 113 959.5 134.5 c 128,-1,86
 940 156 940 156 940 183 c 0,87,88
 940 196 940 196 946 210 c 2,89,-1
 1133 661 l 1,43,44
EndSplineSet
EndChar

StartChar: onehalf
Encoding: 189 189 93
Width: 1687
Flags: W
LayerCount: 2
Fore
SplineSet
987 1361 m 2,0,1
 998 1388 998 1388 1021 1402.5 c 128,-1,2
 1044 1417 1044 1417 1070 1417 c 0,3,4
 1090 1417 1090 1417 1107 1409.5 c 128,-1,5
 1124 1402 1124 1402 1136.5 1389.5 c 128,-1,6
 1149 1377 1149 1377 1156 1361 c 128,-1,7
 1163 1345 1163 1345 1163 1327 c 256,8,9
 1163 1309 1163 1309 1155 1290 c 2,10,-1
 599 -19 l 2,11,12
 587 -45 587 -45 565 -59.5 c 128,-1,13
 543 -74 543 -74 517 -74 c 0,14,15
 496 -74 496 -74 478.5 -66 c 128,-1,16
 461 -58 461 -58 449 -45 c 128,-1,17
 437 -32 437 -32 430.5 -15.5 c 128,-1,18
 424 1 424 1 424 18 c 0,19,20
 424 37 424 37 431 52 c 2,21,-1
 987 1361 l 2,0,1
396 646 m 0,22,23
 376 646 376 646 359 653 c 128,-1,24
 342 660 342 660 329 672.5 c 128,-1,25
 316 685 316 685 309 702 c 128,-1,26
 302 719 302 719 302 738 c 2,27,-1
 302 1218 l 1,28,-1
 257 1218 l 2,29,30
 228 1218 228 1218 208 1238.5 c 128,-1,31
 188 1259 188 1259 188 1288 c 256,32,33
 188 1317 188 1317 208 1338 c 128,-1,34
 228 1359 228 1359 257 1359 c 2,35,-1
 418 1359 l 2,36,37
 448 1359 448 1359 468 1338.5 c 128,-1,38
 488 1318 488 1318 488 1289 c 2,39,-1
 488 738 l 2,40,41
 488 699 488 699 461.5 672.5 c 128,-1,42
 435 646 435 646 396 646 c 0,22,23
1020 92 m 0,43,44
 1020 133 1020 133 1026 164.5 c 128,-1,45
 1032 196 1032 196 1051 224.5 c 128,-1,46
 1070 253 1070 253 1104.5 281.5 c 128,-1,47
 1139 310 1139 310 1196 343 c 2,48,-1
 1348 432 l 2,49,50
 1368 443 1368 443 1380.5 460 c 128,-1,51
 1393 477 1393 477 1393 496 c 0,52,53
 1393 516 1393 516 1377.5 534 c 128,-1,54
 1362 552 1362 552 1333 552 c 2,55,-1
 1116 552 l 2,56,57
 1087 552 1087 552 1067 572.5 c 128,-1,58
 1047 593 1047 593 1047 622 c 256,59,60
 1047 651 1047 651 1067 672 c 128,-1,61
 1087 693 1087 693 1116 693 c 2,62,-1
 1350 693 l 2,63,64
 1408 693 1408 693 1451.5 676.5 c 128,-1,65
 1495 660 1495 660 1523.5 632.5 c 128,-1,66
 1552 605 1552 605 1566 569.5 c 128,-1,67
 1580 534 1580 534 1580 496 c 0,68,69
 1580 423 1580 423 1537.5 371 c 128,-1,70
 1495 319 1495 319 1423 280 c 2,71,-1
 1287 206 l 2,72,73
 1259 191 1259 191 1244.5 174 c 128,-1,74
 1230 157 1230 157 1225 141 c 1,75,-1
 1513 141 l 2,76,77
 1540 141 1540 141 1560 120 c 128,-1,78
 1580 99 1580 99 1580 70 c 256,79,80
 1580 41 1580 41 1560 20.5 c 128,-1,81
 1540 0 1540 0 1512 0 c 2,82,-1
 1112 0 l 2,83,84
 1073 0 1073 0 1046.5 26.5 c 128,-1,85
 1020 53 1020 53 1020 92 c 0,43,44
EndSplineSet
EndChar

StartChar: threequarters
Encoding: 190 190 94
Width: 1687
Flags: W
LayerCount: 2
Fore
SplineSet
987 1361 m 2,0,1
 998 1388 998 1388 1021 1402.5 c 128,-1,2
 1044 1417 1044 1417 1070 1417 c 0,3,4
 1090 1417 1090 1417 1107 1409.5 c 128,-1,5
 1124 1402 1124 1402 1136.5 1389.5 c 128,-1,6
 1149 1377 1149 1377 1156 1361 c 128,-1,7
 1163 1345 1163 1345 1163 1327 c 256,8,9
 1163 1309 1163 1309 1155 1290 c 2,10,-1
 599 -19 l 2,11,12
 587 -45 587 -45 565 -59.5 c 128,-1,13
 543 -74 543 -74 517 -74 c 0,14,15
 496 -74 496 -74 478.5 -66 c 128,-1,16
 461 -58 461 -58 449 -45 c 128,-1,17
 437 -32 437 -32 430.5 -15.5 c 128,-1,18
 424 1 424 1 424 18 c 0,19,20
 424 37 424 37 431 52 c 2,21,-1
 987 1361 l 2,0,1
175 666 m 2,22,23
 146 666 146 666 125.5 686.5 c 128,-1,24
 105 707 105 707 105 736 c 256,25,26
 105 765 105 765 125.5 786 c 128,-1,27
 146 807 146 807 175 807 c 2,28,-1
 353 807 l 2,29,30
 392 807 392 807 419 829 c 128,-1,31
 446 851 446 851 446 893 c 2,32,-1
 446 956 l 2,33,34
 446 973 446 973 438.5 986.5 c 128,-1,35
 431 1000 431 1000 419 1009 c 128,-1,36
 407 1018 407 1018 392 1022.5 c 128,-1,37
 377 1027 377 1027 362 1027 c 0,38,39
 342 1027 342 1027 329.5 1022.5 c 128,-1,40
 317 1018 317 1018 306 1012.5 c 128,-1,41
 295 1007 295 1007 283.5 1002.5 c 128,-1,42
 272 998 272 998 254 998 c 0,43,44
 231 998 231 998 215 1014 c 128,-1,45
 199 1030 199 1030 199 1053 c 0,46,47
 199 1067 199 1067 205 1079 c 128,-1,48
 211 1091 211 1091 221 1099 c 2,49,-1
 362 1218 l 1,50,-1
 143 1218 l 2,51,52
 113 1218 113 1218 93 1238.5 c 128,-1,53
 73 1259 73 1259 73 1288 c 256,54,55
 73 1317 73 1317 93 1338 c 128,-1,56
 113 1359 113 1359 143 1359 c 2,57,-1
 576 1359 l 2,58,59
 600 1359 600 1359 616.5 1342.5 c 128,-1,60
 633 1326 633 1326 633 1302 c 0,61,62
 633 1285 633 1285 626 1275 c 128,-1,63
 619 1265 619 1265 611 1258 c 2,64,-1
 422 1101 l 1,65,66
 444 1109 444 1109 474 1109 c 0,67,68
 508 1109 508 1109 537 1098 c 128,-1,69
 566 1087 566 1087 587.5 1067 c 128,-1,70
 609 1047 609 1047 621 1019.5 c 128,-1,71
 633 992 633 992 633 958 c 2,72,-1
 633 897 l 2,73,74
 633 789 633 789 561 727.5 c 128,-1,75
 489 666 489 666 353 666 c 2,76,-1
 175 666 l 2,22,23
1133 661 m 1,77,78
 1143 682 1143 682 1165 697.5 c 128,-1,79
 1187 713 1187 713 1216 713 c 0,80,81
 1241 713 1241 713 1258.5 704 c 128,-1,82
 1276 695 1276 695 1287.5 681 c 128,-1,83
 1299 667 1299 667 1304 650.5 c 128,-1,84
 1309 634 1309 634 1309 619 c 0,85,86
 1309 602 1309 602 1302 586 c 2,87,-1
 1138 254 l 1,88,-1
 1301 254 l 1,89,-1
 1301 380 l 2,90,91
 1301 399 1301 399 1308 415.5 c 128,-1,92
 1315 432 1315 432 1327.5 444.5 c 128,-1,93
 1340 457 1340 457 1356.5 464.5 c 128,-1,94
 1373 472 1373 472 1393 472 c 0,95,96
 1432 472 1432 472 1459 445.5 c 128,-1,97
 1486 419 1486 419 1486 380 c 2,98,-1
 1486 254 l 1,99,-1
 1532 254 l 2,100,101
 1560 254 1560 254 1580.5 233 c 128,-1,102
 1601 212 1601 212 1601 183 c 256,103,104
 1601 154 1601 154 1581 133.5 c 128,-1,105
 1561 113 1561 113 1532 113 c 2,106,-1
 1486 113 l 1,107,-1
 1486 53 l 2,108,109
 1486 34 1486 34 1479 17 c 128,-1,110
 1472 0 1472 0 1459.5 -12.5 c 128,-1,111
 1447 -25 1447 -25 1430 -32 c 128,-1,112
 1413 -39 1413 -39 1393 -39 c 0,113,114
 1354 -39 1354 -39 1327.5 -12.5 c 128,-1,115
 1301 14 1301 14 1301 53 c 2,116,-1
 1301 113 l 1,117,-1
 1010 113 l 2,118,119
 979 113 979 113 959.5 134.5 c 128,-1,120
 940 156 940 156 940 183 c 0,121,122
 940 196 940 196 946 210 c 2,123,-1
 1133 661 l 1,77,78
EndSplineSet
EndChar

StartChar: ordfeminine
Encoding: 170 170 95
Width: 845
Flags: W
LayerCount: 2
Fore
SplineSet
354 676 m 0,0,1
 320 676 320 676 290 691 c 128,-1,2
 260 706 260 706 237.5 731.5 c 128,-1,3
 215 757 215 757 201.5 791 c 128,-1,4
 188 825 188 825 188 863 c 2,5,-1
 188 950 l 2,6,7
 188 989 188 989 202.5 1022.5 c 128,-1,8
 217 1056 217 1056 242.5 1081.5 c 128,-1,9
 268 1107 268 1107 302 1121.5 c 128,-1,10
 336 1136 336 1136 375 1136 c 2,11,-1
 487 1136 l 1,12,-1
 487 1172 l 2,13,14
 487 1204 487 1204 465.5 1225.5 c 128,-1,15
 444 1247 444 1247 412 1247 c 2,16,-1
 301 1247 l 2,17,18
 277 1247 277 1247 260 1263.5 c 128,-1,19
 243 1280 243 1280 243 1303 c 0,20,21
 243 1327 243 1327 260 1343.5 c 128,-1,22
 277 1360 277 1360 301 1360 c 2,23,-1
 450 1360 l 2,24,25
 488 1360 488 1360 522 1345.5 c 128,-1,26
 556 1331 556 1331 581.5 1305.5 c 128,-1,27
 607 1280 607 1280 621.5 1246.5 c 128,-1,28
 636 1213 636 1213 636 1174 c 2,29,-1
 636 750 l 2,30,31
 636 720 636 720 614.5 698 c 128,-1,32
 593 676 593 676 561 676 c 0,33,34
 544 676 544 676 532 681.5 c 128,-1,35
 520 687 520 687 512.5 694 c 128,-1,36
 505 701 505 701 500.5 708.5 c 128,-1,37
 496 716 496 716 494 719 c 0,38,39
 492 724 492 724 488 729.5 c 128,-1,40
 484 735 484 735 476 735 c 256,41,42
 468 735 468 735 463 729.5 c 128,-1,43
 458 724 458 724 453 719 c 0,44,45
 436 702 436 702 413 689 c 128,-1,46
 390 676 390 676 354 676 c 0,0,1
412 790 m 0,47,48
 443 790 443 790 465 807 c 128,-1,49
 487 824 487 824 487 854 c 2,50,-1
 487 1023 l 1,51,-1
 412 1023 l 2,52,53
 380 1023 380 1023 358.5 1001.5 c 128,-1,54
 337 980 337 980 337 948 c 2,55,-1
 337 864 l 2,56,57
 337 833 337 833 358.5 811.5 c 128,-1,58
 380 790 380 790 412 790 c 0,47,48
269 420 m 2,59,60
 241 420 241 420 224.5 436 c 128,-1,61
 208 452 208 452 208 477 c 0,62,63
 208 500 208 500 224.5 516 c 128,-1,64
 241 532 241 532 266 532 c 2,65,-1
 558 531 l 2,66,67
 583 531 583 531 599 515 c 128,-1,68
 615 499 615 499 615 476 c 0,69,70
 615 451 615 451 598.5 435.5 c 128,-1,71
 582 420 582 420 559 420 c 2,72,-1
 269 420 l 2,59,60
EndSplineSet
EndChar

StartChar: ordmasculine
Encoding: 186 186 96
Width: 845
Flags: W
LayerCount: 2
Fore
SplineSet
414 675 m 0,0,1
 308 675 308 675 248.5 724.5 c 128,-1,2
 189 774 189 774 189 862 c 2,3,-1
 189 1188 l 2,4,5
 189 1273 189 1273 247 1323 c 128,-1,6
 305 1373 305 1373 414 1373 c 0,7,8
 520 1373 520 1373 579 1322.5 c 128,-1,9
 638 1272 638 1272 638 1187 c 2,10,-1
 638 860 l 2,11,12
 638 775 638 775 580.5 725 c 128,-1,13
 523 675 523 675 414 675 c 0,0,1
414 790 m 256,14,15
 446 790 446 790 467.5 807.5 c 128,-1,16
 489 825 489 825 489 857 c 2,17,-1
 489 1185 l 2,18,19
 489 1216 489 1216 467.5 1238 c 128,-1,20
 446 1260 446 1260 414 1260 c 256,21,22
 382 1260 382 1260 360.5 1238 c 128,-1,23
 339 1216 339 1216 339 1185 c 2,24,-1
 339 857 l 2,25,26
 339 825 339 825 360.5 807.5 c 128,-1,27
 382 790 382 790 414 790 c 256,14,15
278 420 m 2,28,29
 250 420 250 420 233.5 436 c 128,-1,30
 217 452 217 452 217 477 c 0,31,32
 217 500 217 500 233.5 516 c 128,-1,33
 250 532 250 532 275 532 c 2,34,-1
 567 532 l 2,35,36
 591 532 591 532 607.5 515.5 c 128,-1,37
 624 499 624 499 624 476 c 0,38,39
 624 451 624 451 607.5 435.5 c 128,-1,40
 591 420 591 420 568 420 c 2,41,-1
 278 420 l 2,28,29
EndSplineSet
EndChar

StartChar: degree
Encoding: 176 176 97
Width: 845
Flags: W
LayerCount: 2
Fore
SplineSet
424 851 m 256,0,1
 370 851 370 851 321.5 872 c 128,-1,2
 273 893 273 893 236.5 929 c 128,-1,3
 200 965 200 965 179 1012.5 c 128,-1,4
 158 1060 158 1060 158 1114 c 256,5,6
 158 1168 158 1168 179 1216.5 c 128,-1,7
 200 1265 200 1265 236.5 1301 c 128,-1,8
 273 1337 273 1337 321.5 1358.5 c 128,-1,9
 370 1380 370 1380 424 1380 c 256,10,11
 478 1380 478 1380 526 1358.5 c 128,-1,12
 574 1337 574 1337 610 1301 c 128,-1,13
 646 1265 646 1265 666.5 1216.5 c 128,-1,14
 687 1168 687 1168 687 1114 c 256,15,16
 687 1060 687 1060 666.5 1012 c 128,-1,17
 646 964 646 964 610 928 c 128,-1,18
 574 892 574 892 526 871.5 c 128,-1,19
 478 851 478 851 424 851 c 256,0,1
424 1001 m 0,20,21
 446 1001 446 1001 467 1010.5 c 128,-1,22
 488 1020 488 1020 504 1035.5 c 128,-1,23
 520 1051 520 1051 530 1071.5 c 128,-1,24
 540 1092 540 1092 540 1114 c 0,25,26
 540 1137 540 1137 530.5 1158 c 128,-1,27
 521 1179 521 1179 505 1194.5 c 128,-1,28
 489 1210 489 1210 468 1219.5 c 128,-1,29
 447 1229 447 1229 424 1229 c 0,30,31
 399 1229 399 1229 378 1220 c 128,-1,32
 357 1211 357 1211 341.5 1195.5 c 128,-1,33
 326 1180 326 1180 317 1159 c 128,-1,34
 308 1138 308 1138 308 1114 c 0,35,36
 308 1091 308 1091 317.5 1070.5 c 128,-1,37
 327 1050 327 1050 343 1034.5 c 128,-1,38
 359 1019 359 1019 380 1010 c 128,-1,39
 401 1001 401 1001 424 1001 c 0,20,21
EndSplineSet
EndChar

StartChar: less
Encoding: 60 60 98
Width: 1023
Flags: W
LayerCount: 2
Fore
SplineSet
127 605 m 2,0,1
 104 619 104 619 94 639.5 c 128,-1,2
 84 660 84 660 84 686 c 0,3,4
 84 735 84 735 127 760 c 2,5,-1
 764 1127 l 2,6,7
 783 1138 783 1138 808 1138 c 0,8,9
 825 1138 825 1138 841.5 1131 c 128,-1,10
 858 1124 858 1124 870.5 1112 c 128,-1,11
 883 1100 883 1100 890.5 1083 c 128,-1,12
 898 1066 898 1066 898 1046 c 0,13,14
 898 1023 898 1023 886.5 1003 c 128,-1,15
 875 983 875 983 855 971 c 2,16,-1
 354 682 l 1,17,-1
 855 394 l 2,18,19
 875 382 875 382 886.5 361.5 c 128,-1,20
 898 341 898 341 898 318 c 0,21,22
 898 298 898 298 890.5 281 c 128,-1,23
 883 264 883 264 870 252 c 128,-1,24
 857 240 857 240 841 233 c 128,-1,25
 825 226 825 226 808 226 c 0,26,27
 785 226 785 226 764 238 c 2,28,-1
 127 605 l 2,0,1
EndSplineSet
EndChar

StartChar: greater
Encoding: 62 62 99
Width: 1023
Flags: W
LayerCount: 2
Fore
SplineSet
138 272 m 1,0,1
 125 292 125 292 125 318 c 1,2,3
 124 341 124 341 136 361.5 c 128,-1,4
 148 382 148 382 168 394 c 2,5,-1
 669 682 l 1,6,-1
 168 971 l 2,7,8
 147 983 147 983 136 1003 c 128,-1,9
 125 1023 125 1023 125 1046 c 0,10,11
 125 1066 125 1066 132.5 1083 c 128,-1,12
 140 1100 140 1100 152.5 1112 c 128,-1,13
 165 1124 165 1124 181.5 1131 c 128,-1,14
 198 1138 198 1138 215 1138 c 0,15,16
 240 1138 240 1138 259 1127 c 2,17,-1
 896 760 l 2,18,19
 939 735 939 735 939 686 c 0,20,21
 939 660 939 660 929 639.5 c 128,-1,22
 919 619 919 619 896 605 c 2,23,-1
 259 238 l 2,24,25
 238 226 238 226 215 226 c 256,26,27
 192 226 192 226 171 238 c 128,-1,28
 150 250 150 250 138 272 c 1,0,1
EndSplineSet
EndChar

StartChar: plus
Encoding: 43 43 100
Width: 1023
Flags: W
LayerCount: 2
Fore
SplineSet
420 525 m 1,0,-1
 182 525 l 2,1,2
 164 525 164 525 148 532.5 c 128,-1,3
 132 540 132 540 120 552 c 128,-1,4
 108 564 108 564 101 580.5 c 128,-1,5
 94 597 94 597 94 615 c 0,6,7
 94 634 94 634 101 650.5 c 128,-1,8
 108 667 108 667 120 679.5 c 128,-1,9
 132 692 132 692 148 699 c 128,-1,10
 164 706 164 706 182 706 c 2,11,-1
 420 706 l 1,12,-1
 420 969 l 2,13,14
 420 987 420 987 427.5 1003 c 128,-1,15
 435 1019 435 1019 447 1031 c 128,-1,16
 459 1043 459 1043 475.5 1050 c 128,-1,17
 492 1057 492 1057 510 1057 c 0,18,19
 529 1057 529 1057 545.5 1050 c 128,-1,20
 562 1043 562 1043 574.5 1031 c 128,-1,21
 587 1019 587 1019 594 1003 c 128,-1,22
 601 987 601 987 601 969 c 2,23,-1
 601 706 l 1,24,-1
 840 706 l 2,25,26
 858 706 858 706 874 698.5 c 128,-1,27
 890 691 890 691 902 679 c 128,-1,28
 914 667 914 667 921 650.5 c 128,-1,29
 928 634 928 634 928 616 c 0,30,31
 928 597 928 597 921 580.5 c 128,-1,32
 914 564 914 564 902 551.5 c 128,-1,33
 890 539 890 539 874 532 c 128,-1,34
 858 525 858 525 840 525 c 2,35,-1
 601 525 l 1,36,-1
 601 253 l 2,37,38
 601 235 601 235 593.5 219 c 128,-1,39
 586 203 586 203 574 191 c 128,-1,40
 562 179 562 179 545.5 172 c 128,-1,41
 529 165 529 165 511 165 c 0,42,43
 492 165 492 165 475.5 172 c 128,-1,44
 459 179 459 179 446.5 191 c 128,-1,45
 434 203 434 203 427 219 c 128,-1,46
 420 235 420 235 420 253 c 2,47,-1
 420 525 l 1,0,-1
EndSplineSet
EndChar

StartChar: plusminus
Encoding: 177 177 101
Width: 1023
Flags: W
LayerCount: 2
Fore
SplineSet
511 565 m 0,0,1
 492 565 492 565 475.5 572 c 128,-1,2
 459 579 459 579 446.5 591 c 128,-1,3
 434 603 434 603 427 619 c 128,-1,4
 420 635 420 635 420 653 c 2,5,-1
 420 870 l 1,6,-1
 192 870 l 2,7,8
 174 870 174 870 158 877.5 c 128,-1,9
 142 885 142 885 130 897 c 128,-1,10
 118 909 118 909 111 925.5 c 128,-1,11
 104 942 104 942 104 960 c 0,12,13
 104 979 104 979 111 995.5 c 128,-1,14
 118 1012 118 1012 130 1024.5 c 128,-1,15
 142 1037 142 1037 158 1044 c 128,-1,16
 174 1051 174 1051 192 1051 c 2,17,-1
 420 1051 l 1,18,-1
 420 1259 l 2,19,20
 420 1277 420 1277 427.5 1293 c 128,-1,21
 435 1309 435 1309 447 1321 c 128,-1,22
 459 1333 459 1333 475.5 1340 c 128,-1,23
 492 1347 492 1347 510 1347 c 0,24,25
 529 1347 529 1347 545.5 1340 c 128,-1,26
 562 1333 562 1333 574.5 1321 c 128,-1,27
 587 1309 587 1309 594 1293 c 128,-1,28
 601 1277 601 1277 601 1259 c 2,29,-1
 601 1051 l 1,30,-1
 830 1051 l 2,31,32
 848 1051 848 1051 864 1043.5 c 128,-1,33
 880 1036 880 1036 892 1024 c 128,-1,34
 904 1012 904 1012 911 995.5 c 128,-1,35
 918 979 918 979 918 961 c 0,36,37
 918 942 918 942 911 925.5 c 128,-1,38
 904 909 904 909 892 896.5 c 128,-1,39
 880 884 880 884 864 877 c 128,-1,40
 848 870 848 870 830 870 c 2,41,-1
 601 870 l 1,42,-1
 601 653 l 2,43,44
 601 635 601 635 593.5 619 c 128,-1,45
 586 603 586 603 574 591 c 128,-1,46
 562 579 562 579 545.5 572 c 128,-1,47
 529 565 529 565 511 565 c 0,0,1
192 155 m 2,48,49
 174 155 174 155 158 162.5 c 128,-1,50
 142 170 142 170 130 182 c 128,-1,51
 118 194 118 194 111 210.5 c 128,-1,52
 104 227 104 227 104 245 c 0,53,54
 104 264 104 264 111 280.5 c 128,-1,55
 118 297 118 297 130 309.5 c 128,-1,56
 142 322 142 322 158 329 c 128,-1,57
 174 336 174 336 192 336 c 2,58,-1
 830 336 l 2,59,60
 848 336 848 336 864 328.5 c 128,-1,61
 880 321 880 321 892 309 c 128,-1,62
 904 297 904 297 911 280.5 c 128,-1,63
 918 264 918 264 918 246 c 0,64,65
 918 227 918 227 911 210.5 c 128,-1,66
 904 194 904 194 892 181.5 c 128,-1,67
 880 169 880 169 864 162 c 128,-1,68
 848 155 848 155 830 155 c 2,69,-1
 192 155 l 2,48,49
EndSplineSet
EndChar

StartChar: hyphen
Encoding: 45 45 102
Width: 1023
Flags: W
LayerCount: 2
Fore
SplineSet
192 525 m 2,0,1
 174 525 174 525 158 532.5 c 128,-1,2
 142 540 142 540 130 552 c 128,-1,3
 118 564 118 564 111 580.5 c 128,-1,4
 104 597 104 597 104 615 c 0,5,6
 104 634 104 634 111 650.5 c 128,-1,7
 118 667 118 667 130 679.5 c 128,-1,8
 142 692 142 692 158 699 c 128,-1,9
 174 706 174 706 192 706 c 2,10,-1
 830 706 l 2,11,12
 848 706 848 706 864 698.5 c 128,-1,13
 880 691 880 691 892 679 c 128,-1,14
 904 667 904 667 911 650.5 c 128,-1,15
 918 634 918 634 918 616 c 0,16,17
 918 597 918 597 911 580.5 c 128,-1,18
 904 564 904 564 892 551.5 c 128,-1,19
 880 539 880 539 864 532 c 128,-1,20
 848 525 848 525 830 525 c 2,21,-1
 192 525 l 2,0,1
EndSplineSet
EndChar

StartChar: equal
Encoding: 61 61 103
Width: 1023
Flags: W
LayerCount: 2
Fore
SplineSet
192 706 m 2,0,1
 174 706 174 706 158 713.5 c 128,-1,2
 142 721 142 721 130 733 c 128,-1,3
 118 745 118 745 111 761.5 c 128,-1,4
 104 778 104 778 104 796 c 0,5,6
 104 815 104 815 111 831.5 c 128,-1,7
 118 848 118 848 130 860.5 c 128,-1,8
 142 873 142 873 158 880 c 128,-1,9
 174 887 174 887 192 887 c 2,10,-1
 830 887 l 2,11,12
 848 887 848 887 864 879.5 c 128,-1,13
 880 872 880 872 892 860 c 128,-1,14
 904 848 904 848 911 831.5 c 128,-1,15
 918 815 918 815 918 797 c 0,16,17
 918 778 918 778 911 761.5 c 128,-1,18
 904 745 904 745 892 732.5 c 128,-1,19
 880 720 880 720 864 713 c 128,-1,20
 848 706 848 706 830 706 c 2,21,-1
 192 706 l 2,0,1
192 344 m 2,22,23
 174 344 174 344 158 351.5 c 128,-1,24
 142 359 142 359 130 371 c 128,-1,25
 118 383 118 383 111 399.5 c 128,-1,26
 104 416 104 416 104 434 c 0,27,28
 104 453 104 453 111 469.5 c 128,-1,29
 118 486 118 486 130 498.5 c 128,-1,30
 142 511 142 511 158 518 c 128,-1,31
 174 525 174 525 192 525 c 2,32,-1
 830 525 l 2,33,34
 848 525 848 525 864 517.5 c 128,-1,35
 880 510 880 510 892 498 c 128,-1,36
 904 486 904 486 911 469.5 c 128,-1,37
 918 453 918 453 918 435 c 0,38,39
 918 416 918 416 911 399.5 c 128,-1,40
 904 383 904 383 892 370.5 c 128,-1,41
 880 358 880 358 864 351 c 128,-1,42
 848 344 848 344 830 344 c 2,43,-1
 192 344 l 2,22,23
EndSplineSet
EndChar

StartChar: multiply
Encoding: 215 215 104
Width: 1023
Flags: W
LayerCount: 2
Fore
SplineSet
183 371 m 256,0,1
 169 385 169 385 162 402 c 128,-1,2
 155 419 155 419 155 436 c 0,3,4
 155 473 155 473 180 498 c 2,5,-1
 383 701 l 1,6,-1
 180 904 l 2,7,8
 167 917 167 917 161 932.5 c 128,-1,9
 155 948 155 948 155 965 c 0,10,11
 155 983 155 983 162.5 1000 c 128,-1,12
 170 1017 170 1017 182.5 1029.5 c 128,-1,13
 195 1042 195 1042 211.5 1050 c 128,-1,14
 228 1058 228 1058 246 1058 c 0,15,16
 282 1058 282 1058 308 1032 c 2,17,-1
 511 829 l 1,18,-1
 715 1032 l 2,19,20
 741 1058 741 1058 776 1058 c 0,21,22
 795 1058 795 1058 811.5 1050 c 128,-1,23
 828 1042 828 1042 840.5 1029.5 c 128,-1,24
 853 1017 853 1017 860.5 1000 c 128,-1,25
 868 983 868 983 868 965 c 0,26,27
 868 948 868 948 862 932.5 c 128,-1,28
 856 917 856 917 843 904 c 2,29,-1
 639 701 l 1,30,-1
 843 498 l 2,31,32
 868 473 868 473 868 436 c 0,33,34
 868 418 868 418 860.5 401.5 c 128,-1,35
 853 385 853 385 840.5 372 c 128,-1,36
 828 359 828 359 811 351.5 c 128,-1,37
 794 344 794 344 776 344 c 0,38,39
 741 344 741 344 715 370 c 2,40,-1
 511 573 l 1,41,-1
 308 370 l 2,42,43
 282 344 282 344 246 344 c 0,44,45
 229 344 229 344 213 350.5 c 128,-1,46
 197 357 197 357 183 371 c 256,0,1
EndSplineSet
EndChar

StartChar: divide
Encoding: 247 247 105
Width: 1023
Flags: W
LayerCount: 2
Fore
SplineSet
506 896 m 256,0,1
 479 896 479 896 454.5 906.5 c 128,-1,2
 430 917 430 917 411.5 935.5 c 128,-1,3
 393 954 393 954 382 978 c 128,-1,4
 371 1002 371 1002 371 1029 c 0,5,6
 371 1057 371 1057 382 1081.5 c 128,-1,7
 393 1106 393 1106 411.5 1124.5 c 128,-1,8
 430 1143 430 1143 454.5 1153.5 c 128,-1,9
 479 1164 479 1164 506 1164 c 256,10,11
 533 1164 533 1164 557.5 1153.5 c 128,-1,12
 582 1143 582 1143 600.5 1124.5 c 128,-1,13
 619 1106 619 1106 630 1081.5 c 128,-1,14
 641 1057 641 1057 641 1029 c 0,15,16
 641 1002 641 1002 630 978 c 128,-1,17
 619 954 619 954 600.5 935.5 c 128,-1,18
 582 917 582 917 557.5 906.5 c 128,-1,19
 533 896 533 896 506 896 c 256,0,1
192 525 m 2,20,21
 174 525 174 525 158 532.5 c 128,-1,22
 142 540 142 540 130 552 c 128,-1,23
 118 564 118 564 111 580.5 c 128,-1,24
 104 597 104 597 104 615 c 0,25,26
 104 634 104 634 111 650.5 c 128,-1,27
 118 667 118 667 130 679.5 c 128,-1,28
 142 692 142 692 158 699 c 128,-1,29
 174 706 174 706 192 706 c 2,30,-1
 830 706 l 2,31,32
 848 706 848 706 864 698.5 c 128,-1,33
 880 691 880 691 892 679 c 128,-1,34
 904 667 904 667 911 650.5 c 128,-1,35
 918 634 918 634 918 616 c 0,36,37
 918 597 918 597 911 580.5 c 128,-1,38
 904 564 904 564 892 551.5 c 128,-1,39
 880 539 880 539 864 532 c 128,-1,40
 848 525 848 525 830 525 c 2,41,-1
 192 525 l 2,20,21
371 210 m 0,42,43
 371 238 371 238 382 262.5 c 128,-1,44
 393 287 393 287 411.5 305.5 c 128,-1,45
 430 324 430 324 454.5 334.5 c 128,-1,46
 479 345 479 345 506 345 c 256,47,48
 533 345 533 345 557.5 334.5 c 128,-1,49
 582 324 582 324 600.5 305.5 c 128,-1,50
 619 287 619 287 630 262.5 c 128,-1,51
 641 238 641 238 641 210 c 0,52,53
 641 183 641 183 630 159 c 128,-1,54
 619 135 619 135 600.5 116.5 c 128,-1,55
 582 98 582 98 557.5 87.5 c 128,-1,56
 533 77 533 77 506 77 c 256,57,58
 479 77 479 77 454.5 87.5 c 128,-1,59
 430 98 430 98 411.5 116.5 c 128,-1,60
 393 135 393 135 382 159 c 128,-1,61
 371 183 371 183 371 210 c 0,42,43
EndSplineSet
EndChar

StartChar: logicalnot
Encoding: 172 172 106
Width: 1023
Flags: W
LayerCount: 2
Fore
SplineSet
192 525 m 2,0,1
 174 525 174 525 158 532.5 c 128,-1,2
 142 540 142 540 130 552 c 128,-1,3
 118 564 118 564 111 580.5 c 128,-1,4
 104 597 104 597 104 615 c 0,5,6
 104 634 104 634 111 650.5 c 128,-1,7
 118 667 118 667 130 679.5 c 128,-1,8
 142 692 142 692 158 699 c 128,-1,9
 174 706 174 706 192 706 c 2,10,-1
 830 706 l 2,11,12
 848 706 848 706 864 698.5 c 128,-1,13
 880 691 880 691 892 679 c 128,-1,14
 904 667 904 667 911 650.5 c 128,-1,15
 918 634 918 634 918 616 c 2,16,-1
 918 299 l 2,17,18
 918 281 918 281 910.5 265 c 128,-1,19
 903 249 903 249 891 237 c 128,-1,20
 879 225 879 225 862.5 218 c 128,-1,21
 846 211 846 211 828 211 c 0,22,23
 809 211 809 211 792.5 218 c 128,-1,24
 776 225 776 225 763.5 237 c 128,-1,25
 751 249 751 249 744 265 c 128,-1,26
 737 281 737 281 737 299 c 2,27,-1
 737 525 l 1,28,-1
 192 525 l 2,0,1
EndSplineSet
EndChar

StartChar: mu
Encoding: 181 181 107
AltUni2: 0003bc.ffffffff.0
Width: 1023
Flags: W
LayerCount: 2
Fore
SplineSet
156 969 m 2,0,1
 156 993 156 993 165.5 1014.5 c 128,-1,2
 175 1036 175 1036 191 1052 c 128,-1,3
 207 1068 207 1068 229 1077 c 128,-1,4
 251 1086 251 1086 276 1086 c 0,5,6
 300 1086 300 1086 321.5 1076.5 c 128,-1,7
 343 1067 343 1067 359 1051.5 c 128,-1,8
 375 1036 375 1036 384.5 1014.5 c 128,-1,9
 394 993 394 993 394 969 c 2,10,-1
 394 267 l 2,11,12
 394 243 394 243 403.5 223 c 128,-1,13
 413 203 413 203 429.5 189 c 128,-1,14
 446 175 446 175 467 167.5 c 128,-1,15
 488 160 488 160 512 160 c 256,16,17
 536 160 536 160 557.5 169.5 c 128,-1,18
 579 179 579 179 595 195 c 128,-1,19
 611 211 611 211 620.5 232.5 c 128,-1,20
 630 254 630 254 630 279 c 2,21,-1
 630 969 l 2,22,23
 630 993 630 993 639.5 1014.5 c 128,-1,24
 649 1036 649 1036 665 1052 c 128,-1,25
 681 1068 681 1068 703 1077 c 128,-1,26
 725 1086 725 1086 750 1086 c 0,27,28
 774 1086 774 1086 795.5 1076.5 c 128,-1,29
 817 1067 817 1067 833 1051.5 c 128,-1,30
 849 1036 849 1036 858 1014.5 c 128,-1,31
 867 993 867 993 867 969 c 2,32,-1
 867 277 l 2,33,34
 867 254 867 254 876.5 233 c 128,-1,35
 886 212 886 212 902.5 195.5 c 128,-1,36
 919 179 919 179 940 169.5 c 128,-1,37
 961 160 961 160 985 160 c 2,38,-1
 1033 160 l 2,39,40
 1051 160 1051 160 1067 153 c 128,-1,41
 1083 146 1083 146 1095 133.5 c 128,-1,42
 1107 121 1107 121 1114 105 c 128,-1,43
 1121 89 1121 89 1121 71 c 0,44,45
 1121 52 1121 52 1114 35.5 c 128,-1,46
 1107 19 1107 19 1095 6.5 c 128,-1,47
 1083 -6 1083 -6 1067 -13 c 128,-1,48
 1051 -20 1051 -20 1033 -20 c 0,49,50
 966 -20 966 -20 920.5 6.5 c 128,-1,51
 875 33 875 33 845 76 c 0,52,53
 839 85 839 85 831 91 c 128,-1,54
 823 97 823 97 814 97 c 0,55,56
 799 97 799 97 788 83 c 0,57,58
 749 34 749 34 706.5 7 c 128,-1,59
 664 -20 664 -20 606 -20 c 0,60,61
 553 -20 553 -20 519.5 0.5 c 128,-1,62
 486 21 486 21 460 48 c 0,63,64
 452 56 452 56 443.5 64.5 c 128,-1,65
 435 73 435 73 424 73 c 0,66,67
 415 73 415 73 404.5 67 c 128,-1,68
 394 61 394 61 394 44 c 2,69,-1
 394 -322 l 2,70,71
 394 -346 394 -346 384.5 -367.5 c 128,-1,72
 375 -389 375 -389 359 -405 c 128,-1,73
 343 -421 343 -421 321.5 -430 c 128,-1,74
 300 -439 300 -439 276 -439 c 0,75,76
 251 -439 251 -439 229 -429.5 c 128,-1,77
 207 -420 207 -420 191 -404.5 c 128,-1,78
 175 -389 175 -389 165.5 -367.5 c 128,-1,79
 156 -346 156 -346 156 -322 c 2,80,-1
 156 969 l 2,0,1
EndSplineSet
EndChar

StartChar: percent
Encoding: 37 37 108
Width: 1698
Flags: W
LayerCount: 2
Fore
SplineSet
1036 1361 m 2,0,1
 1047 1388 1047 1388 1070 1402.5 c 128,-1,2
 1093 1417 1093 1417 1119 1417 c 0,3,4
 1139 1417 1139 1417 1156 1409.5 c 128,-1,5
 1173 1402 1173 1402 1185.5 1389.5 c 128,-1,6
 1198 1377 1198 1377 1205 1361 c 128,-1,7
 1212 1345 1212 1345 1212 1327 c 256,8,9
 1212 1309 1212 1309 1204 1290 c 2,10,-1
 648 -19 l 2,11,12
 636 -45 636 -45 614 -59.5 c 128,-1,13
 592 -74 592 -74 566 -74 c 0,14,15
 545 -74 545 -74 527.5 -66 c 128,-1,16
 510 -58 510 -58 498 -45 c 128,-1,17
 486 -32 486 -32 479.5 -15.5 c 128,-1,18
 473 1 473 1 473 18 c 0,19,20
 473 37 473 37 480 52 c 2,21,-1
 1036 1361 l 2,0,1
428 646 m 0,22,23
 295 646 295 646 221.5 708.5 c 128,-1,24
 148 771 148 771 148 880 c 2,25,-1
 148 1147 l 2,26,27
 148 1253 148 1253 219.5 1316 c 128,-1,28
 291 1379 291 1379 428 1379 c 0,29,30
 494 1379 494 1379 546 1362.5 c 128,-1,31
 598 1346 598 1346 634 1315.5 c 128,-1,32
 670 1285 670 1285 689 1242 c 128,-1,33
 708 1199 708 1199 708 1146 c 2,34,-1
 708 877 l 2,35,36
 708 769 708 769 636 707.5 c 128,-1,37
 564 646 564 646 428 646 c 0,22,23
428 789 m 0,38,39
 467 789 467 789 494 810 c 128,-1,40
 521 831 521 831 521 873 c 2,41,-1
 521 1143 l 2,42,43
 521 1182 521 1182 494 1209.5 c 128,-1,44
 467 1237 467 1237 428 1237 c 0,45,46
 388 1237 388 1237 361 1209.5 c 128,-1,47
 334 1182 334 1182 334 1143 c 2,48,-1
 334 873 l 2,49,50
 334 831 334 831 361 810 c 128,-1,51
 388 789 388 789 428 789 c 0,38,39
989 482 m 2,52,53
 989 588 989 588 1060.5 651 c 128,-1,54
 1132 714 1132 714 1269 714 c 0,55,56
 1335 714 1335 714 1387 697.5 c 128,-1,57
 1439 681 1439 681 1475 650.5 c 128,-1,58
 1511 620 1511 620 1530 577 c 128,-1,59
 1549 534 1549 534 1549 481 c 2,60,-1
 1549 212 l 2,61,62
 1549 104 1549 104 1477 42.5 c 128,-1,63
 1405 -19 1405 -19 1269 -19 c 0,64,65
 1136 -19 1136 -19 1062.5 43.5 c 128,-1,66
 989 106 989 106 989 215 c 2,67,-1
 989 482 l 2,52,53
1175 208 m 2,68,69
 1175 166 1175 166 1202 145 c 128,-1,70
 1229 124 1229 124 1269 124 c 0,71,72
 1308 124 1308 124 1335 145 c 128,-1,73
 1362 166 1362 166 1362 208 c 2,74,-1
 1362 478 l 2,75,76
 1362 517 1362 517 1335 544.5 c 128,-1,77
 1308 572 1308 572 1269 572 c 0,78,79
 1229 572 1229 572 1202 544.5 c 128,-1,80
 1175 517 1175 517 1175 478 c 2,81,-1
 1175 208 l 2,68,69
EndSplineSet
EndChar

StartChar: numbersign
Encoding: 35 35 109
Width: 1023
Flags: W
LayerCount: 2
Fore
SplineSet
227 429 m 1,0,-1
 98 429 l 2,1,2
 80 429 80 429 64 436.5 c 128,-1,3
 48 444 48 444 36 456 c 128,-1,4
 24 468 24 468 17 484.5 c 128,-1,5
 10 501 10 501 10 519 c 0,6,7
 10 538 10 538 17 554.5 c 128,-1,8
 24 571 24 571 36 583.5 c 128,-1,9
 48 596 48 596 64 603 c 128,-1,10
 80 610 80 610 98 610 c 2,11,-1
 248 610 l 1,12,-1
 268 779 l 1,13,-1
 144 779 l 2,14,15
 126 779 126 779 110 786.5 c 128,-1,16
 94 794 94 794 82 806 c 128,-1,17
 70 818 70 818 63 834.5 c 128,-1,18
 56 851 56 851 56 869 c 0,19,20
 56 888 56 888 63 904.5 c 128,-1,21
 70 921 70 921 82 933.5 c 128,-1,22
 94 946 94 946 110 953 c 128,-1,23
 126 960 126 960 144 960 c 2,24,-1
 289 960 l 1,25,-1
 329 1298 l 2,26,27
 333 1335 333 1335 360.5 1357 c 128,-1,28
 388 1379 388 1379 423 1379 c 0,29,30
 442 1379 442 1379 458 1371.5 c 128,-1,31
 474 1364 474 1364 486 1351 c 128,-1,32
 498 1338 498 1338 504.5 1321.5 c 128,-1,33
 511 1305 511 1305 511 1287 c 2,34,-1
 511 1277 l 1,35,-1
 473 960 l 1,36,-1
 607 960 l 1,37,-1
 647 1298 l 2,38,39
 651 1335 651 1335 678.5 1357 c 128,-1,40
 706 1379 706 1379 741 1379 c 0,41,42
 760 1379 760 1379 776 1371.5 c 128,-1,43
 792 1364 792 1364 804 1351 c 128,-1,44
 816 1338 816 1338 822.5 1321.5 c 128,-1,45
 829 1305 829 1305 829 1287 c 2,46,-1
 829 1277 l 1,47,-1
 791 960 l 1,48,-1
 905 960 l 2,49,50
 923 960 923 960 939 952.5 c 128,-1,51
 955 945 955 945 967 933 c 128,-1,52
 979 921 979 921 986 904.5 c 128,-1,53
 993 888 993 888 993 870 c 0,54,55
 993 851 993 851 986 834.5 c 128,-1,56
 979 818 979 818 967 805.5 c 128,-1,57
 955 793 955 793 939 786 c 128,-1,58
 923 779 923 779 905 779 c 2,59,-1
 770 779 l 1,60,-1
 750 610 l 1,61,-1
 859 610 l 2,62,63
 877 610 877 610 893 602.5 c 128,-1,64
 909 595 909 595 921 583 c 128,-1,65
 933 571 933 571 940 554.5 c 128,-1,66
 947 538 947 538 947 520 c 0,67,68
 947 501 947 501 940 484.5 c 128,-1,69
 933 468 933 468 921 455.5 c 128,-1,70
 909 443 909 443 893 436 c 128,-1,71
 877 429 877 429 859 429 c 2,72,-1
 728 429 l 1,73,-1
 685 60 l 2,74,75
 680 25 680 25 655.5 2.5 c 128,-1,76
 631 -20 631 -20 597 -20 c 0,77,78
 577 -20 577 -20 560 -12.5 c 128,-1,79
 543 -5 543 -5 530 8 c 128,-1,80
 517 21 517 21 510 37.5 c 128,-1,81
 503 54 503 54 503 72 c 0,82,83
 503 74 503 74 503.5 76.5 c 128,-1,84
 504 79 504 79 504 81 c 2,85,-1
 545 429 l 1,86,-1
 410 429 l 1,87,-1
 367 60 l 2,88,89
 362 25 362 25 337.5 2.5 c 128,-1,90
 313 -20 313 -20 279 -20 c 0,91,92
 259 -20 259 -20 242 -12.5 c 128,-1,93
 225 -5 225 -5 212 8 c 128,-1,94
 199 21 199 21 192 37.5 c 128,-1,95
 185 54 185 54 185 72 c 0,96,97
 185 74 185 74 185.5 76.5 c 128,-1,98
 186 79 186 79 186 81 c 2,99,-1
 227 429 l 1,0,-1
566 610 m 1,100,-1
 586 779 l 1,101,-1
 452 779 l 1,102,-1
 432 610 l 1,103,-1
 566 610 l 1,100,-1
EndSplineSet
EndChar

StartChar: asterisk
Encoding: 42 42 110
Width: 808
Flags: W
LayerCount: 2
Fore
SplineSet
222 777 m 1,0,1
 201 791 201 791 191.5 809.5 c 128,-1,2
 182 828 182 828 182 847 c 0,3,4
 182 870 182 870 192.5 891.5 c 128,-1,5
 203 913 203 913 221 931 c 2,6,-1
 287 997 l 1,7,-1
 192 1012 l 2,8,9
 174 1015 174 1015 156.5 1022.5 c 128,-1,10
 139 1030 139 1030 125.5 1041 c 128,-1,11
 112 1052 112 1052 103.5 1067.5 c 128,-1,12
 95 1083 95 1083 95 1102 c 0,13,14
 95 1127 95 1127 103.5 1145 c 128,-1,15
 112 1163 112 1163 125 1174 c 128,-1,16
 138 1185 138 1185 153.5 1190.5 c 128,-1,17
 169 1196 169 1196 184 1196 c 0,18,19
 200 1195 200 1195 216 1192 c 128,-1,20
 232 1189 232 1189 247 1181 c 2,21,-1
 329 1139 l 1,22,-1
 314 1235 l 2,23,24
 313 1240 313 1240 312.5 1246 c 128,-1,25
 312 1252 312 1252 312 1257 c 0,26,27
 312 1276 312 1276 317 1294.5 c 128,-1,28
 322 1313 322 1313 333 1327.5 c 128,-1,29
 344 1342 344 1342 360.5 1350.5 c 128,-1,30
 377 1359 377 1359 401 1359 c 0,31,32
 449 1359 449 1359 471.5 1329 c 128,-1,33
 494 1299 494 1299 494 1260 c 0,34,35
 494 1254 494 1254 493.5 1247.5 c 128,-1,36
 493 1241 493 1241 492 1235 c 2,37,-1
 477 1139 l 1,38,-1
 562 1183 l 2,39,40
 592 1199 592 1199 625 1199 c 0,41,42
 640 1199 640 1199 655.5 1193.5 c 128,-1,43
 671 1188 671 1188 684 1177 c 128,-1,44
 697 1166 697 1166 705 1148.5 c 128,-1,45
 713 1131 713 1131 713 1106 c 0,46,47
 713 1087 713 1087 705 1071.5 c 128,-1,48
 697 1056 697 1056 684 1044 c 128,-1,49
 671 1032 671 1032 654 1024.5 c 128,-1,50
 637 1017 637 1017 618 1014 c 2,51,-1
 528 1000 l 1,52,-1
 597 932 l 2,53,54
 614 915 614 915 625 893 c 128,-1,55
 636 871 636 871 636 848 c 0,56,57
 636 832 636 832 628.5 816.5 c 128,-1,58
 621 801 621 801 608.5 788.5 c 128,-1,59
 596 776 596 776 579 768.5 c 128,-1,60
 562 761 562 761 544 761 c 0,61,62
 514 761 514 761 490.5 779.5 c 128,-1,63
 467 798 467 798 453 827 c 2,64,-1
 409 913 l 1,65,-1
 365 826 l 2,66,67
 351 798 351 798 327 778.5 c 128,-1,68
 303 759 303 759 273 759 c 0,69,70
 261 759 261 759 248 763 c 128,-1,71
 235 767 235 767 222 777 c 1,0,1
EndSplineSet
EndChar

StartChar: endash
Encoding: 8211 8211 111
Width: 1328
Flags: W
LayerCount: 2
Fore
SplineSet
254 595 m 2,0,1
 236 595 236 595 220 602.5 c 128,-1,2
 204 610 204 610 192 622 c 128,-1,3
 180 634 180 634 173 650.5 c 128,-1,4
 166 667 166 667 166 685 c 0,5,6
 166 704 166 704 173 720.5 c 128,-1,7
 180 737 180 737 192 749.5 c 128,-1,8
 204 762 204 762 220 769 c 128,-1,9
 236 776 236 776 254 776 c 2,10,-1
 1074 776 l 2,11,12
 1092 776 1092 776 1108 768.5 c 128,-1,13
 1124 761 1124 761 1136 749 c 128,-1,14
 1148 737 1148 737 1155 720.5 c 128,-1,15
 1162 704 1162 704 1162 686 c 0,16,17
 1162 667 1162 667 1155 650.5 c 128,-1,18
 1148 634 1148 634 1136 621.5 c 128,-1,19
 1124 609 1124 609 1108 602 c 128,-1,20
 1092 595 1092 595 1074 595 c 2,21,-1
 254 595 l 2,0,1
EndSplineSet
EndChar

StartChar: emdash
Encoding: 8212 8212 112
Width: 1518
Flags: W
LayerCount: 2
Fore
SplineSet
254 595 m 2,0,1
 236 595 236 595 220 602.5 c 128,-1,2
 204 610 204 610 192 622 c 128,-1,3
 180 634 180 634 173 650.5 c 128,-1,4
 166 667 166 667 166 685 c 0,5,6
 166 704 166 704 173 720.5 c 128,-1,7
 180 737 180 737 192 749.5 c 128,-1,8
 204 762 204 762 220 769 c 128,-1,9
 236 776 236 776 254 776 c 2,10,-1
 1264 776 l 2,11,12
 1282 776 1282 776 1298 768.5 c 128,-1,13
 1314 761 1314 761 1326 749 c 128,-1,14
 1338 737 1338 737 1345 720.5 c 128,-1,15
 1352 704 1352 704 1352 686 c 0,16,17
 1352 667 1352 667 1345 650.5 c 128,-1,18
 1338 634 1338 634 1326 621.5 c 128,-1,19
 1314 609 1314 609 1298 602 c 128,-1,20
 1282 595 1282 595 1264 595 c 2,21,-1
 254 595 l 2,0,1
EndSplineSet
EndChar

StartChar: slash
Encoding: 47 47 113
Width: 1023
Flags: W
LayerCount: 2
Fore
SplineSet
653 1470 m 2,0,1
 661 1502 661 1502 685 1520 c 128,-1,2
 709 1538 709 1538 740 1538 c 0,3,4
 781 1538 781 1538 806.5 1511.5 c 128,-1,5
 832 1485 832 1485 832 1448 c 0,6,7
 832 1435 832 1435 829 1423 c 2,8,-1
 368 -292 l 2,9,10
 360 -323 360 -323 336 -341 c 128,-1,11
 312 -359 312 -359 282 -359 c 0,12,13
 262 -359 262 -359 245 -351.5 c 128,-1,14
 228 -344 228 -344 216 -331 c 128,-1,15
 204 -318 204 -318 197 -302 c 128,-1,16
 190 -286 190 -286 190 -268 c 0,17,18
 190 -257 190 -257 193 -245 c 2,19,-1
 653 1470 l 2,0,1
EndSplineSet
EndChar

StartChar: backslash
Encoding: 92 92 114
Width: 1023
Flags: W
LayerCount: 2
Fore
SplineSet
194 1423 m 2,0,1
 191 1435 191 1435 191 1448 c 0,2,3
 191 1485 191 1485 216.5 1511.5 c 128,-1,4
 242 1538 242 1538 282 1538 c 0,5,6
 314 1538 314 1538 338 1520 c 128,-1,7
 362 1502 362 1502 370 1470 c 2,8,-1
 830 -245 l 2,9,10
 832 -250 832 -250 832 -256 c 128,-1,11
 832 -262 832 -262 832 -267 c 0,12,13
 832 -284 832 -284 825.5 -300.5 c 128,-1,14
 819 -317 819 -317 807.5 -330 c 128,-1,15
 796 -343 796 -343 779 -351 c 128,-1,16
 762 -359 762 -359 741 -359 c 0,17,18
 711 -359 711 -359 687 -341 c 128,-1,19
 663 -323 663 -323 655 -292 c 2,20,-1
 194 1423 l 2,0,1
EndSplineSet
EndChar

StartChar: bar
Encoding: 124 124 115
Width: 678
Flags: W
LayerCount: 2
Fore
SplineSet
248 1450 m 2,0,1
 248 1468 248 1468 255.5 1484 c 128,-1,2
 263 1500 263 1500 275 1512 c 128,-1,3
 287 1524 287 1524 303.5 1531 c 128,-1,4
 320 1538 320 1538 338 1538 c 0,5,6
 357 1538 357 1538 373.5 1531 c 128,-1,7
 390 1524 390 1524 402.5 1512 c 128,-1,8
 415 1500 415 1500 422 1484 c 128,-1,9
 429 1468 429 1468 429 1450 c 2,10,-1
 429 -271 l 2,11,12
 429 -289 429 -289 421.5 -305 c 128,-1,13
 414 -321 414 -321 402 -333 c 128,-1,14
 390 -345 390 -345 373.5 -352 c 128,-1,15
 357 -359 357 -359 339 -359 c 0,16,17
 320 -359 320 -359 303.5 -352 c 128,-1,18
 287 -345 287 -345 274.5 -333 c 128,-1,19
 262 -321 262 -321 255 -305 c 128,-1,20
 248 -289 248 -289 248 -271 c 2,21,-1
 248 1450 l 2,0,1
EndSplineSet
EndChar

